<svg width="1440" height="900" viewBox="0 0 1440 900" fill="none" xmlns="http://www.w3.org/2000/svg">
<path d="M1440 0H0V900H1440V0Z" fill="#D0D6F9"/>
<path d="M1.67619 0C1.11746 152.572 0.558731 305.143 0 457.715C189.44 511.398 440.19 563.271 737.575 574.686C1014.02 585.296 1252 557.906 1436.74 523.381C1437.82 348.924 1438.91 174.467 1440 0H1.67619ZM1189.39 282.213C1198.2 275.246 1208.53 270.429 1219.06 266.508C1239.15 259.053 1260.36 254.654 1281.76 253.52C1286.83 253.241 1292.14 253.211 1296.69 255.46C1301.24 257.71 1304.7 262.955 1303.26 267.811C1302.4 270.718 1300.04 272.907 1297.63 274.768C1283.76 285.497 1266.11 289.747 1249.51 295.449C1232.92 301.142 1215.81 309.492 1207.33 324.829C1203.7 331.408 1201.84 338.972 1197.28 344.953C1185.16 360.867 1159.98 359.165 1144.35 371.676C1137.28 377.329 1132.57 385.629 1125.07 390.705C1108.41 401.941 1085.91 393.392 1065.98 395.98C1033.96 400.14 1011.35 429.878 984.494 445.045C973.22 451.405 961.796 451.634 949.065 450.31C942.24 449.603 927.065 449.763 927.584 441.592C927.973 435.561 937.611 431.649 942.46 430.992C950.382 429.937 958.813 431.53 966.156 428.385C962.774 425.588 964.899 419.587 968.84 417.636C972.781 415.685 977.44 416.392 981.82 416.77C996.587 418.064 1013.49 413.715 1020.66 400.777C1026.02 391.113 1026.06 377.13 1036.07 372.422C1048.83 366.421 1062.47 382.574 1076.43 380.523C1085.64 379.16 1093.83 369.954 1102.67 372.9C1108.16 374.741 1112.56 381.111 1118.17 379.638C1122.08 378.602 1123.92 374.243 1125.38 370.471C1134.71 346.476 1151.11 325.974 1167.24 305.89C1174.02 297.45 1180.89 288.931 1189.39 282.213ZM1115.73 138.091C1123.62 134.587 1133.02 134.179 1140.88 137.762C1148.74 141.345 1154.75 149.088 1155.48 157.677C1156.77 172.984 1142.74 184.808 1129.93 193.327C1117.11 201.846 1102.59 212.396 1102.04 227.753C1101.8 234.341 1104.27 241.308 1101.59 247.329C1096.41 258.934 1075.8 259.212 1074.01 271.782C1073.48 275.584 1075.04 279.535 1074.02 283.228C1072.09 290.264 1064.13 290.593 1058.41 292.583C1048.74 295.957 1045.09 298.843 1040.88 308.408C1035.6 320.4 1030.89 327.397 1016.9 330.462C1009.7 332.045 999.201 333.14 1001.99 323.545C1004.24 315.832 1017.74 315.126 1022.79 310.378C1030.49 303.133 1027.7 294.056 1024.82 285.019C1023.12 279.645 1021.82 274.151 1020.94 268.578C1020.39 265.015 1020.26 260.765 1023.07 258.496C1026.85 255.45 1032.5 258.566 1035.67 262.228C1038.85 265.901 1041.93 270.558 1046.77 271.046C1053.75 271.743 1058.08 262.676 1056.24 255.918C1054.42 249.17 1049.04 244.055 1045.25 238.163C1034.86 222.02 1037.81 198.632 1051.89 185.564C1060.8 177.294 1072.88 173.323 1082.62 166.037C1094.25 157.339 1102.46 143.993 1115.73 138.091ZM869.615 36.9237C870.024 -0.636962 911.251 8.0018 939.187 7.46436C981.082 6.66816 1023.12 6.53878 1064.8 11.3259C1072.29 12.1818 1082.01 15.914 1080.98 23.3585C1080.52 26.6826 1077.86 29.2006 1075.4 31.4797C1032.91 70.7821 999.75 122.197 947.907 148.003C936.952 153.457 924.511 157.707 912.598 154.9C901.613 152.303 892.663 143.933 887.076 134.14C881.478 124.356 878.834 113.2 876.709 102.132C872.628 80.8938 869.376 58.6102 869.615 36.9237ZM480.509 140.818C484.649 124.844 498.239 112.841 513.005 105.387C530.695 96.4595 552.535 92.8965 570.155 101.943C586.877 110.532 596.436 128.407 603.709 145.714C610.983 163.012 617.438 181.484 631.057 194.422C647.25 209.808 670.477 214.556 692.138 220.059C724.604 228.31 756.293 239.686 786.454 254.236C801.769 261.631 816.775 269.882 832.948 275.186C845.47 279.287 860.386 283.069 865.465 295.201C869.286 304.307 865.525 315.295 858.441 322.192C851.367 329.089 841.599 332.542 831.911 334.543C800.113 341.111 767.258 334.075 735.56 327.059C691.17 317.235 646.472 307.303 604.757 289.269C594.69 284.91 584.792 280.083 574.336 276.769C539.814 265.821 484.62 271.016 481.956 222.936C481.337 211.809 483.273 200.672 482.824 189.545C482.165 173.203 476.408 156.662 480.509 140.818ZM174.584 38.6853C178.116 24.2243 191.715 13.8638 206.162 10.1714C220.609 6.46912 235.864 8.31032 250.561 10.8681C270.795 14.4012 290.79 19.268 310.385 25.4186C330.23 31.6589 350.634 39.9194 363.544 56.2017C376.445 72.4839 378.54 98.9476 362.856 112.592C355.313 119.161 345.076 121.759 335.119 122.744C311.962 125.033 288.924 119.012 266.006 117.2C244.265 115.479 222.116 103.924 204.356 91.8316C195.406 85.7307 186.886 78.6445 180.989 69.5778C175.082 60.5111 172.019 49.1852 174.584 38.6853ZM51.8822 225.792C49.0786 207.838 41.9847 190.899 35.9783 173.75C26.2504 145.983 16.8517 100.52 46.3946 80.008C70.011 63.5964 110.768 78.2564 96.1117 111.01C92.0709 120.047 85.5557 127.76 80.9961 136.548C69.1929 159.29 72.2459 188.878 88.4392 208.743C95.1439 216.954 103.804 223.553 109.591 232.44C115.378 241.318 117.553 253.968 110.679 262.039C105.67 267.921 97.339 269.722 89.6065 270.061C81.016 270.439 71.8369 269.255 65.172 263.83C54.4663 255.122 53.9974 239.407 51.8822 225.792ZM511.798 494.31C503.696 503.297 489.878 503.506 477.765 502.909C371.736 497.664 258.653 487.015 157.802 452.838C130.314 443.523 105.65 433.381 83.8596 413.466C77.504 407.654 71.4178 401.045 68.8337 392.844C66.2496 384.644 68.0954 374.512 75.1593 369.586C81.1856 365.376 89.2673 365.853 96.4909 367.247C115.298 370.879 132.709 379.478 149.969 387.749C184.501 404.29 219.641 419.905 256.428 430.515C318.986 448.559 385.096 451.713 450.038 447.095C461.233 446.289 472.557 445.274 483.622 447.115C494.697 448.967 505.702 454.062 512.167 463.219C518.632 472.365 519.301 485.99 511.798 494.31ZM663.703 494.111C661.937 499.545 656.828 503.178 651.71 505.755C631.506 515.927 606.173 514.165 586.169 503.864C580.651 501.018 575.393 496.798 573.508 490.896C571.552 484.746 573.737 477.809 577.868 472.843C581.998 467.866 587.825 464.592 593.792 462.074C605.964 456.958 619.623 454.61 632.524 457.466C645.414 460.332 657.357 468.881 662.446 481.043C664.172 485.164 665.09 489.861 663.703 494.111ZM639.687 430.903C602.751 425.538 567.052 413.924 531.563 402.359L380.406 353.094C352.699 344.057 324.852 334.971 298.881 321.754C277.659 310.955 260.349 297.42 242.539 282.053C222.355 264.647 198.27 252.903 178.914 234.122C157.333 213.172 140.252 186.231 136.779 156.383C136.141 150.85 136.231 144.55 140.182 140.619C145.959 134.876 155.756 137.812 162.83 141.853C189.24 156.951 208.836 182.389 236.114 195.875C249.603 202.543 264.469 206.006 278.158 212.257C291.857 218.497 304.997 228.479 309.557 242.791C313.159 254.057 311.074 266.836 316.332 277.426C323.086 291.011 342.383 296.485 355.283 288.463C368.184 280.441 371.776 260.745 362.517 248.723C358.017 242.861 350.604 236.581 353.537 229.793C355.782 224.618 362.716 223.622 368.334 224.269C389.306 226.698 406.677 240.82 424.316 252.385C454.638 272.25 489.099 285.806 524.848 291.916C540.193 294.544 556.057 295.897 570.145 302.486C585.7 309.761 598.142 323.386 603.949 339.519C610.514 357.752 610.025 380.533 625.43 392.327C636.495 400.797 652.289 400.1 665.379 395.313C678.469 390.526 689.963 382.245 702.515 376.184C732.806 361.574 768.265 360.549 801.3 366.928C834.345 373.318 865.564 386.654 896.494 399.891C902.979 402.668 910.043 406.002 912.817 412.471C916.449 420.95 910.492 431.072 902.281 435.312C894.07 439.552 884.372 439.452 875.133 439.253C823.37 438.138 771.608 437.024 719.845 435.909C693.066 435.332 666.197 434.754 639.687 430.903ZM1263.02 509.189C1252.64 515.389 1240.13 516.783 1228.06 517.619C1155.37 522.705 1081.47 513.19 1009.97 527.183C1015.43 528.567 1020.79 530.378 1025.97 532.597C1027.29 533.165 1028.71 533.881 1029.2 535.225C1030.27 538.171 1026.21 540.201 1023.1 540.669C988.236 545.993 952.317 544.252 918.135 535.593C916.798 532.956 920.659 530.816 923.593 530.338C932.742 528.825 941.891 527.323 951.04 525.82C924.76 521.66 898.48 517.499 872.199 513.329C860.995 511.558 852.215 508.622 842.706 502.67C832.988 496.609 826.972 497.077 815.129 497.196C801.969 497.326 788.799 497.007 775.659 496.251C770.849 495.982 739.471 490.349 737.525 492.827C753.728 472.166 783.122 468.513 809.342 466.473C831.492 464.761 853.671 463.039 875.891 463.209C889.999 463.308 907.38 466.553 911.56 479.998C912.558 483.213 912.697 486.856 914.882 489.413C917.327 492.26 921.458 492.797 925.199 493.116C1030 502.083 1136.15 495.285 1238.95 473.022C1246.84 471.32 1254.74 469.518 1262.78 468.852C1265.74 468.603 1268.83 468.533 1271.5 469.787C1275.04 471.439 1277.24 475.152 1278.18 478.933C1281.09 490.658 1273.42 502.979 1263.02 509.189ZM1352.75 400.169C1348.75 403.842 1343.04 404.837 1337.67 405.663C1322.28 408.052 1306.89 410.431 1291.51 412.819C1278.09 414.889 1262.25 419.955 1248.67 418.522C1240.59 417.676 1233.78 412.889 1225.66 411.874C1212.19 410.182 1198.68 414.531 1185.19 411.734C1184.1 411.505 1182.98 411.207 1182.21 410.421C1179.24 407.455 1184.16 403.175 1188.18 401.951C1239.1 386.435 1291.2 374.811 1343.88 367.207C1348.22 366.58 1353.42 366.311 1356.13 369.735C1357.68 371.695 1357.93 374.353 1358.11 376.851C1358.7 385.091 1358.85 394.576 1352.75 400.169ZM1387.88 150.472C1377.35 154.95 1365.65 155.786 1354.2 155.766C1339.52 155.736 1324.83 154.403 1310.38 151.785C1300.32 149.964 1289.96 147.317 1282.13 140.758C1270.77 131.233 1267.04 115.658 1263.97 101.187C1262.99 96.5889 1262.02 91.7221 1263.52 87.2733C1264.76 83.6108 1267.52 80.6848 1270.24 77.928C1290.67 57.1372 1322.15 20.4225 1355.14 24.9409C1382.06 28.6333 1412.06 57.4358 1418.74 82.9739C1425.54 109.049 1412.72 139.892 1387.88 150.472Z" fill="#A6A9EE"/>
<path d="M902.333 435.233C894.123 439.472 884.426 439.373 875.187 439.174C823.43 438.059 771.673 436.945 719.915 435.83C693.139 435.253 666.272 434.676 639.765 430.825C602.832 425.462 567.137 413.849 531.651 402.286L380.509 353.031C352.805 343.995 324.96 334.91 298.992 321.696C277.772 310.899 260.463 297.366 242.655 282.003C222.473 264.599 198.39 252.857 179.036 234.08C157.457 213.134 140.378 186.197 136.906 156.355C136.267 150.823 136.357 144.524 140.308 140.593C146.084 134.852 155.881 137.787 162.954 141.827C189.362 156.922 208.955 182.356 236.231 195.84C249.719 202.507 264.583 205.969 278.271 212.218C291.969 218.457 305.107 228.438 309.667 242.747C313.268 254.011 311.183 266.788 316.441 277.376C323.195 290.958 342.489 296.431 355.388 288.411C368.288 280.391 371.879 260.698 362.621 248.678C358.122 242.817 350.71 236.538 353.643 229.752C355.887 224.577 362.821 223.582 368.438 224.229C389.408 226.657 406.777 240.777 424.415 252.34C454.733 272.201 489.192 285.754 524.937 291.864C540.281 294.491 556.143 295.844 570.23 302.431C585.783 309.705 598.223 323.328 604.03 339.458C610.594 357.688 610.105 380.465 625.509 392.256C636.573 400.724 652.365 400.028 665.454 395.241C678.543 390.455 690.036 382.176 702.586 376.116C732.874 361.509 768.331 360.484 801.362 366.862C834.404 373.25 865.62 386.584 896.547 399.819C903.032 402.595 910.095 405.928 912.868 412.396C916.5 420.874 910.544 430.994 902.333 435.233Z" fill="#9395E7"/>
<path d="M1129.96 193.292C1117.14 201.81 1102.62 212.358 1102.07 227.711C1101.83 234.299 1104.3 241.264 1101.62 247.284C1096.44 258.887 1075.83 259.166 1074.05 271.733C1073.52 275.534 1075.07 279.485 1074.06 283.177C1072.12 290.212 1064.17 290.54 1058.44 292.53C1048.78 295.904 1045.13 298.789 1040.92 308.352C1035.64 320.342 1030.93 327.338 1016.94 330.403C1009.74 331.985 999.244 333.079 1002.04 323.487C1004.28 315.775 1017.78 315.069 1022.83 310.322C1030.53 303.078 1027.74 294.003 1024.86 284.968C1023.16 279.594 1021.86 274.102 1020.98 268.529C1020.43 264.967 1020.3 260.718 1023.11 258.449C1026.89 255.404 1032.53 258.519 1035.71 262.181C1038.89 265.852 1041.97 270.509 1046.81 270.997C1053.78 271.694 1058.11 262.628 1056.28 255.872C1054.45 249.125 1049.08 244.011 1045.28 238.12C1034.9 221.98 1037.85 198.596 1051.93 185.531C1060.84 177.261 1072.92 173.291 1082.66 166.007C1094.28 157.31 1102.49 143.966 1115.76 138.066C1123.65 134.563 1133.05 134.155 1140.91 137.737C1148.77 141.32 1154.78 149.061 1155.5 157.649C1156.8 172.953 1142.77 184.774 1129.96 193.292Z" fill="#9395E7"/>
<path d="M1303.27 267.763C1302.42 270.669 1300.05 272.858 1297.65 274.719C1283.78 285.445 1266.13 289.694 1249.53 295.396C1232.94 301.088 1215.83 309.437 1207.35 324.771C1203.72 331.348 1201.86 338.91 1197.3 344.891C1185.18 360.802 1160 359.1 1144.38 371.608C1137.31 377.26 1132.6 385.559 1125.1 390.634C1108.45 401.868 1085.95 393.321 1066.02 395.908C1034 400.067 1011.39 429.8 984.539 444.965C973.265 451.323 961.842 451.552 949.112 450.229C942.289 449.522 927.115 449.682 927.633 441.512C928.022 435.482 937.66 431.571 942.508 430.915C950.429 429.86 958.859 431.452 966.202 428.307C962.82 425.511 964.945 419.511 968.886 417.561C972.826 415.61 977.485 416.317 981.865 416.695C996.63 417.989 1013.53 413.64 1020.7 400.704C1026.06 391.042 1026.1 377.061 1036.11 372.355C1048.87 366.354 1062.5 382.504 1076.46 380.455C1085.68 379.091 1093.86 369.887 1102.7 372.832C1108.2 374.673 1112.6 381.042 1118.2 379.569C1122.11 378.534 1123.95 374.176 1125.41 370.404C1134.74 346.413 1151.13 325.915 1167.27 305.834C1174.05 297.396 1180.91 288.878 1189.41 282.162C1198.22 275.196 1208.55 270.38 1219.08 266.46C1239.17 259.006 1260.38 254.608 1281.77 253.474C1286.84 253.195 1292.15 253.165 1296.7 255.414C1301.25 257.663 1304.71 262.907 1303.27 267.763Z" fill="#9395E7"/>
<path d="M858.497 322.134C851.424 329.03 841.657 332.482 831.97 334.483C800.175 341.05 767.323 334.015 735.628 327C691.243 317.178 646.549 307.248 604.838 289.217C594.772 284.858 584.875 280.032 574.42 276.719C539.901 265.773 484.712 270.967 482.048 222.896C481.43 211.771 483.365 200.636 482.916 189.511C482.258 173.172 476.502 156.634 480.602 140.792C484.742 124.822 498.33 112.821 513.095 105.368C530.783 96.4422 552.621 92.8798 570.24 101.925C586.96 110.512 596.517 128.384 603.79 145.688C611.063 162.982 617.518 181.451 631.135 194.387C647.327 209.771 670.552 214.517 692.211 220.02C724.674 228.269 756.359 239.643 786.517 254.19C801.831 261.584 816.836 269.833 833.007 275.137C845.528 279.236 860.442 283.018 865.52 295.147C869.341 304.252 865.58 315.238 858.497 322.134Z" fill="#9395E7"/>
<path d="M1352.76 400.097C1348.76 403.769 1343.05 404.764 1337.68 405.59C1322.29 407.978 1306.91 410.356 1291.52 412.745C1278.1 414.814 1262.27 419.879 1248.69 418.446C1240.61 417.6 1233.8 412.814 1225.68 411.799C1212.21 410.108 1198.7 414.456 1185.21 411.66C1184.13 411.431 1183.01 411.133 1182.23 410.346C1179.27 407.381 1184.19 403.102 1188.21 401.878C1239.12 386.365 1291.21 374.743 1343.89 367.141C1348.23 366.514 1353.43 366.245 1356.14 369.668C1357.69 371.628 1357.93 374.285 1358.11 376.783C1358.71 385.022 1358.86 394.505 1352.76 400.097Z" fill="#9395E7"/>
<path d="M1081.01 23.3543C1080.55 26.6778 1077.9 29.1953 1075.43 31.474C1032.95 70.7693 999.792 122.175 947.955 147.977C937.001 153.43 924.561 157.679 912.649 154.873C901.665 152.275 892.716 143.907 887.129 134.115C881.532 124.334 878.889 113.179 876.764 102.114C872.683 80.8792 869.431 58.5996 869.671 36.9171C870.08 -0.636835 911.302 8.00037 939.236 7.46303C981.127 6.66697 1023.16 6.53762 1064.84 11.3239C1072.33 12.1797 1082.05 15.9112 1081.01 23.3543Z" fill="#9395E7"/>
<path d="M362.96 112.572C355.418 119.14 345.183 121.737 335.226 122.722C312.071 125.011 289.036 118.99 266.12 117.179C244.381 115.458 222.234 103.905 204.476 91.815C195.527 85.7153 187.007 78.6304 181.111 69.5653C175.205 60.5002 172.142 49.1763 174.706 38.6784C178.238 24.22 191.836 13.8613 206.281 10.1696C220.727 6.46797 235.981 8.30885 250.676 10.8662C270.908 14.3987 290.901 19.2646 310.495 25.4141C330.338 31.6532 350.739 39.9122 363.649 56.1916C376.548 72.4709 378.643 98.9298 362.96 112.572Z" fill="#9395E7"/>
<path d="M511.888 494.221C503.787 503.206 489.97 503.415 477.858 502.818C371.839 497.574 258.767 486.927 157.926 452.756C130.441 443.442 105.78 433.303 83.9911 413.391C77.6362 407.58 71.5506 400.973 68.9667 392.774C66.3828 384.574 68.2284 374.444 75.2917 369.519C81.3174 365.31 89.3983 365.787 96.6212 367.18C115.427 370.812 132.835 379.41 150.095 387.679C184.623 404.217 219.76 419.83 256.542 430.437C319.094 448.478 385.198 451.632 450.134 447.015C461.328 446.209 472.651 445.194 483.715 447.035C494.788 448.886 505.792 453.98 512.257 463.135C518.722 472.28 519.39 485.902 511.888 494.221Z" fill="#9395E7"/>
<path d="M1263.04 509.097C1252.65 515.296 1240.15 516.69 1228.08 517.525C1155.39 522.61 1081.51 513.097 1010.01 527.088C1015.48 528.471 1020.83 530.282 1026.01 532.501C1027.33 533.068 1028.75 533.785 1029.24 535.128C1030.31 538.074 1026.25 540.104 1023.14 540.571C988.28 545.895 952.365 544.154 918.186 535.496C916.849 532.859 920.71 530.72 923.643 530.242C932.791 528.73 941.939 527.227 951.088 525.725C924.81 521.565 898.532 517.406 872.254 513.237C861.051 511.466 852.272 508.53 842.764 502.58C833.047 496.52 827.031 496.987 815.19 497.107C802.031 497.236 788.862 496.918 775.723 496.161C770.914 495.893 739.539 490.261 737.593 492.738C753.795 472.081 783.185 468.429 809.403 466.389C831.551 464.677 853.728 462.956 875.946 463.125C890.052 463.225 907.431 466.468 911.611 479.912C912.609 483.126 912.748 486.768 914.933 489.325C917.378 492.171 921.508 492.708 925.249 493.027C1030.04 501.992 1136.18 495.196 1238.97 472.936C1246.86 471.235 1254.76 469.434 1262.8 468.767C1265.75 468.518 1268.85 468.449 1271.52 469.702C1275.06 471.354 1277.26 475.066 1278.19 478.847C1281.11 490.569 1273.43 502.888 1263.04 509.097Z" fill="#9395E7"/>
<path d="M1387.88 150.444C1377.36 154.922 1365.66 155.758 1354.21 155.738C1339.53 155.708 1324.84 154.375 1310.4 151.758C1300.33 149.937 1289.98 147.29 1282.14 140.733C1270.79 131.21 1267.06 115.637 1263.99 101.169C1263.01 96.5715 1262.04 91.7056 1263.54 87.2576C1264.77 83.5958 1267.54 80.6703 1270.25 77.9139C1290.68 57.1269 1322.16 20.4188 1355.15 24.9364C1382.07 28.6281 1412.07 57.4254 1418.74 82.9589C1425.54 109.03 1412.72 139.867 1387.88 150.444Z" fill="#9395E7"/>
<path d="M663.778 494.022C662.012 499.455 656.904 503.087 651.786 505.664C631.584 515.834 606.254 514.072 586.252 503.774C580.735 500.928 575.477 496.709 573.592 490.808C571.636 484.658 573.821 477.723 577.951 472.757C582.082 467.782 587.908 464.508 593.874 461.991C606.045 456.876 619.702 454.528 632.602 457.383C645.491 460.249 657.433 468.797 662.521 480.957C664.247 485.076 665.165 489.773 663.778 494.022Z" fill="#9395E7"/>
<path d="M110.808 261.992C105.799 267.873 97.4692 269.674 89.7375 270.012C81.1478 270.39 71.9696 269.206 65.3054 263.783C54.6007 255.076 54.1318 239.364 52.0168 225.751C49.2135 207.8 42.1203 190.864 36.1145 173.719C26.3875 145.957 16.9898 100.502 46.5298 79.9936C70.1439 63.5849 110.897 78.2423 96.2421 110.99C92.2017 120.025 85.6871 127.737 81.1279 136.523C69.3258 159.261 72.3786 188.844 88.5703 208.706C95.2744 216.915 103.934 223.512 109.72 232.398C115.506 241.274 117.681 253.922 110.808 261.992Z" fill="#9395E7"/>
<path d="M1.76582 459.224C204.705 516.431 476.591 571.1 799.576 576.463C1047.81 580.583 1264.16 554.552 1438.36 521.287" fill="#9395E7"/>
<path d="M1.76582 459.224C204.705 516.431 476.591 571.1 799.576 576.463C1047.81 580.583 1264.16 554.552 1438.36 521.287" stroke="#231F20" stroke-width="5" stroke-miterlimit="10"/>
<path d="M0.139671 503.455C203.079 560.662 474.965 615.331 797.95 620.694C1046.18 624.814 1262.53 598.783 1436.74 565.518" stroke="#0B0D17" stroke-miterlimit="10"/>
<path d="M1440 0H0V900H1440V0Z" fill="#D0D6F9" fill-opacity="0.7"/>
</svg>
