<svg width="375" height="710" viewBox="0 0 375 710" fill="none" xmlns="http://www.w3.org/2000/svg">
<g clip-path="url(#clip0_170_1051)">
<rect width="375" height="710" fill="#D0D6F9"/>
<path d="M550 906.146L550 -117.854L-218 -117.854L-218 906.146L550 906.146Z" fill="#D0D6F9"/>
<path d="M-661.324 -118C-661.883 34.5716 -662.441 187.143 -663 339.715C-473.56 393.398 -222.81 445.271 74.5751 456.686C351.017 467.296 588.997 439.906 773.737 405.381C774.825 230.924 775.912 56.4671 777 -118H-661.324ZM526.389 164.213C535.199 157.246 545.526 152.429 556.062 148.508C576.146 141.053 597.358 136.654 618.759 135.52C623.828 135.241 629.136 135.211 633.685 137.46C638.235 139.71 641.697 144.955 640.26 149.811C639.402 152.718 637.038 154.907 634.633 156.768C620.765 167.497 603.115 171.747 586.513 177.449C569.92 183.142 552.809 191.492 544.328 206.829C540.697 213.408 538.841 220.972 534.281 226.953C522.159 242.867 496.976 241.165 481.351 253.676C474.277 259.329 469.568 267.629 462.065 272.705C445.413 283.941 422.914 275.392 402.979 277.98C370.962 282.14 348.353 311.878 321.494 327.045C310.22 333.405 298.796 333.634 286.065 332.31C279.24 331.603 264.065 331.763 264.584 323.592C264.973 317.561 274.611 313.649 279.46 312.992C287.382 311.937 295.813 313.53 303.156 310.385C299.774 307.588 301.899 301.587 305.84 299.636C309.781 297.685 314.44 298.392 318.82 298.77C333.587 300.064 350.489 295.715 357.662 282.777C363.02 273.113 363.06 259.13 373.067 254.422C385.828 248.421 399.467 264.574 413.426 262.523C422.645 261.16 430.826 251.954 439.666 254.9C445.164 256.741 449.563 263.111 455.171 261.638C459.082 260.602 460.918 256.243 462.384 252.471C471.713 228.476 488.106 207.974 504.239 187.89C511.024 179.45 517.888 170.931 526.389 164.213ZM452.726 20.0907C460.618 16.5874 470.017 16.1794 477.879 19.7623C485.741 23.3452 491.748 31.0882 492.476 39.6772C493.773 54.9841 479.745 66.8077 466.934 75.327C454.113 83.8463 439.586 94.396 439.037 109.753C438.798 116.341 441.272 123.308 438.588 129.329C433.41 140.934 412.797 141.212 411.011 153.782C410.482 157.584 412.039 161.535 411.021 165.228C409.085 172.264 401.133 172.593 395.406 174.583C385.738 177.957 382.087 180.843 377.876 190.408C372.598 202.4 367.889 209.397 353.901 212.462C346.697 214.045 336.201 215.14 338.995 205.545C341.24 197.832 354.739 197.126 359.787 192.378C367.49 185.133 364.696 176.056 361.823 167.019C360.117 161.645 358.82 156.151 357.942 150.578C357.393 147.015 357.263 142.765 360.067 140.496C363.848 137.45 369.495 140.566 372.668 144.228C375.851 147.901 378.934 152.558 383.773 153.046C390.747 153.743 395.077 144.676 393.241 137.918C391.416 131.17 386.038 126.055 382.246 120.163C371.86 104.02 374.813 80.6317 388.891 67.5641C397.801 59.2936 409.884 55.3225 419.621 48.0373C431.245 39.3388 439.457 25.9926 452.726 20.0907ZM206.615 -81.0763C207.024 -118.637 248.251 -109.998 276.187 -110.536C318.082 -111.332 360.117 -111.461 401.802 -106.674C409.295 -105.818 419.013 -102.086 417.975 -94.6415C417.516 -91.3174 414.862 -88.7994 412.398 -86.5203C369.914 -47.2179 336.75 4.19662 284.907 30.0034C273.952 35.4574 261.511 39.7071 249.598 36.9005C238.613 34.3029 229.663 25.9328 224.076 16.1396C218.478 6.3563 215.834 -4.80043 213.709 -15.8676C209.628 -37.1062 206.376 -59.3898 206.615 -81.0763ZM-182.491 22.8177C-178.351 6.84398 -164.761 -5.15873 -149.995 -12.6131C-132.305 -21.5405 -110.465 -25.1035 -92.8447 -16.0567C-76.1227 -7.4677 -66.5645 10.407 -59.291 27.7143C-52.0175 45.0117 -45.5621 63.4836 -31.9431 76.4218C-15.7498 91.8083 7.47742 96.5557 29.1382 102.059C61.6045 110.31 93.2926 121.686 123.454 136.236C138.769 143.631 153.775 151.882 169.948 157.186C182.47 161.287 197.386 165.069 202.465 177.201C206.286 186.307 202.525 197.295 195.441 204.192C188.367 211.089 178.599 214.542 168.911 216.543C137.113 223.111 104.258 216.075 72.5596 209.059C28.1705 199.235 -16.528 189.303 -58.2433 171.269C-68.3104 166.91 -78.2079 162.083 -88.6642 158.769C-123.186 147.821 -178.38 153.016 -181.044 104.936C-181.663 93.8088 -179.727 82.672 -180.176 71.5451C-180.835 55.2031 -186.592 38.6621 -182.491 22.8177ZM-488.416 -79.3147C-484.884 -93.7757 -471.285 -104.136 -456.838 -107.829C-442.391 -111.531 -427.136 -109.69 -412.439 -107.132C-392.205 -103.599 -372.21 -98.732 -352.615 -92.5814C-332.77 -86.3411 -312.366 -78.0806 -299.456 -61.7983C-286.555 -45.5161 -284.46 -19.0524 -300.144 -5.40754C-307.687 1.1611 -317.924 3.75871 -327.881 4.744C-351.038 7.03307 -374.076 1.01182 -396.994 -0.799538C-418.735 -2.52132 -440.884 -14.0762 -458.644 -26.1684C-467.594 -32.2693 -476.114 -39.3555 -482.011 -48.4222C-487.918 -57.4889 -490.981 -68.8148 -488.416 -79.3147ZM-611.118 107.792C-613.921 89.8377 -621.015 72.8986 -627.022 55.7505C-636.75 27.983 -646.148 -17.4799 -616.605 -37.992C-592.989 -54.4036 -552.232 -39.7436 -566.888 -6.98998C-570.929 2.04688 -577.444 9.76005 -582.004 18.5481C-593.807 41.2895 -590.754 70.8783 -574.561 90.7434C-567.856 98.9542 -559.196 105.553 -553.409 114.44C-547.622 123.318 -545.447 135.968 -552.321 144.039C-557.33 149.921 -565.661 151.722 -573.393 152.061C-581.984 152.439 -591.163 151.255 -597.828 145.83C-608.534 137.122 -609.003 121.407 -611.118 107.792ZM-151.202 376.31C-159.304 385.297 -173.122 385.506 -185.235 384.909C-291.264 379.664 -404.347 369.015 -505.198 334.838C-532.686 325.523 -557.35 315.381 -579.14 295.466C-585.496 289.654 -591.582 283.045 -594.166 274.844C-596.75 266.644 -594.905 256.512 -587.841 251.586C-581.814 247.376 -573.733 247.853 -566.509 249.247C-547.702 252.879 -530.291 261.478 -513.031 269.749C-478.499 286.29 -443.359 301.905 -406.572 312.515C-344.014 330.559 -277.904 333.713 -212.962 329.095C-201.767 328.289 -190.443 327.274 -179.378 329.115C-168.303 330.967 -157.298 336.062 -150.833 345.219C-144.368 354.365 -143.699 367.99 -151.202 376.31ZM0.70282 376.111C-1.06317 381.545 -6.17157 385.178 -11.2899 387.755C-31.494 397.927 -56.8265 396.165 -76.8311 385.864C-82.3486 383.018 -87.6066 378.798 -89.4924 372.896C-91.4479 366.746 -89.2629 359.809 -85.1323 354.843C-81.0016 349.866 -75.1749 346.592 -69.2084 344.074C-57.036 338.958 -43.3771 336.61 -30.4764 339.466C-17.5857 342.332 -5.64276 350.881 -0.554321 363.043C1.17181 367.164 2.08966 371.861 0.70282 376.111ZM-23.3126 312.903C-60.2487 307.538 -95.9478 295.924 -131.437 284.359L-282.594 235.094C-310.301 226.057 -338.148 216.971 -364.119 203.754C-385.341 192.955 -402.651 179.42 -420.461 164.053C-440.645 146.647 -464.73 134.903 -484.086 116.122C-505.667 95.1723 -522.748 68.2309 -526.221 38.3834C-526.859 32.8498 -526.769 26.5499 -522.818 22.6187C-517.041 16.8761 -507.244 19.8121 -500.17 23.8528C-473.76 38.9507 -454.164 64.3892 -426.886 77.8748C-413.397 84.543 -398.531 88.0065 -384.842 94.2567C-371.143 100.497 -358.003 110.479 -353.443 124.791C-349.841 136.057 -351.926 148.836 -346.668 159.426C-339.914 173.011 -320.617 178.485 -307.717 170.463C-294.816 162.441 -291.224 142.745 -300.483 130.723C-304.983 124.861 -312.396 118.581 -309.463 111.793C-307.218 106.618 -300.284 105.622 -294.666 106.269C-273.694 108.698 -256.323 122.82 -238.684 134.385C-208.362 154.25 -173.901 167.806 -138.152 173.916C-122.807 176.544 -106.943 177.897 -92.8547 184.486C-77.3 191.761 -64.8583 205.386 -59.0515 221.519C-52.4864 239.752 -52.9753 262.533 -37.5703 274.327C-26.5054 282.797 -10.7112 282.1 2.37903 277.313C15.4693 272.526 26.9632 264.245 39.5147 258.184C69.8059 243.574 105.265 242.549 138.3 248.928C171.345 255.318 202.564 268.654 233.494 281.891C239.979 284.668 247.043 288.002 249.817 294.471C253.449 302.95 247.492 313.072 239.281 317.312C231.07 321.552 221.372 321.452 212.133 321.253C160.37 320.138 108.608 319.024 56.8453 317.909C30.0662 317.332 3.1972 316.754 -23.3126 312.903ZM600.022 391.189C589.635 397.389 577.134 398.783 565.061 399.619C492.366 404.705 418.474 395.19 346.967 409.183C352.434 410.567 357.792 412.378 362.97 414.597C364.287 415.165 365.714 415.881 366.203 417.225C367.271 420.171 363.21 422.201 360.097 422.669C325.236 427.993 289.317 426.252 255.135 417.593C253.798 414.956 257.659 412.816 260.593 412.338C269.742 410.825 278.891 409.323 288.04 407.82C261.76 403.66 235.48 399.499 209.199 395.329C197.995 393.558 189.215 390.622 179.706 384.67C169.988 378.609 163.972 379.077 152.129 379.196C138.969 379.326 125.799 379.007 112.659 378.251C107.849 377.982 76.4708 372.349 74.5252 374.827C90.7284 354.166 120.122 350.513 146.342 348.473C168.492 346.761 190.671 345.039 212.891 345.209C226.999 345.308 244.38 348.553 248.56 361.998C249.558 365.213 249.697 368.856 251.882 371.413C254.327 374.26 258.458 374.797 262.199 375.116C367.001 384.083 473.15 377.285 575.947 355.022C583.839 353.32 591.741 351.518 599.782 350.852C602.736 350.603 605.829 350.533 608.503 351.787C612.045 353.439 614.24 357.152 615.177 360.933C618.091 372.658 610.418 384.979 600.022 391.189ZM689.748 282.169C685.747 285.842 680.04 286.837 674.672 287.663C659.277 290.052 643.892 292.431 628.507 294.819C615.088 296.889 599.254 301.955 585.674 300.522C577.593 299.676 570.778 294.889 562.657 293.874C549.187 292.182 535.678 296.531 522.189 293.734C521.101 293.505 519.984 293.207 519.205 292.421C516.242 289.455 521.161 285.175 525.182 283.951C576.096 268.435 628.198 256.811 680.878 249.207C685.218 248.58 690.417 248.311 693.13 251.735C694.677 253.695 694.926 256.353 695.106 258.851C695.705 267.091 695.854 276.576 689.748 282.169ZM724.878 32.4716C714.352 36.9502 702.649 37.7862 691.205 37.7663C676.518 37.7365 661.832 36.4028 647.384 33.7853C637.317 31.964 626.961 29.3167 619.129 22.758C607.774 13.2335 604.043 -2.34217 600.97 -16.8131C599.992 -21.4111 599.024 -26.2779 600.521 -30.7267C601.758 -34.3892 604.522 -37.3152 607.235 -40.072C627.669 -60.8628 659.148 -97.5775 692.143 -93.0591C719.062 -89.3667 749.063 -60.5642 755.738 -35.0261C762.543 -8.95061 749.722 21.8921 724.878 32.4716Z" fill="#A6A9EE"/>
<path d="M239.333 317.233C231.123 321.472 221.426 321.373 212.187 321.174C160.43 320.059 108.673 318.945 56.9151 317.83C30.1385 317.253 3.27222 316.676 -23.235 312.825C-60.1676 307.462 -95.8631 295.849 -131.349 284.286L-282.491 235.031C-310.196 225.995 -338.04 216.91 -364.008 203.696C-385.228 192.899 -402.537 179.366 -420.345 164.003C-440.527 146.599 -464.61 134.857 -483.964 116.08C-505.543 95.1339 -522.622 68.1974 -526.094 38.3552C-526.733 32.8227 -526.643 26.5239 -522.692 22.5933C-516.916 16.8518 -507.119 19.7873 -500.046 23.8272C-473.638 38.9224 -454.045 64.3564 -426.769 77.8396C-413.281 84.5065 -398.417 87.9694 -384.729 94.2184C-371.031 100.457 -357.893 110.438 -353.333 124.747C-349.732 136.011 -351.817 148.788 -346.559 159.376C-339.805 172.958 -320.511 178.431 -307.612 170.411C-294.712 162.391 -291.121 142.698 -300.379 130.678C-304.878 124.817 -312.291 118.538 -309.357 111.752C-307.113 106.577 -300.179 105.582 -294.563 106.229C-273.592 108.657 -256.223 122.777 -238.585 134.34C-208.267 154.201 -173.809 167.754 -138.063 173.864C-122.719 176.491 -106.857 177.844 -92.7704 184.431C-77.2172 191.705 -64.7767 205.328 -58.9704 221.458C-52.406 239.688 -52.8948 262.465 -37.4913 274.256C-26.4275 282.724 -10.6349 282.028 2.45416 277.241C15.5432 272.455 27.0359 264.176 39.5862 258.116C69.8745 243.509 105.331 242.484 138.362 248.862C171.404 255.25 202.62 268.584 233.547 281.819C240.031 284.595 247.095 287.928 249.868 294.396C253.5 302.874 247.544 312.994 239.333 317.233Z" fill="#9395E7"/>
<path d="M466.964 75.2918C454.144 83.8096 439.619 94.3573 439.07 109.711C438.831 116.299 441.305 123.264 438.621 129.284C433.443 140.887 412.832 141.165 411.047 153.733C410.518 157.534 412.074 161.485 411.056 165.176C409.121 172.212 401.17 172.54 395.443 174.53C385.776 177.903 382.125 180.789 377.915 190.352C372.637 202.342 367.929 209.338 353.942 212.402C346.739 213.985 336.244 215.079 339.037 205.487C341.282 197.775 354.78 197.068 359.828 192.322C367.53 185.078 364.736 176.003 361.863 166.967C360.157 161.594 358.86 156.101 357.982 150.529C357.434 146.967 357.304 142.718 360.107 140.449C363.888 137.404 369.535 140.519 372.707 144.18C375.89 147.852 378.973 152.509 383.811 152.997C390.785 153.693 395.114 144.628 393.279 137.872C391.453 131.125 386.076 126.01 382.285 120.12C371.899 103.98 374.852 80.5955 388.929 67.5303C397.838 59.2612 409.919 55.2909 419.656 48.007C431.279 39.3101 439.489 25.9662 452.758 20.0655C460.649 16.5628 470.047 16.1549 477.908 19.7371C485.77 23.3194 491.775 31.061 492.504 39.6484C493.801 54.9526 479.774 66.774 466.964 75.2918Z" fill="#9395E7"/>
<path d="M640.273 149.763C639.416 152.669 637.051 154.858 634.647 156.719C620.78 167.445 603.131 171.694 586.531 177.396C569.94 183.088 552.831 191.437 544.351 206.771C540.719 213.348 538.864 220.91 534.304 226.891C522.183 242.802 497.003 241.1 481.38 253.608C474.307 259.26 469.598 267.559 462.095 272.634C445.445 283.868 422.948 275.321 403.015 277.908C371.001 282.067 348.395 311.8 321.538 326.965C310.265 333.323 298.842 333.552 286.112 332.229C279.288 331.522 264.114 331.682 264.633 323.512C265.022 317.482 274.659 313.571 279.508 312.915C287.429 311.86 295.859 313.452 303.202 310.307C299.82 307.511 301.945 301.511 305.885 299.561C309.826 297.61 314.485 298.317 318.865 298.695C333.63 299.989 350.53 295.64 357.703 282.704C363.06 273.042 363.1 259.061 373.106 254.355C385.866 248.354 399.504 264.504 413.461 262.455C422.679 261.091 430.859 251.887 439.699 254.832C445.196 256.673 449.595 263.042 455.202 261.569C459.113 260.534 460.948 256.176 462.415 252.404C471.743 228.413 488.134 207.915 504.266 187.834C511.05 179.396 517.913 170.878 526.413 164.162C535.222 157.196 545.548 152.38 556.083 148.46C576.165 141.006 597.375 136.608 618.775 135.474C623.842 135.195 629.15 135.165 633.699 137.414C638.248 139.663 641.71 144.907 640.273 149.763Z" fill="#9395E7"/>
<path d="M195.497 204.134C188.424 211.03 178.657 214.482 168.97 216.483C137.175 223.05 104.323 216.015 72.6279 209C28.243 199.178 -16.4511 189.248 -58.1624 171.217C-68.2285 166.858 -78.1251 162.032 -88.5803 158.719C-123.099 147.773 -178.288 152.967 -180.952 104.896C-181.57 93.7707 -179.635 82.6358 -180.084 71.511C-180.742 55.1719 -186.498 38.6339 -182.398 22.7924C-178.258 6.82156 -164.67 -5.17898 -149.905 -12.632C-132.217 -21.5578 -110.379 -25.1202 -92.7604 -16.075C-76.04 -7.48754 -66.4827 10.3839 -59.2099 27.6882C-51.9371 44.9824 -45.4824 63.4509 -31.8647 76.3868C-15.673 91.7706 7.55197 96.5171 29.2107 102.02C61.6738 110.269 93.3588 121.643 123.517 136.19C138.831 143.584 153.836 151.833 170.007 157.137C182.528 161.236 197.442 165.018 202.52 177.147C206.341 186.252 202.58 197.238 195.497 204.134Z" fill="#9395E7"/>
<path d="M418.01 -94.6457C417.551 -91.3222 414.898 -88.8047 412.433 -86.526C369.954 -47.2307 336.793 4.17457 284.955 29.9767C274.001 35.4297 261.561 39.6786 249.649 36.8725C238.665 34.2754 229.716 25.9069 224.129 16.1154C218.533 6.33386 215.889 -4.82085 213.764 -15.886C209.684 -37.1208 206.431 -59.4004 206.671 -81.0829C207.08 -118.637 248.302 -110 276.236 -110.537C318.127 -111.333 360.157 -111.462 401.838 -106.676C409.331 -105.82 419.048 -102.089 418.01 -94.6457Z" fill="#9395E7"/>
<path d="M600.038 391.097C589.653 397.296 577.153 398.69 565.081 399.525C492.393 404.61 418.508 395.097 347.008 409.088C352.475 410.471 357.832 412.282 363.01 414.501C364.327 415.068 365.753 415.785 366.242 417.128C367.31 420.074 363.249 422.104 360.137 422.571C325.279 427.895 289.364 426.154 255.185 417.496C253.848 414.859 257.709 412.72 260.642 412.242C269.791 410.73 278.939 409.227 288.087 407.725C261.809 403.565 235.532 399.406 209.254 395.237C198.05 393.466 189.271 390.53 179.764 384.58C170.047 378.52 164.031 378.987 152.189 379.107C139.03 379.236 125.861 378.918 112.722 378.161C107.914 377.893 76.5382 372.261 74.5928 374.738C90.7944 354.081 120.185 350.429 146.403 348.389C168.55 346.677 190.728 344.956 212.945 345.125C227.052 345.225 244.431 348.468 248.611 361.912C249.608 365.126 249.748 368.768 251.933 371.325C254.377 374.171 258.507 374.708 262.248 375.027C367.04 383.992 473.179 377.196 575.965 354.936C583.857 353.235 591.758 351.434 599.799 350.767C602.752 350.518 605.845 350.449 608.518 351.702C612.06 353.354 614.255 357.066 615.193 360.847C618.106 372.569 610.434 384.888 600.038 391.097Z" fill="#9395E7"/>
<path d="M0.778221 376.022C-0.987595 381.455 -6.09546 385.087 -11.2133 387.664C-31.4155 397.834 -56.7455 396.072 -76.7481 385.774C-82.2651 382.928 -87.5226 378.709 -89.4082 372.808C-91.3635 366.658 -89.1787 359.723 -85.0485 354.757C-80.9183 349.782 -75.0921 346.508 -69.1262 343.991C-56.955 338.876 -43.2974 336.528 -30.3979 339.383C-17.5085 342.249 -5.5667 350.797 -0.478752 362.957C1.24716 367.076 2.16494 371.773 0.778221 376.022Z" fill="#9395E7"/>
<path d="M-661.234 341.224C-458.295 398.431 -186.409 453.1 136.576 458.463C384.808 462.583 601.156 436.552 775.364 403.287" fill="#9395E7"/>
<path d="M-661.234 341.224C-458.295 398.431 -186.409 453.1 136.576 458.463C384.808 462.583 601.156 436.552 775.364 403.287" stroke="#231F20" stroke-width="5" stroke-miterlimit="10"/>
<path d="M-662.86 385.455C-459.921 442.662 -188.035 497.331 134.95 502.694C383.183 506.814 599.53 480.783 773.738 447.518" stroke="#0B0D17" stroke-miterlimit="10"/>
<path d="M550 906.146L550 -117.854L-218 -117.854L-218 906.146L550 906.146Z" fill="#D0D6F9" fill-opacity="0.7"/>
</g>
<defs>
<clipPath id="clip0_170_1051">
<rect width="375" height="710" fill="white"/>
</clipPath>
</defs>
</svg>
