<svg width="768" height="1024" viewBox="0 0 768 1024" fill="none" xmlns="http://www.w3.org/2000/svg">
<g clip-path="url(#clip0_169_797)">
<rect width="768" height="1024" fill="#D0D6F9"/>
<path d="M768 1024.15L768 0.145996L6.10352e-05 0.145963L1.62747e-05 1024.15L768 1024.15Z" fill="#D0D6F9"/>
<path d="M-443.324 0C-443.883 152.572 -444.441 305.143 -445 457.715C-255.56 511.398 -4.8096 563.271 292.575 574.686C569.017 585.296 806.997 557.906 991.737 523.381C992.825 348.924 993.912 174.467 995 0H-443.324ZM744.389 282.213C753.199 275.246 763.526 270.429 774.062 266.508C794.146 259.053 815.358 254.654 836.759 253.52C841.828 253.241 847.136 253.211 851.685 255.46C856.235 257.71 859.697 262.955 858.26 267.811C857.402 270.718 855.038 272.907 852.633 274.768C838.765 285.497 821.115 289.747 804.513 295.449C787.92 301.142 770.809 309.492 762.328 324.829C758.697 331.408 756.841 338.972 752.281 344.953C740.159 360.867 714.976 359.165 699.351 371.676C692.277 377.329 687.568 385.629 680.065 390.705C663.413 401.941 640.914 393.392 620.979 395.98C588.962 400.14 566.353 429.878 539.494 445.045C528.22 451.405 516.796 451.634 504.065 450.31C497.24 449.603 482.065 449.763 482.584 441.592C482.973 435.561 492.611 431.649 497.46 430.992C505.382 429.937 513.813 431.53 521.156 428.385C517.774 425.588 519.899 419.587 523.84 417.636C527.781 415.685 532.44 416.392 536.82 416.77C551.587 418.064 568.489 413.715 575.662 400.777C581.02 391.113 581.06 377.13 591.067 372.422C603.828 366.421 617.467 382.574 631.426 380.523C640.645 379.16 648.826 369.954 657.666 372.9C663.164 374.741 667.563 381.111 673.171 379.638C677.082 378.602 678.918 374.243 680.384 370.471C689.713 346.476 706.106 325.974 722.239 305.89C729.024 297.45 735.888 288.931 744.389 282.213ZM670.726 138.091C678.618 134.587 688.017 134.179 695.879 137.762C703.741 141.345 709.748 149.088 710.476 157.677C711.773 172.984 697.745 184.808 684.934 193.327C672.113 201.846 657.586 212.396 657.037 227.753C656.798 234.341 659.272 241.308 656.588 247.329C651.41 258.934 630.797 259.212 629.011 271.782C628.482 275.584 630.039 279.535 629.021 283.228C627.085 290.264 619.133 290.593 613.406 292.583C603.738 295.957 600.087 298.843 595.876 308.408C590.598 320.4 585.889 327.397 571.901 330.462C564.697 332.045 554.201 333.14 556.995 323.545C559.24 315.832 572.739 315.126 577.787 310.378C585.49 303.133 582.696 294.056 579.823 285.019C578.117 279.645 576.82 274.151 575.942 268.578C575.393 265.015 575.263 260.765 578.067 258.496C581.848 255.45 587.495 258.566 590.668 262.228C593.851 265.901 596.934 270.558 601.773 271.046C608.747 271.743 613.077 262.676 611.241 255.918C609.416 249.17 604.038 244.055 600.246 238.163C589.86 222.02 592.813 198.632 606.891 185.564C615.801 177.294 627.884 173.323 637.621 166.037C649.245 157.339 657.457 143.993 670.726 138.091ZM424.615 36.9237C425.024 -0.636962 466.251 8.0018 494.187 7.46436C536.082 6.66816 578.117 6.53878 619.802 11.3259C627.295 12.1818 637.013 15.914 635.975 23.3585C635.516 26.6826 632.862 29.2006 630.398 31.4797C587.914 70.7821 554.75 122.197 502.907 148.003C491.952 153.457 479.511 157.707 467.598 154.9C456.613 152.303 447.663 143.933 442.076 134.14C436.478 124.356 433.834 113.2 431.709 102.132C427.628 80.8938 424.376 58.6102 424.615 36.9237ZM35.5088 140.818C39.6494 124.844 53.2386 112.841 68.005 105.387C85.6949 96.4595 107.535 92.8965 125.155 101.943C141.877 110.532 151.436 128.407 158.709 145.714C165.983 163.012 172.438 181.484 186.057 194.422C202.25 209.808 225.477 214.556 247.138 220.059C279.604 228.31 311.293 239.686 341.454 254.236C356.769 261.631 371.775 269.882 387.948 275.186C400.47 279.287 415.386 283.069 420.465 295.201C424.286 304.307 420.525 315.295 413.441 322.192C406.367 329.089 396.599 332.542 386.911 334.543C355.113 341.111 322.258 334.075 290.56 327.059C246.17 317.235 201.472 307.303 159.757 289.269C149.69 284.91 139.792 280.083 129.336 276.769C94.8142 265.821 39.6195 271.016 36.9555 222.936C36.3369 211.809 38.2726 200.672 37.8236 189.545C37.1651 173.203 31.4081 156.662 35.5088 140.818ZM-270.416 38.6853C-266.884 24.2243 -253.285 13.8638 -238.838 10.1714C-224.391 6.46912 -209.136 8.31032 -194.439 10.8681C-174.205 14.4012 -154.21 19.268 -134.615 25.4186C-114.77 31.6589 -94.3662 39.9194 -81.4556 56.2017C-68.5548 72.4839 -66.4596 98.9476 -82.144 112.592C-89.6869 119.161 -99.9236 121.759 -109.881 122.744C-133.038 125.033 -156.076 119.012 -178.994 117.2C-200.735 115.479 -222.884 103.924 -240.644 91.8316C-249.594 85.7307 -258.114 78.6445 -264.011 69.5778C-269.918 60.5111 -272.981 49.1852 -270.416 38.6853ZM-393.118 225.792C-395.921 207.838 -403.015 190.899 -409.022 173.75C-418.75 145.983 -428.148 100.52 -398.605 80.008C-374.989 63.5964 -334.232 78.2564 -348.888 111.01C-352.929 120.047 -359.444 127.76 -364.004 136.548C-375.807 159.29 -372.754 188.878 -356.561 208.743C-349.856 216.954 -341.196 223.553 -335.409 232.44C-329.622 241.318 -327.447 253.968 -334.321 262.039C-339.33 267.921 -347.661 269.722 -355.393 270.061C-363.984 270.439 -373.163 269.255 -379.828 263.83C-390.534 255.122 -391.003 239.407 -393.118 225.792ZM66.7978 494.31C58.6961 503.297 44.8775 503.506 32.765 502.909C-73.2642 497.664 -186.347 487.015 -287.198 452.838C-314.686 443.523 -339.35 433.381 -361.14 413.466C-367.496 407.654 -373.582 401.045 -376.166 392.844C-378.75 384.644 -376.905 374.512 -369.841 369.586C-363.814 365.376 -355.733 365.853 -348.509 367.247C-329.702 370.879 -312.291 379.478 -295.031 387.749C-260.499 404.29 -225.359 419.905 -188.572 430.515C-126.014 448.559 -59.9045 451.713 5.03802 447.095C16.2326 446.289 27.5569 445.274 38.6217 447.115C49.6966 448.967 60.7016 454.062 67.1669 463.219C73.6322 472.365 74.3007 485.99 66.7978 494.31ZM218.703 494.111C216.937 499.545 211.828 503.178 206.71 505.755C186.506 515.927 161.173 514.165 141.169 503.864C135.651 501.018 130.393 496.798 128.508 490.896C126.552 484.746 128.737 477.809 132.868 472.843C136.998 467.866 142.825 464.592 148.792 462.074C160.964 456.958 174.623 454.61 187.524 457.466C200.414 460.332 212.357 468.881 217.446 481.043C219.172 485.164 220.09 489.861 218.703 494.111ZM194.687 430.903C157.751 425.538 122.052 413.924 86.5629 402.359L-64.5938 353.094C-92.3009 344.057 -120.148 334.971 -146.119 321.754C-167.341 310.955 -184.651 297.42 -202.461 282.053C-222.645 264.647 -246.73 252.903 -266.086 234.122C-287.667 213.172 -304.748 186.231 -308.221 156.383C-308.859 150.85 -308.769 144.55 -304.818 140.619C-299.041 134.876 -289.244 137.812 -282.17 141.853C-255.76 156.951 -236.164 182.389 -208.886 195.875C-195.397 202.543 -180.531 206.006 -166.842 212.257C-153.143 218.497 -140.003 228.479 -135.443 242.791C-131.841 254.057 -133.926 266.836 -128.668 277.426C-121.914 291.011 -102.617 296.485 -89.7168 288.463C-76.8161 280.441 -73.2242 260.745 -82.4832 248.723C-86.983 242.861 -94.3962 236.581 -91.4628 229.793C-89.2179 224.618 -82.2837 223.622 -76.6664 224.269C-55.6941 226.698 -38.3235 240.82 -20.6836 252.385C9.6376 272.25 44.0993 285.806 79.8481 291.916C95.1933 294.544 111.057 295.897 125.145 302.486C140.7 309.761 153.142 323.386 158.949 339.519C165.514 357.752 165.025 380.533 180.43 392.327C191.495 400.797 207.289 400.1 220.379 395.313C233.469 390.526 244.963 382.245 257.515 376.184C287.806 361.574 323.265 360.549 356.3 366.928C389.345 373.318 420.564 386.654 451.494 399.891C457.979 402.668 465.043 406.002 467.817 412.471C471.449 420.95 465.492 431.072 457.281 435.312C449.07 439.552 439.372 439.452 430.133 439.253C378.37 438.138 326.608 437.024 274.845 435.909C248.066 435.332 221.197 434.754 194.687 430.903ZM818.022 509.189C807.635 515.389 795.134 516.783 783.061 517.619C710.366 522.705 636.474 513.19 564.967 527.183C570.434 528.567 575.792 530.378 580.97 532.597C582.287 533.165 583.714 533.881 584.203 535.225C585.271 538.171 581.21 540.201 578.097 540.669C543.236 545.993 507.317 544.252 473.135 535.593C471.798 532.956 475.659 530.816 478.593 530.338C487.742 528.825 496.891 527.323 506.04 525.82C479.76 521.66 453.48 517.499 427.199 513.329C415.995 511.558 407.215 508.622 397.706 502.67C387.988 496.609 381.972 497.077 370.129 497.196C356.969 497.326 343.799 497.007 330.659 496.251C325.849 495.982 294.471 490.349 292.525 492.827C308.728 472.166 338.122 468.513 364.342 466.473C386.492 464.761 408.671 463.039 430.891 463.209C444.999 463.308 462.38 466.553 466.56 479.998C467.558 483.213 467.697 486.856 469.882 489.413C472.327 492.26 476.458 492.797 480.199 493.116C585.001 502.083 691.15 495.285 793.947 473.022C801.839 471.32 809.741 469.518 817.782 468.852C820.736 468.603 823.829 468.533 826.503 469.787C830.045 471.439 832.24 475.152 833.177 478.933C836.091 490.658 828.418 502.979 818.022 509.189ZM907.748 400.169C903.747 403.842 898.04 404.837 892.672 405.663C877.277 408.052 861.892 410.431 846.507 412.819C833.088 414.889 817.254 419.955 803.674 418.522C795.593 417.676 788.778 412.889 780.657 411.874C767.187 410.182 753.678 414.531 740.189 411.734C739.101 411.505 737.984 411.207 737.205 410.421C734.242 407.455 739.161 403.175 743.182 401.951C794.096 386.435 846.198 374.811 898.878 367.207C903.218 366.58 908.417 366.311 911.13 369.735C912.677 371.695 912.926 374.353 913.106 376.851C913.705 385.091 913.854 394.576 907.748 400.169ZM942.878 150.472C932.352 154.95 920.649 155.786 909.205 155.766C894.518 155.736 879.832 154.403 865.384 151.785C855.317 149.964 844.961 147.317 837.129 140.758C825.774 131.233 822.043 115.658 818.97 101.187C817.992 96.5889 817.024 91.7221 818.521 87.2733C819.758 83.6108 822.522 80.6848 825.235 77.928C845.669 57.1372 877.148 20.4225 910.143 24.9409C937.062 28.6333 967.063 57.4358 973.738 82.9739C980.543 109.049 967.722 139.892 942.878 150.472Z" fill="#A6A9EE"/>
<path d="M457.333 435.233C449.123 439.472 439.426 439.373 430.187 439.174C378.43 438.059 326.673 436.945 274.915 435.83C248.139 435.253 221.272 434.676 194.765 430.825C157.832 425.462 122.137 413.849 86.6509 402.286L-64.4911 353.031C-92.1955 343.995 -120.04 334.91 -146.008 321.696C-167.228 310.899 -184.537 297.366 -202.345 282.003C-222.527 264.599 -246.61 252.857 -265.964 234.08C-287.543 213.134 -304.622 186.197 -308.094 156.355C-308.733 150.823 -308.643 144.524 -304.692 140.593C-298.916 134.852 -289.119 137.787 -282.046 141.827C-255.638 156.922 -236.045 182.356 -208.769 195.84C-195.281 202.507 -180.417 205.969 -166.729 212.218C-153.031 218.457 -139.893 228.438 -135.333 242.747C-131.732 254.011 -133.817 266.788 -128.559 277.376C-121.805 290.958 -102.511 296.431 -89.6116 288.411C-76.7122 280.391 -73.1207 260.698 -82.3788 248.678C-86.8781 242.817 -94.2905 236.538 -91.3575 229.752C-89.1128 224.577 -82.1792 223.582 -76.5625 224.229C-55.5922 226.657 -38.2233 240.777 -20.5851 252.34C9.73312 272.201 44.1915 285.754 79.9369 291.864C95.2805 294.491 111.143 295.844 125.23 302.431C140.783 309.705 153.223 323.328 159.03 339.458C165.594 357.688 165.105 380.465 180.509 392.256C191.572 400.724 207.365 400.028 220.454 395.241C233.543 390.455 245.036 382.176 257.586 376.116C287.874 361.509 323.331 360.484 356.362 366.862C389.404 373.25 420.62 386.584 451.547 399.819C458.031 402.595 465.095 405.928 467.868 412.396C471.5 420.874 465.544 430.994 457.333 435.233Z" fill="#9395E7"/>
<path d="M684.964 193.292C672.144 201.81 657.619 212.358 657.07 227.711C656.831 234.299 659.305 241.264 656.621 247.284C651.443 258.887 630.832 259.166 629.047 271.733C628.518 275.534 630.074 279.485 629.056 283.177C627.121 290.212 619.17 290.54 613.443 292.53C603.776 295.904 600.125 298.789 595.915 308.352C590.637 320.342 585.929 327.338 571.942 330.403C564.739 331.985 554.244 333.079 557.037 323.487C559.282 315.775 572.78 315.069 577.828 310.322C585.53 303.078 582.736 294.003 579.863 284.968C578.157 279.594 576.86 274.102 575.982 268.529C575.434 264.967 575.304 260.718 578.107 258.449C581.888 255.404 587.535 258.519 590.707 262.181C593.89 265.852 596.973 270.509 601.811 270.997C608.785 271.694 613.114 262.628 611.279 255.872C609.453 249.125 604.076 244.011 600.285 238.12C589.899 221.98 592.852 198.596 606.929 185.531C615.838 177.261 627.919 173.291 637.656 166.007C649.279 157.31 657.489 143.966 670.758 138.066C678.649 134.563 688.047 134.155 695.908 137.737C703.77 141.32 709.775 149.061 710.504 157.649C711.801 172.953 697.774 184.774 684.964 193.292Z" fill="#9395E7"/>
<path d="M858.273 267.763C857.416 270.669 855.051 272.858 852.647 274.719C838.78 285.445 821.131 289.694 804.531 295.396C787.94 301.088 770.831 309.437 762.351 324.771C758.719 331.348 756.864 338.91 752.304 344.891C740.183 360.802 715.003 359.1 699.38 371.608C692.307 377.26 687.598 385.559 680.095 390.634C663.445 401.868 640.948 393.321 621.015 395.908C589.001 400.067 566.395 429.8 539.538 444.965C528.265 451.323 516.842 451.552 504.112 450.229C497.288 449.522 482.114 449.682 482.633 441.512C483.022 435.482 492.659 431.571 497.508 430.915C505.429 429.86 513.859 431.452 521.202 428.307C517.82 425.511 519.945 419.511 523.885 417.561C527.826 415.61 532.485 416.317 536.865 416.695C551.63 417.989 568.53 413.64 575.703 400.704C581.06 391.042 581.1 377.061 591.106 372.355C603.866 366.354 617.504 382.504 631.461 380.455C640.679 379.091 648.859 369.887 657.699 372.832C663.196 374.673 667.595 381.042 673.202 379.569C677.113 378.534 678.948 374.176 680.415 370.404C689.743 346.413 706.134 325.915 722.266 305.834C729.05 297.396 735.913 288.878 744.413 282.162C753.222 275.196 763.548 270.38 774.083 266.46C794.165 259.006 815.375 254.608 836.775 253.474C841.842 253.195 847.15 253.165 851.699 255.414C856.248 257.663 859.71 262.907 858.273 267.763Z" fill="#9395E7"/>
<path d="M413.497 322.134C406.424 329.03 396.657 332.482 386.97 334.483C355.175 341.05 322.323 334.015 290.628 327C246.243 317.178 201.549 307.248 159.838 289.217C149.771 284.858 139.875 280.032 129.42 276.719C94.9014 265.773 39.7121 270.967 37.0484 222.896C36.4299 211.771 38.3653 200.636 37.9163 189.511C37.2579 173.172 31.5015 156.634 35.6018 140.792C39.742 124.822 53.3298 112.821 68.0949 105.368C85.783 96.4422 107.621 92.8798 125.24 101.925C141.96 110.512 151.517 128.384 158.79 145.688C166.063 162.982 172.518 181.451 186.135 194.387C202.327 209.771 225.552 214.517 247.211 220.02C279.674 228.269 311.359 239.643 341.517 254.19C356.831 261.584 371.836 269.833 388.007 275.137C400.528 279.236 415.442 283.018 420.52 295.147C424.341 304.252 420.58 315.238 413.497 322.134Z" fill="#9395E7"/>
<path d="M907.756 400.097C903.756 403.769 898.049 404.764 892.682 405.59C877.288 407.978 861.905 410.356 846.521 412.745C833.103 414.814 817.271 419.879 803.693 418.446C795.612 417.6 788.798 412.814 780.677 411.799C767.209 410.108 753.701 414.456 740.213 411.66C739.126 411.431 738.008 411.133 737.23 410.346C734.267 407.381 739.186 403.102 743.206 401.878C794.115 386.365 846.212 374.743 898.887 367.141C903.227 366.514 908.425 366.245 911.138 369.668C912.685 371.628 912.934 374.285 913.114 376.783C913.712 385.022 913.862 394.505 907.756 400.097Z" fill="#9395E7"/>
<path d="M636.01 23.3543C635.551 26.6778 632.897 29.1953 630.433 31.474C587.953 70.7693 554.792 122.175 502.955 147.977C492.001 153.43 479.56 157.679 467.648 154.873C456.664 152.275 447.716 143.907 442.129 134.115C436.532 124.334 433.888 113.179 431.763 102.114C427.683 80.8792 424.431 58.5996 424.67 36.9171C425.079 -0.636835 466.302 8.00037 494.235 7.46303C536.126 6.66697 578.157 6.53762 619.838 11.3239C627.33 12.1797 637.047 15.9112 636.01 23.3543Z" fill="#9395E7"/>
<path d="M66.8877 494.221C58.7869 503.206 44.9696 503.415 32.8583 502.818C-73.1606 497.574 -186.233 486.927 -287.074 452.756C-314.559 443.442 -339.221 433.303 -361.009 413.391C-367.364 407.58 -373.45 400.973 -376.033 392.774C-378.617 384.574 -376.772 374.444 -369.708 369.519C-363.683 365.31 -355.602 365.787 -348.379 367.18C-329.573 370.812 -312.165 379.41 -294.906 387.679C-260.377 404.217 -225.24 419.83 -188.458 430.437C-125.906 448.478 -59.8022 451.632 5.134 447.015C16.3275 446.209 27.6507 445.194 38.7144 447.035C49.7882 448.886 60.7921 453.98 67.2568 463.135C73.7215 472.28 74.39 485.902 66.8877 494.221Z" fill="#9395E7"/>
<path d="M818.039 509.097C807.654 515.296 795.153 516.69 783.082 517.525C710.394 522.61 636.509 513.097 565.008 527.088C570.475 528.471 575.832 530.282 581.01 532.501C582.327 533.068 583.754 533.785 584.243 535.128C585.31 538.074 581.25 540.104 578.137 540.571C543.28 545.895 507.365 544.154 473.186 535.496C471.849 532.859 475.71 530.72 478.643 530.242C487.791 528.73 496.939 527.227 506.088 525.725C479.81 521.565 453.532 517.406 427.254 513.237C416.051 511.466 407.272 508.53 397.764 502.58C388.047 496.52 382.031 496.987 370.189 497.107C357.031 497.236 343.862 496.918 330.723 496.161C325.914 495.893 294.539 490.261 292.593 492.738C308.795 472.081 338.185 468.429 364.403 466.389C386.551 464.677 408.728 462.956 430.946 463.125C445.052 463.225 462.431 466.468 466.611 479.912C467.609 483.126 467.748 486.768 469.933 489.325C472.377 492.171 476.508 492.708 480.249 493.027C585.041 501.992 691.179 495.196 793.966 472.936C801.857 471.235 809.759 469.434 817.8 468.767C820.753 468.518 823.845 468.449 826.519 469.702C830.06 471.354 832.255 475.066 833.193 478.847C836.106 490.569 828.434 502.888 818.039 509.097Z" fill="#9395E7"/>
<path d="M218.778 494.022C217.012 499.455 211.904 503.087 206.786 505.664C186.584 515.834 161.254 514.072 141.251 503.774C135.734 500.928 130.477 496.709 128.591 490.808C126.636 484.658 128.821 477.723 132.951 472.757C137.081 467.782 142.907 464.508 148.873 461.991C161.045 456.876 174.702 454.528 187.602 457.383C200.491 460.249 212.433 468.797 217.521 480.957C219.247 485.076 220.164 489.773 218.778 494.022Z" fill="#9395E7"/>
<path d="M-443.234 459.224C-240.295 516.431 31.5912 571.1 354.576 576.463C602.808 580.583 819.156 554.552 993.364 521.287" fill="#9395E7"/>
<path d="M-443.234 459.224C-240.295 516.431 31.5911 571.1 354.576 576.463C602.808 580.583 819.156 554.552 993.364 521.287" stroke="#231F20" stroke-width="5" stroke-miterlimit="10"/>
<path d="M-444.86 503.455C-241.921 560.662 29.9652 615.331 352.95 620.694C601.183 624.814 817.53 598.783 991.738 565.518" stroke="#0B0D17" stroke-miterlimit="10"/>
<path d="M768 1024.15L768 0.145996L6.10352e-05 0.145963L1.62747e-05 1024.15L768 1024.15Z" fill="#D0D6F9" fill-opacity="0.7"/>
</g>
<defs>
<clipPath id="clip0_169_797">
<rect width="768" height="1024" fill="white"/>
</clipPath>
</defs>
</svg>
