<svg width="1440" height="900" viewBox="0 0 1440 900" fill="none" xmlns="http://www.w3.org/2000/svg">
<path d="M1440 0.0100098H0V900H1440V0.0100098Z" fill="#D0D6F9"/>
<path d="M1250.59 588.433C1218.65 620.383 1180.34 654.943 1135.13 689.462C1088.02 725.422 1042.79 754.181 1002.14 777.091" stroke="#231F20" stroke-miterlimit="10" stroke-linecap="round"/>
<path d="M843.37 781.211C881.89 764.741 923.95 744.452 968.11 719.352C1015.15 692.622 1056.35 665.133 1091.82 638.943" stroke="#231F20" stroke-miterlimit="10" stroke-linecap="round"/>
<path d="M1002.13 613.173C1033.26 592.164 1068.27 565.414 1104.19 531.734C1144.21 494.205 1175.71 457.115 1200.07 424.515" stroke="#231F20" stroke-miterlimit="10" stroke-linecap="round"/>
<path d="M1070.18 527.614C1098.89 502.304 1130.25 471.585 1161.93 434.835C1194.17 397.435 1220.29 361.266 1241.31 328.646" stroke="#231F20" stroke-miterlimit="10" stroke-linecap="round"/>
<path d="M1142.34 415.235C1165.59 388.296 1190.91 355.416 1215.54 316.267C1240.28 276.947 1259.02 239.727 1273.27 206.988" stroke="#231F20" stroke-miterlimit="10" stroke-linecap="round"/>
<path d="M1288.73 210.088C1303.29 179.798 1318.16 143.948 1331 102.869C1342.68 65.4793 1350.48 30.7797 1355.74 0" stroke="#231F20" stroke-miterlimit="10" stroke-linecap="round"/>
<path d="M1254.71 404.925C1273.17 380.816 1292.1 353.376 1310.38 322.456C1347.55 259.587 1371.69 199.808 1387.7 149.258" stroke="#231F20" stroke-miterlimit="10" stroke-linecap="round"/>
<path d="M1400.07 465.756C1407.05 457.236 1414.44 447.286 1421.72 435.856C1429.17 424.156 1435.17 413.006 1440 402.866" stroke="#231F20" stroke-miterlimit="10" stroke-linecap="round"/>
<path d="M1370.18 878.121C1381.5 869.091 1393.25 859.151 1405.23 848.221C1417.92 836.651 1429.49 825.231 1440 814.201" stroke="#231F20" stroke-miterlimit="10" stroke-linecap="round"/>
<path d="M596.98 664.723C630.1 660.333 667.67 653.293 708.32 642.043C754.36 629.303 794.39 613.903 827.91 598.743" stroke="#231F20" stroke-miterlimit="10" stroke-linecap="round"/>
<path d="M480.48 685.343C512.5 685.283 548.13 683.583 586.67 679.153C622.45 675.043 655.22 669.213 684.61 662.663" stroke="#231F20" stroke-miterlimit="10" stroke-linecap="round"/>
<path d="M414.51 605.963C446.65 608.443 482.61 609.533 521.73 608.023C566.04 606.323 606.16 601.603 641.32 595.653" stroke="#231F20" stroke-miterlimit="10" stroke-linecap="round"/>
<path d="M784.61 477.095C806.46 465.985 829.65 453.025 853.68 437.915C884.88 418.295 912.33 398.296 936.15 379.156" stroke="#231F20" stroke-miterlimit="10" stroke-linecap="round"/>
<path d="M809.35 448.225C830.11 436.235 851.89 422.565 874.3 406.985C908.12 383.466 937.59 359.606 962.96 336.886" stroke="#231F20" stroke-miterlimit="10" stroke-linecap="round"/>
<path d="M312.44 481.215C337.91 488.825 367.64 495.935 401.1 500.805C442.28 506.795 479.28 507.965 510.38 506.995" stroke="#231F20" stroke-miterlimit="10" stroke-linecap="round"/>
<path d="M568.11 352.357C588.49 349.917 611.83 345.807 637.18 338.957C665.05 331.417 689.21 322.217 709.34 313.187" stroke="#231F20" stroke-miterlimit="10" stroke-linecap="round"/>
<path d="M965.02 151.328C973.13 136.749 981.25 120.249 988.73 101.849C1002.83 67.1794 1010.86 35.0497 1015.53 8.04004" stroke="#231F20" stroke-miterlimit="10" stroke-linecap="round"/>
<path d="M880.48 247.197C892.91 233.878 906.37 217.788 919.66 198.748C934.05 178.108 945.14 158.418 953.68 141.019" stroke="#231F20" stroke-miterlimit="10" stroke-linecap="round"/>
<path d="M114.51 793.581C153.78 805.731 197.54 817.181 245.44 826.571C308.34 838.901 366.31 845.311 417.6 848.221" stroke="#231F20" stroke-miterlimit="10" stroke-linecap="round"/>
<path d="M0 782.241C34.83 795.711 73.05 808.731 114.51 820.381C183.93 839.891 248.31 851.601 305.23 858.521" stroke="#231F20" stroke-miterlimit="10" stroke-linecap="round"/>
<path d="M58.84 270.907C79.62 291.727 104.91 314.396 135.13 336.886C169.41 362.396 202.23 381.856 231.01 396.676" stroke="#231F20" stroke-miterlimit="10" stroke-linecap="round"/>
<path d="M612.44 286.377C629.94 281.647 649.86 275.057 671.2 265.757C694.65 255.537 714.6 244.327 730.99 233.797" stroke="#231F20" stroke-miterlimit="10" stroke-linecap="round"/>
<path d="M634.09 244.108C649.04 238.508 666.27 230.878 684.61 220.398C702.61 210.108 717.7 199.348 729.97 189.468" stroke="#231F20" stroke-miterlimit="10" stroke-linecap="round"/>
<path d="M760.9 95.6595C765.66 89.5595 770.54 82.6995 775.33 75.0395C783.38 62.1695 789.38 49.8795 793.89 38.9595" stroke="#231F20" stroke-miterlimit="10" stroke-linecap="round"/>
<path d="M643.37 189.468C650.88 187.288 659.71 184.058 669.14 179.158C683.14 171.898 693.69 163.448 701.1 156.478" stroke="#231F20" stroke-miterlimit="10" stroke-linecap="round"/>
<path d="M522.75 211.118C532.47 210.738 543.19 209.818 554.71 208.028C571.17 205.478 585.69 201.708 598.01 197.718" stroke="#231F20" stroke-miterlimit="10" stroke-linecap="round"/>
<path d="M541.31 221.428C550.91 220.778 561.65 219.528 573.27 217.308C583.92 215.268 593.58 212.748 602.14 210.088" stroke="#231F20" stroke-miterlimit="10" stroke-linecap="round"/>
<path d="M462.96 101.839C469.45 104.209 477.42 106.539 486.67 108.029C499.66 110.119 510.99 109.899 519.66 109.059" stroke="#231F20" stroke-miterlimit="10" stroke-linecap="round"/>
<path d="M632.03 26.58C635.62 24.47 641.54 20.35 646.46 13.18C649.88 8.21 651.67 3.44 652.65 0" stroke="#231F20" stroke-miterlimit="10" stroke-linecap="round"/>
<path d="M246.46 250.297C260.7 261.497 278.53 273.817 300.07 285.347C323.61 297.957 345.55 306.397 363.99 312.147" stroke="#231F20" stroke-miterlimit="10" stroke-linecap="round"/>
<path d="M303.17 303.896C320.24 311.376 339.17 318.766 359.87 325.546C386.92 334.406 412.26 340.666 435.13 345.136" stroke="#231F20" stroke-miterlimit="10" stroke-linecap="round"/>
<path d="M221.72 280.187C232.94 289.337 245.96 298.847 260.9 308.027C289.46 325.577 316.64 336.787 339.25 344.107" stroke="#231F20" stroke-miterlimit="10" stroke-linecap="round"/>
<path d="M165.02 234.827C173.27 242.047 181.51 249.257 189.76 256.477" stroke="#231F20" stroke-miterlimit="10" stroke-linecap="round"/>
<path d="M1161.93 166.788C1172.86 145.598 1184.27 119.729 1193.89 89.469C1204.54 55.9694 1210.32 25.4797 1213.48 0.0100098" stroke="#231F20" stroke-miterlimit="10" stroke-linecap="round"/>
<path d="M61.9301 161.638C74.2401 179.218 88.8901 198.058 106.26 217.308C133.33 247.297 160.44 271.007 184.61 289.467" stroke="#231F20" stroke-miterlimit="10" stroke-linecap="round"/>
<path d="M219.66 33.7996C226.25 45.8696 234.97 59.6896 246.46 74.0096C261.07 92.2196 276.01 106.07 288.73 116.28" stroke="#231F20" stroke-miterlimit="10" stroke-linecap="round"/>
<path d="M375.33 115.239C384.9 122.109 398.33 130.309 415.54 136.889C431.37 142.939 445.67 145.799 456.78 147.199" stroke="#231F20" stroke-miterlimit="10" stroke-linecap="round"/>
<path opacity="0.5" d="M1440 0.0100098H0V900H1440V0.0100098Z" fill="#D0D6F9"/>
</svg>
