<svg width="375" height="710" viewBox="0 0 375 710" fill="none" xmlns="http://www.w3.org/2000/svg">
<g clip-path="url(#clip0_170_1099)">
<rect width="375" height="710" fill="#D0D6F9"/>
<path d="M539.438 773L539.438 0L-40.5615 -2.53526e-05L-40.5615 773L539.438 773Z" fill="#D0D6F9"/>
<path d="M315.586 501.717C340.584 498.403 368.941 493.09 399.623 484.599C434.372 474.983 464.586 463.359 489.886 451.917" stroke="#231F20" stroke-miterlimit="10" stroke-linecap="round"/>
<path d="M227.654 517.28C251.822 517.234 278.715 515.951 307.804 512.608C334.81 509.505 359.544 505.105 381.727 500.161" stroke="#231F20" stroke-miterlimit="10" stroke-linecap="round"/>
<path d="M177.861 457.366C202.12 459.238 229.261 460.061 258.788 458.921C292.232 457.638 322.514 454.075 349.052 449.584" stroke="#231F20" stroke-miterlimit="10" stroke-linecap="round"/>
<path d="M100.822 363.209C120.046 368.953 142.486 374.319 167.741 377.995C198.822 382.516 226.749 383.399 250.222 382.667" stroke="#231F20" stroke-miterlimit="10" stroke-linecap="round"/>
<path d="M293.796 265.95C309.178 264.108 326.795 261.006 345.928 255.836C366.964 250.145 385.199 243.201 400.393 236.385" stroke="#231F20" stroke-miterlimit="10" stroke-linecap="round"/>
<path d="M-48.5713 598.975C-18.9313 608.146 14.0977 616.788 50.2514 623.875C97.7268 633.182 141.481 638.02 180.194 640.216" stroke="#231F20" stroke-miterlimit="10" stroke-linecap="round"/>
<path d="M-135 590.416C-108.711 600.583 -79.8637 610.41 -48.5707 619.203C3.8258 633.929 52.4182 642.767 95.38 647.99" stroke="#231F20" stroke-miterlimit="10" stroke-linecap="round"/>
<path d="M-90.5889 204.474C-74.9046 220.188 -55.8164 237.299 -33.0071 254.273C-7.13338 273.527 17.6384 288.215 39.3608 299.401" stroke="#231F20" stroke-miterlimit="10" stroke-linecap="round"/>
<path d="M327.255 216.15C340.463 212.58 355.499 207.606 371.605 200.587C389.305 192.873 404.363 184.412 416.733 176.464" stroke="#231F20" stroke-miterlimit="10" stroke-linecap="round"/>
<path d="M343.596 184.247C354.88 180.02 367.884 174.261 381.727 166.351C395.313 158.584 406.702 150.463 415.964 143.006" stroke="#231F20" stroke-miterlimit="10" stroke-linecap="round"/>
<path d="M350.6 143.006C356.268 141.361 362.933 138.923 370.05 135.224C380.617 129.745 388.58 123.367 394.173 118.106" stroke="#231F20" stroke-miterlimit="10" stroke-linecap="round"/>
<path d="M259.559 159.346C266.895 159.06 274.986 158.365 283.681 157.014C296.105 155.089 307.064 152.244 316.363 149.232" stroke="#231F20" stroke-miterlimit="10" stroke-linecap="round"/>
<path d="M273.567 167.128C280.813 166.637 288.92 165.694 297.69 164.018C305.728 162.479 313.019 160.577 319.48 158.569" stroke="#231F20" stroke-miterlimit="10" stroke-linecap="round"/>
<path d="M214.431 76.8652C219.329 78.6541 225.345 80.4127 232.326 81.5373C242.131 83.1148 250.683 82.9487 257.226 82.3147" stroke="#231F20" stroke-miterlimit="10" stroke-linecap="round"/>
<path d="M342.041 20.0619C344.751 18.4693 349.219 15.3597 352.932 9.94794C355.514 6.1967 356.865 2.59643 357.604 0" stroke="#231F20" stroke-miterlimit="10" stroke-linecap="round"/>
<path d="M51.0215 188.918C61.7695 197.372 75.2271 206.671 91.485 215.373C109.252 224.891 125.812 231.261 139.73 235.601" stroke="#231F20" stroke-miterlimit="10" stroke-linecap="round"/>
<path d="M93.8252 229.374C106.709 235.019 120.997 240.597 136.621 245.714C157.038 252.402 176.164 257.127 193.425 260.5" stroke="#231F20" stroke-miterlimit="10" stroke-linecap="round"/>
<path d="M32.3486 211.478C40.8172 218.384 50.6444 225.562 61.9207 232.491C83.4771 245.737 103.992 254.198 121.057 259.723" stroke="#231F20" stroke-miterlimit="10" stroke-linecap="round"/>
<path d="M-10.4473 177.242C-4.22037 182.691 1.99898 188.133 8.22588 193.583" stroke="#231F20" stroke-miterlimit="10" stroke-linecap="round"/>
<path d="M-88.2568 122C-78.9656 135.269 -67.9081 149.489 -54.7976 164.018C-34.3659 186.654 -13.9039 204.549 4.33898 218.482" stroke="#231F20" stroke-miterlimit="10" stroke-linecap="round"/>
<path d="M30.7939 25.5112C35.7679 34.6214 42.3496 45.0524 51.0219 55.8607C62.0492 69.6052 73.3255 80.0588 82.9263 87.7651" stroke="#231F20" stroke-miterlimit="10" stroke-linecap="round"/>
<path d="M148.29 86.9795C155.513 92.1648 165.65 98.354 178.64 103.32C190.588 107.887 201.381 110.045 209.766 111.102" stroke="#231F20" stroke-miterlimit="10" stroke-linecap="round"/>
<path d="M539.438 773L539.438 0L-40.5615 -2.53526e-05L-40.5615 773L539.438 773Z" fill="#D0D6F9" fill-opacity="0.5"/>
</g>
<defs>
<clipPath id="clip0_170_1099">
<rect width="375" height="710" fill="white"/>
</clipPath>
</defs>
</svg>
