<svg width="768" height="1024" viewBox="0 0 768 1024" fill="none" xmlns="http://www.w3.org/2000/svg">
<g clip-path="url(#clip0_169_857)">
<rect width="768" height="1024" fill="#D0D6F9"/>
<path d="M768 1024.15L768 0.145996L6.10352e-05 0.145963L1.62747e-05 1024.15L768 1024.15Z" fill="#D0D6F9"/>
<path d="M718.37 781.211C756.89 764.741 798.95 744.452 843.11 719.352C890.15 692.622 931.35 665.133 966.82 638.943" stroke="#231F20" stroke-miterlimit="10" stroke-linecap="round"/>
<path d="M471.98 664.723C505.1 660.333 542.67 653.293 583.32 642.043C629.36 629.303 669.39 613.903 702.91 598.743" stroke="#231F20" stroke-miterlimit="10" stroke-linecap="round"/>
<path d="M355.48 685.343C387.5 685.283 423.13 683.583 461.67 679.153C497.45 675.043 530.22 669.213 559.61 662.663" stroke="#231F20" stroke-miterlimit="10" stroke-linecap="round"/>
<path d="M289.51 605.963C321.65 608.443 357.61 609.533 396.73 608.023C441.04 606.323 481.16 601.603 516.32 595.653" stroke="#231F20" stroke-miterlimit="10" stroke-linecap="round"/>
<path d="M659.61 477.095C681.46 465.985 704.65 453.025 728.68 437.915C759.88 418.295 787.33 398.296 811.15 379.156" stroke="#231F20" stroke-miterlimit="10" stroke-linecap="round"/>
<path d="M684.35 448.225C705.11 436.235 726.89 422.565 749.3 406.985C783.12 383.466 812.59 359.606 837.96 336.886" stroke="#231F20" stroke-miterlimit="10" stroke-linecap="round"/>
<path d="M187.44 481.215C212.91 488.825 242.64 495.935 276.1 500.805C317.28 506.795 354.28 507.965 385.38 506.995" stroke="#231F20" stroke-miterlimit="10" stroke-linecap="round"/>
<path d="M443.11 352.357C463.49 349.917 486.83 345.807 512.18 338.957C540.05 331.417 564.21 322.217 584.34 313.187" stroke="#231F20" stroke-miterlimit="10" stroke-linecap="round"/>
<path d="M755.48 247.197C767.91 233.878 781.37 217.788 794.66 198.748C809.05 178.108 820.14 158.418 828.68 141.019" stroke="#231F20" stroke-miterlimit="10" stroke-linecap="round"/>
<path d="M-10.4902 793.581C28.7798 805.731 72.5398 817.181 120.44 826.571C183.34 838.901 241.31 845.311 292.6 848.221" stroke="#231F20" stroke-miterlimit="10" stroke-linecap="round"/>
<path d="M-125 782.241C-90.17 795.711 -51.95 808.731 -10.49 820.381C58.93 839.891 123.31 851.601 180.23 858.521" stroke="#231F20" stroke-miterlimit="10" stroke-linecap="round"/>
<path d="M-66.1602 270.907C-45.3802 291.727 -20.0902 314.396 10.1298 336.886C44.4098 362.396 77.2298 381.856 106.01 396.676" stroke="#231F20" stroke-miterlimit="10" stroke-linecap="round"/>
<path d="M487.44 286.377C504.94 281.647 524.86 275.057 546.2 265.757C569.65 255.537 589.6 244.327 605.99 233.797" stroke="#231F20" stroke-miterlimit="10" stroke-linecap="round"/>
<path d="M509.09 244.108C524.04 238.508 541.27 230.878 559.61 220.398C577.61 210.108 592.7 199.348 604.97 189.468" stroke="#231F20" stroke-miterlimit="10" stroke-linecap="round"/>
<path d="M635.9 95.6595C640.66 89.5595 645.54 82.6995 650.33 75.0395C658.38 62.1695 664.38 49.8795 668.89 38.9595" stroke="#231F20" stroke-miterlimit="10" stroke-linecap="round"/>
<path d="M518.37 189.468C525.88 187.288 534.71 184.058 544.14 179.158C558.14 171.898 568.69 163.448 576.1 156.478" stroke="#231F20" stroke-miterlimit="10" stroke-linecap="round"/>
<path d="M397.75 211.118C407.47 210.738 418.19 209.818 429.71 208.028C446.17 205.478 460.69 201.708 473.01 197.718" stroke="#231F20" stroke-miterlimit="10" stroke-linecap="round"/>
<path d="M416.31 221.428C425.91 220.778 436.65 219.528 448.27 217.308C458.92 215.268 468.58 212.748 477.14 210.088" stroke="#231F20" stroke-miterlimit="10" stroke-linecap="round"/>
<path d="M337.96 101.839C344.45 104.209 352.42 106.539 361.67 108.029C374.66 110.119 385.99 109.899 394.66 109.059" stroke="#231F20" stroke-miterlimit="10" stroke-linecap="round"/>
<path d="M507.03 26.58C510.62 24.47 516.54 20.35 521.46 13.18C524.88 8.21 526.67 3.44 527.65 0" stroke="#231F20" stroke-miterlimit="10" stroke-linecap="round"/>
<path d="M121.46 250.297C135.7 261.497 153.53 273.817 175.07 285.347C198.61 297.957 220.55 306.397 238.99 312.147" stroke="#231F20" stroke-miterlimit="10" stroke-linecap="round"/>
<path d="M178.17 303.896C195.24 311.376 214.17 318.766 234.87 325.546C261.92 334.406 287.26 340.666 310.13 345.136" stroke="#231F20" stroke-miterlimit="10" stroke-linecap="round"/>
<path d="M96.7197 280.187C107.94 289.337 120.96 298.847 135.9 308.027C164.46 325.577 191.64 336.787 214.25 344.107" stroke="#231F20" stroke-miterlimit="10" stroke-linecap="round"/>
<path d="M40.02 234.827C48.27 242.047 56.51 249.257 64.76 256.477" stroke="#231F20" stroke-miterlimit="10" stroke-linecap="round"/>
<path d="M-63.0698 161.638C-50.7598 179.218 -36.1098 198.058 -18.7398 217.308C8.33018 247.297 35.4402 271.007 59.6102 289.467" stroke="#231F20" stroke-miterlimit="10" stroke-linecap="round"/>
<path d="M94.6602 33.7998C101.25 45.8698 109.97 59.6898 121.46 74.0098C136.07 92.2198 151.01 106.07 163.73 116.28" stroke="#231F20" stroke-miterlimit="10" stroke-linecap="round"/>
<path d="M250.33 115.239C259.9 122.109 273.33 130.309 290.54 136.889C306.37 142.939 320.67 145.799 331.78 147.199" stroke="#231F20" stroke-miterlimit="10" stroke-linecap="round"/>
<path d="M768 1024.15L768 0.145996L6.10352e-05 0.145963L1.62747e-05 1024.15L768 1024.15Z" fill="#D0D6F9" fill-opacity="0.5"/>
</g>
<defs>
<clipPath id="clip0_169_857">
<rect width="768" height="1024" fill="white"/>
</clipPath>
</defs>
</svg>
