<svg width="768" height="310" viewBox="0 0 768 310" fill="none" xmlns="http://www.w3.org/2000/svg">
<g clip-path="url(#clip0_170_1159)">
<path d="M0 0H768V310H0V0Z" fill="#D0D6F9"/>
<path d="M0 307H768V310H0V307Z" fill="#0B0D17"/>
<path d="M0 0H768V3H0V0Z" fill="#0B0D17"/>
<mask id="mask0_170_1159" style="mask-type:luminance" maskUnits="userSpaceOnUse" x="0" y="3" width="768" height="304">
<rect y="3" width="768" height="304" fill="white"/>
</mask>
<g mask="url(#mask0_170_1159)">
<path opacity="0.7" d="M-30.1969 -45C-46.8767 -40.8 -58.6446 -26.5 -59.1563 -10.4C-59.7703 7.4 -46.4674 23.6 -27.741 27.2C42.9691 27.2 113.782 27.2 184.492 27.2C200.353 28.8 212.325 41.1 213.042 55.1C213.86 71.3 199.636 86.4 181.012 86.4C110.2 86.4 39.4899 86.4 -31.3226 86.4C-57.2121 86.6 -78.3944 107.4 -78.4967 132.5C-78.599 157.9 -57.1097 179 -30.9132 179C82.2639 179 195.543 179 308.72 179C334.303 177.7 354.462 157.3 355.076 133.7C355.792 108.1 333.689 85.6 305.855 85.6C294.292 85.6 282.728 85.6 271.165 85.6C259.397 85.6 250.495 76 251.108 66C251.62 57.6 258.886 50.2 268.505 49C310.153 49 351.699 49 393.347 49C418.009 48.7 437.963 29 438.168 5.2C438.373 -19 417.907 -39.2 392.836 -39.1C251.825 -41.1 110.814 -43.1 -30.1969 -45Z" fill="white" stroke="black" stroke-width="3"/>
<g clip-path="url(#clip1_170_1159)">
<path d="M371.58 64.5202C371.3 64.9702 370.85 65.5502 370.17 66.0602C368.58 67.2502 366.82 67.2402 366.22 67.2102C367.01 61.4002 367.73 57.5202 368.41 55.5602C368.76 54.5502 369.09 54.0502 369.41 54.0602C370.23 54.0802 370.96 57.5702 371.58 64.5202Z" fill="#4B5658" stroke="black" stroke-linejoin="round"/>
<path d="M361.75 176.48C366.98 176.85 371.32 177.96 374.51 179.04C374.5 179.93 374.49 180.83 374.47 181.72C371.09 180.79 366.94 179.94 362.13 179.55C357.04 179.14 352.57 179.35 348.95 179.77C349.04 178.88 349.14 178.01 349.24 177.12C352.46 176.56 356.75 176.13 361.75 176.48Z" fill="#8C8F89" stroke="black" stroke-linejoin="round"/>
<path d="M405.92 179.59C403.39 178.54 399.29 177.21 394.09 177.08C388.04 176.93 383.31 178.48 380.64 179.59C380.68 178.68 380.73 177.77 380.77 176.87C383.27 175.66 388.52 173.57 395.32 174.06C399.94 174.38 403.55 175.78 405.79 176.87C405.83 177.77 405.87 178.68 405.92 179.59Z" fill="#8C8F89" stroke="black" stroke-linejoin="round"/>
<path d="M374.51 179.04C371.32 177.96 366.98 176.85 361.75 176.48C356.75 176.13 352.46 176.56 349.24 177.12C355.14 131.73 359.41 98.88 359.7 96.44C359.74 96.12 359.88 94.94 360.22 93.38C360.57 91.71 361.09 90.12 361.11 90.06C361.61 88.5 362.91 83.06 366.22 67.21C366.82 67.24 368.58 67.25 370.17 66.06C370.85 65.55 371.3 64.97 371.58 64.52C372.39 73.04 373.19 81.55 374 90.06C374.05 90.88 374.11 92.07 374.13 93.5C374.14 94.29 374.14 94.97 374.14 95.5C374.14 96.08 374.13 96.47 374.13 96.57C374.26 124.06 374.39 151.55 374.51 179.04Z" fill="#EBECEA" stroke="black" stroke-linejoin="round"/>
<path d="M374.47 181.72C374.28 196.87 374.08 212.01 373.87 227.16C369.51 226.27 364.36 225.52 358.56 225.25C353.07 224.99 348.12 225.21 343.87 225.63C345.56 210.35 347.25 195.06 348.95 179.78C352.57 179.35 357.04 179.14 362.13 179.55C366.94 179.94 371.09 180.79 374.47 181.72Z" fill="#4B5658" stroke="black" stroke-linejoin="round"/>
<path d="M373.87 227.16C373.69 230.97 373.44 234.88 373.11 238.91C372.72 243.58 372.25 248.09 371.7 252.44C370.67 252.38 369.63 252.32 368.59 252.27C368.42 252.26 368.26 252.25 368.09 252.25H368.08C367.18 252.19 366.27 252.15 365.35 252.12C364.46 252.08 363.55 252.03 362.65 252C360.87 251.92 359.08 251.85 357.28 251.8C354.78 251.72 352.31 251.66 349.87 251.62C349.42 251.61 348.96 251.61 348.51 251.6C348.08 251.59 347.65 251.58 347.23 251.59C346.69 251.57 346.15 251.57 345.61 251.57C344.86 251.57 344.11 251.55 343.36 251.55C343.35 250.94 343.34 250.33 343.33 249.71C343.28 246.73 343.28 243.66 343.32 240.53C343.33 239.74 343.34 238.94 343.36 238.14C343.46 233.83 343.63 229.66 343.87 225.63C348.12 225.21 353.07 224.99 358.56 225.25C364.36 225.52 369.51 226.27 373.87 227.16Z" fill="#B57F63" stroke="black" stroke-linejoin="round"/>
<path d="M401.07 70.2702C400.05 69.5002 399.02 68.7402 398 67.9702C397.83 62.3202 397.95 59.4702 398.39 59.4202C398.55 59.4002 398.76 59.7802 399.01 60.5702C399.51 62.1602 400.2 65.3902 401.07 70.2702Z" fill="#4B5658" stroke="black" stroke-linejoin="round"/>
<path d="M392.35 63.7899C391.98 63.9399 391.37 64.1399 390.6 64.1099C389.18 64.0499 388.22 63.2599 387.92 62.9899C389.05 53.4099 389.88 50.7199 390.47 50.7399C391.08 50.7399 391.77 53.6099 392.35 63.7899Z" fill="#4B5658" stroke="black" stroke-linejoin="round"/>
<path d="M405.79 176.87C403.55 175.78 399.94 174.38 395.32 174.06C388.52 173.57 383.27 175.66 380.77 176.87C381.86 149.73 382.96 122.6 384.06 95.4602C384.07 95.2502 384.08 95.0303 384.09 94.8203C384.05 93.7403 384.08 92.4802 384.26 91.0802C384.45 89.5302 384.77 88.1902 385.11 87.0802C386.05 79.0502 386.98 71.0202 387.92 62.9902C388.22 63.2602 389.18 64.0502 390.6 64.1102C391.37 64.1402 391.98 63.9403 392.35 63.7903C393.96 70.6403 395.57 77.4802 397.18 84.3302C397.67 86.4102 398.15 88.4903 398.64 90.5703C400.71 111.98 402.59 133.68 404.26 155.67C404.79 162.76 405.31 169.83 405.79 176.87Z" fill="#EBECEA" stroke="black" stroke-linejoin="round"/>
<path d="M416.9 183.38C415.5 183.05 413.73 182.77 411.66 182.74C409.51 182.7 407.67 182.96 406.23 183.25C406.14 182.28 406.06 181.32 405.98 180.35C407.62 180.12 409.58 179.98 411.79 180.06C413.55 180.12 415.14 180.32 416.51 180.57C416.64 181.5 416.77 182.44 416.9 183.38Z" fill="#8C8F89" stroke="black" stroke-linejoin="round"/>
<path d="M416.51 180.57C415.14 180.32 413.55 180.12 411.79 180.06C409.58 179.98 407.62 180.12 405.98 180.35C405.96 180.1 405.94 179.84 405.92 179.59C405.87 178.68 405.83 177.77 405.79 176.87C405.31 169.83 404.79 162.76 404.26 155.67C402.59 133.68 400.71 111.98 398.64 90.5702C398.15 88.4902 397.67 86.4102 397.18 84.3302C397.22 81.4002 397.32 78.3702 397.49 75.2502C397.63 72.7602 397.8 70.3302 398 67.9702C399.02 68.7402 400.05 69.5002 401.07 70.2702C401.81 74.5402 402.66 78.9302 403.62 83.4202C404.19 86.1102 404.79 88.7502 405.41 91.3302C405.61 92.0802 405.89 93.1802 406.17 94.5202C406.17 94.5202 406.54 96.2802 406.81 98.1002C407.19 100.66 411.16 134.42 416.51 180.57Z" fill="#EBECEA" stroke="black" stroke-linejoin="round"/>
<path d="M406.23 183.25H406.22" stroke="black" stroke-linejoin="round"/>
<path d="M409.71 225.24C406.07 224.39 401.25 223.64 395.58 223.72C389.25 223.81 383.97 224.91 380.13 226.01C379.63 217.71 379.42 208.8 379.62 199.33C379.77 192.43 380.13 185.84 380.64 179.59C383.31 178.48 388.04 176.93 394.09 177.08C399.29 177.21 403.39 178.54 405.92 179.59C405.94 179.84 405.96 180.1 405.98 180.35C406.06 181.32 406.14 182.28 406.23 183.25C407.38 197.03 408.54 210.81 409.69 224.59C409.7 224.81 409.7 225.02 409.71 225.24Z" fill="#4B5658" stroke="black" stroke-linejoin="round"/>
<path d="M420.85 228.44C419.18 228.26 417.3 228.16 415.24 228.18C413.25 228.21 411.43 228.36 409.81 228.57C409.78 227.46 409.74 226.35 409.71 225.24C409.72 225.24 409.74 225.24 409.75 225.24C409.73 225.02 409.71 224.8 409.69 224.58C408.54 210.8 407.38 197.02 406.23 183.24C407.67 182.95 409.51 182.69 411.66 182.73C413.73 182.76 415.5 183.04 416.9 183.37C418.49 198.17 419.64 208.98 419.83 210.94C419.99 212.5 420.09 214 420.09 214C420.17 215.16 420.2 216.02 420.22 216.3C420.29 217.92 420.47 221.51 420.85 228.43V228.44Z" fill="#4B5658" stroke="black" stroke-linejoin="round"/>
<path d="M409.81 228.57C409.78 227.46 409.74 226.35 409.71 225.24C406.07 224.39 401.25 223.64 395.58 223.72C389.25 223.81 383.97 224.91 380.13 226.01C380.14 226.25 380.15 226.48 380.16 226.72C380.49 235.21 380.82 243.7 381.15 252.18C382.4 251.89 383.78 251.61 385.27 251.37C385.48 251.34 385.7 251.3 385.92 251.27C386.41 251.19 386.91 251.12 387.43 251.05C388.17 250.95 388.93 250.87 389.72 250.79C391.59 250.61 393.59 250.51 395.7 250.52C398.29 250.53 400.7 250.69 402.91 250.95C403.6 251.03 404.28 251.12 404.93 251.22C405.67 251.33 406.38 251.45 407.07 251.58C408.11 251.77 409.09 251.98 410 252.19C410.17 252.23 410.34 252.27 410.51 252.31C410.28 244.4 410.05 236.48 409.81 228.57ZM402.13 248.35C401.95 247.15 401.82 245.58 401.96 243.76C402.1 241.98 402.45 240.48 402.81 239.33C404.4 241.83 405.99 244.33 407.58 246.82C405.76 247.33 403.95 247.84 402.13 248.35Z" fill="#B57F63" stroke="black" stroke-linejoin="round"/>
<path d="M422.64 254.61C422.28 254.6 421.91 254.59 421.53 254.58C420.84 254.56 420.14 254.55 419.42 254.55H419.19C418.41 254.56 417.6 254.58 416.77 254.61C416.71 254.61 416.64 254.62 416.58 254.62C414.32 254.71 412.21 254.89 410.26 255.12C410.18 254.23 410.1 253.34 410.02 252.45C410.19 252.4 410.35 252.36 410.51 252.31C410.28 244.4 410.05 236.48 409.81 228.57C411.43 228.36 413.25 228.21 415.24 228.18C417.3 228.16 419.18 228.26 420.85 228.44C421.03 232.1 421.25 235.8 421.49 239.55C421.6 241.2 421.71 242.83 421.83 244.46C422.04 247.36 422.27 250.24 422.51 253.08C422.55 253.59 422.6 254.1 422.64 254.61Z" fill="#B57F63" stroke="black" stroke-linejoin="round"/>
<path d="M348.95 179.78C348.87 179.78 348.8 179.79 348.73 179.8" stroke="black" stroke-linejoin="round"/>
<path d="M374.48 181.72H374.47" stroke="black" stroke-linejoin="round"/>
<path d="M399.01 60.5702C398.76 59.7802 398.55 59.4002 398.39 59.4202C397.95 59.4702 397.83 62.3202 398 67.9702C397.8 70.3302 397.63 72.7602 397.49 75.2502C397.32 78.3702 397.22 81.4002 397.18 84.3302C395.57 77.4802 393.96 70.6402 392.35 63.7902C391.77 53.6102 391.08 50.7502 390.47 50.7402C389.88 50.7202 389.05 53.4102 387.92 62.9902C386.98 71.0202 386.05 79.0502 385.11 87.0802C384.77 88.1902 384.45 89.5302 384.26 91.0802C384.08 92.4802 384.05 93.7402 384.09 94.8202C384.08 95.0302 384.07 95.2502 384.06 95.4602C382.75 95.1802 381.15 94.8902 379.24 94.9102C377.44 94.9302 375.39 95.2302 374.14 95.5002C374.14 94.9702 374.14 94.2902 374.13 93.5002C374.11 92.0702 374.05 90.8802 374 90.0602C373.19 81.5502 372.39 73.0402 371.58 64.5202C370.96 57.5702 370.23 54.0802 369.41 54.0602C369.09 54.0502 368.76 54.5502 368.41 55.5602C368.29 53.4202 368.22 51.1302 368.26 48.6902C368.29 46.1502 368.44 43.7602 368.64 41.5502C369.36 24.4002 370.09 7.25022 370.81 -9.89978C373.8 -10.8598 378.46 -11.9698 384.22 -11.8198C389.83 -11.6598 394.33 -10.3498 397.24 -9.25978C397.79 7.67022 398.34 24.6102 398.9 41.5502C399.17 44.1102 399.35 46.8802 399.41 49.8402C399.48 53.7402 399.31 57.3302 399.01 60.5702Z" fill="#EBECEA" stroke="black" stroke-linejoin="round"/>
<path d="M343.33 249.71C339.84 249.09 336.35 248.47 332.85 247.84C336.34 245.41 339.83 242.97 343.32 240.53C343.28 243.66 343.28 246.73 343.33 249.71Z" fill="#B57F63" stroke="black" stroke-linejoin="round"/>
<path d="M431.92 252.1C428.78 252.43 425.65 252.75 422.51 253.08C422.27 250.24 422.04 247.36 421.83 244.46C425.19 247 428.56 249.55 431.92 252.1Z" fill="#B57F63" stroke="black" stroke-linejoin="round"/>
<path d="M381.36 255.5C380.55 255.58 379.69 255.64 378.81 255.67C378.07 255.7 377.35 255.71 376.65 255.69C375.31 255.69 374.03 255.59 372.83 255.47C372.43 255.43 372.04 255.38 371.66 255.33C371.68 254.37 371.69 253.4 371.7 252.44C372.25 248.09 372.72 243.58 373.11 238.91C373.44 234.88 373.69 230.97 373.87 227.16C374.59 226.92 375.51 226.68 376.6 226.57C378.04 226.42 379.27 226.57 380.16 226.72C380.49 235.21 380.82 243.7 381.15 252.18C381.22 253.29 381.29 254.4 381.36 255.5Z" fill="#B57F63" stroke="black" stroke-linejoin="round"/>
<path d="M384.06 95.4601C382.96 122.6 381.86 149.73 380.77 176.87C380.73 177.77 380.68 178.68 380.64 179.59C380.13 185.84 379.77 192.43 379.62 199.33C379.42 208.8 379.63 217.71 380.13 226.01C380.14 226.25 380.15 226.48 380.16 226.72C379.27 226.56 378.04 226.42 376.6 226.57C375.51 226.68 374.59 226.92 373.87 227.16C374.08 212.01 374.28 196.87 374.47 181.72C374.49 180.83 374.5 179.93 374.51 179.04C374.39 151.55 374.26 124.06 374.13 96.5702C374.13 96.4702 374.14 96.0802 374.14 95.5002C375.39 95.2302 377.44 94.9302 379.24 94.9102C381.15 94.8902 382.75 95.1801 384.06 95.4601Z" fill="#4B5658" stroke="black" stroke-linejoin="round"/>
<path d="M407.58 246.82C405.76 247.33 403.95 247.84 402.13 248.35C401.95 247.15 401.82 245.58 401.96 243.76C402.1 241.98 402.45 240.48 402.81 239.33C404.4 241.83 405.99 244.33 407.58 246.82Z" fill="#B57F63" stroke="black" stroke-linejoin="round"/>
<path d="M384.56 253.05C383.31 252.78 382.17 252.48 381.15 252.18" stroke="black" stroke-linejoin="round"/>
<path d="M345.61 251.57V251.56" stroke="black" stroke-linejoin="round"/>
<path d="M404.93 251.22C404.89 251.13 404.86 251.04 404.82 250.95" stroke="black" stroke-linejoin="round"/>
<path d="M387.55 250.79C387.51 250.88 387.47 250.96 387.43 251.05" stroke="black" stroke-linejoin="round"/>
<path d="M365.35 252.12C365.33 252.04 365.32 251.96 365.31 251.88" stroke="black" stroke-linejoin="round"/>
<path d="M348.59 251.37C348.56 251.44 348.53 251.52 348.51 251.6" stroke="black" stroke-linejoin="round"/>
<path d="M419.19 254.55C419.15 254.47 419.11 254.39 419.06 254.31" stroke="black" stroke-linejoin="round"/>
<path d="M376.65 255.69C376.6 255.6 376.56 255.52 376.51 255.44" stroke="black" stroke-linejoin="round"/>
<path d="M384.26 95.5C384.19 95.5 384.13 95.47 384.06 95.46" stroke="black" stroke-linejoin="round"/>
<path d="M368.08 252.25V252.24" stroke="black" stroke-linejoin="round"/>
<path d="M431.07 343.59C428.12 354.84 424.84 363.93 422.39 370.14C420.15 361.61 416.23 353.28 415.12 344.62C416.1 341.56 416.94 338.69 417.66 336.03C419.05 340.76 420.75 345.49 422.13 350.23C429.05 320.51 431.12 296.75 430.05 283.76C429.61 278.48 428.8 269.95 423.07 261.63C420.97 258.58 418.28 256.11 416.58 254.62C416.64 254.62 416.71 254.61 416.77 254.61C417.6 254.58 418.41 254.56 419.19 254.55H419.42C421.21 255.74 423.58 257.53 425.96 260.1C432.11 266.73 435.11 275.07 436.59 287.27C437.37 293.68 439.14 312.76 431.07 343.59Z" fill="#E3D91B" stroke="black" stroke-linejoin="round"/>
<path d="M419.42 254.55C419.3 254.46 419.18 254.39 419.06 254.31" stroke="black" stroke-linejoin="round"/>
<path d="M385.92 251.27C384.53 253.05 383.1 255.03 381.7 257.21C379.22 261.06 377.31 264.76 375.83 268.1C374.81 265.24 373.53 262.19 371.93 259.03C372.23 257.84 372.53 256.65 372.83 255.47C374.03 255.59 375.31 255.68 376.65 255.69C377.35 255.71 378.07 255.7 378.81 255.67C379.69 255.64 380.55 255.58 381.36 255.5C381.29 254.4 381.22 253.29 381.15 252.18C382.4 251.89 383.78 251.61 385.27 251.37C385.48 251.34 385.7 251.3 385.92 251.27Z" fill="#E6A900" stroke="black" stroke-linejoin="round"/>
<path d="M372.83 255.47C372.53 256.65 372.23 257.84 371.93 259.03C371.47 258.12 370.98 257.2 370.47 256.27C369.69 254.86 368.89 253.52 368.09 252.25C368.26 252.25 368.42 252.26 368.59 252.27C369.63 252.32 370.67 252.38 371.7 252.44C371.69 253.4 371.68 254.37 371.66 255.33C372.04 255.38 372.43 255.43 372.83 255.47Z" fill="#E3D91B" stroke="black" stroke-linejoin="round"/>
<path d="M418.47 332.95C418.22 333.94 417.95 334.97 417.66 336.03C416.94 338.69 416.1 341.56 415.12 344.61C411.88 354.66 407.1 366.64 399.92 379.59C393.84 368.47 388.01 356.1 382.9 342.44C381.98 339.98 381.08 337.47 380.21 334.92C379.85 333.88 379.5 332.82 379.15 331.76C377.94 328.08 376.83 324.45 375.81 320.88C375 324.66 374.07 328.51 373.02 332.44C372.84 333.13 372.65 333.82 372.46 334.51C371.71 337.21 370.94 339.86 370.13 342.47C366.16 355.25 361.46 366.84 356.51 377.21C347.13 361.83 341.66 348 338.39 337.97C335.64 329.57 327.38 303.52 331.75 281.29C331.75 281.29 334.55 267.04 342.22 257.04C344.05 254.64 346.11 252.64 346.11 252.64C346.52 252.24 346.89 251.9 347.23 251.59C347.65 251.58 348.08 251.59 348.51 251.6C348.96 251.61 349.42 251.61 349.87 251.62C348.75 253.45 347.27 256.07 345.79 259.33C345.79 259.33 341.52 268.76 339.92 280.52C338.37 291.87 342.3 321.88 356.85 359.16C367.97 319.64 372.66 289.39 371.83 278.74C371.17 270.17 368.51 263.16 368.51 263.16C366.74 258.49 364.56 254.77 362.65 252C363.55 252.03 364.46 252.08 365.35 252.12C366.27 252.15 367.18 252.19 368.08 252.25H368.09C368.89 253.52 369.69 254.86 370.47 256.27C370.98 257.2 371.47 258.12 371.93 259.03C373.53 262.19 374.81 265.24 375.83 268.1C377.31 264.76 379.22 261.06 381.7 257.21C383.1 255.03 384.53 253.05 385.92 251.27C386.41 251.19 386.91 251.12 387.43 251.05C388.17 250.95 388.93 250.87 389.72 250.79C388.76 253.04 387.5 256.28 386.3 260.27C386.3 260.27 382.69 272.32 382.39 286.99C382.11 300.59 386.63 327.51 399.75 360.01C401.58 355.34 414.98 320.67 414.55 292.59C414.46 286.82 414.29 276.89 409.87 264.95C407.64 258.91 404.98 254.19 402.91 250.95C403.6 251.03 404.28 251.12 404.93 251.22C405.67 251.33 406.38 251.45 407.07 251.58C408.86 254.02 411.96 257.68 412.77 259.08C420.09 271.77 422.64 286.4 422.64 286.4C425.68 303.83 421.82 319.69 418.47 332.95Z" fill="#E3D91B" stroke="black" stroke-linejoin="round"/>
<path d="M347.24 251.58L347.23 251.59" stroke="black" stroke-linejoin="round"/>
<path d="M356.85 359.16C342.3 321.88 338.37 291.87 339.92 280.52C341.52 268.76 345.79 259.33 345.79 259.33C347.27 256.07 348.75 253.45 349.87 251.62C352.31 251.66 354.78 251.72 357.28 251.8C359.08 251.85 360.87 251.92 362.65 252C364.56 254.77 366.74 258.49 368.51 263.16C368.51 263.16 371.17 270.17 371.83 278.74C372.66 289.39 367.97 319.64 356.85 359.16Z" fill="#E6A900" stroke="black" stroke-linejoin="round"/>
<path d="M399.75 360.01C386.63 327.51 382.11 300.59 382.39 286.99C382.69 272.32 386.3 260.27 386.3 260.27C387.5 256.28 388.76 253.04 389.72 250.79C391.59 250.61 393.59 250.51 395.7 250.52C398.29 250.53 400.7 250.69 402.91 250.95C404.98 254.19 407.64 258.91 409.87 264.95C414.29 276.89 414.46 286.82 414.55 292.59C414.98 320.67 401.58 355.34 399.75 360.01Z" fill="#E6A900" stroke="black" stroke-linejoin="round"/>
<path d="M422.13 350.23C420.75 345.49 419.05 340.76 417.66 336.03C417.95 334.97 418.22 333.94 418.47 332.95C421.82 319.69 425.68 303.83 422.64 286.4C422.64 286.4 420.09 271.77 412.77 259.08C411.96 257.68 408.86 254.02 407.07 251.58C408.11 251.77 409.09 251.98 410 252.19C410.01 252.28 410.02 252.36 410.02 252.45C410.1 253.34 410.18 254.23 410.26 255.12C412.21 254.89 414.32 254.71 416.58 254.62C418.28 256.11 420.97 258.58 423.07 261.63C428.8 269.95 429.61 278.48 430.05 283.76C431.12 296.75 429.05 320.51 422.13 350.23Z" fill="#E6A900" stroke="black" stroke-linejoin="round"/>
<path d="M416.58 254.62C416.45 254.51 416.33 254.41 416.22 254.31" stroke="black" stroke-linejoin="round"/>
</g>
<g opacity="0.7">
<path d="M768.085 196C674.555 196 580.923 196 487.393 196C459.355 196 436.842 218.6 437.252 245C437.661 270.2 458.946 291.5 485.654 292.3C522.186 292.3 558.717 292.3 595.249 292.3C598.319 292.7 607.324 294.1 614.999 301.4C620.525 306.6 622.878 312.4 623.799 315.4C623.799 337.6 623.799 359.9 623.799 382.1C623.902 384.9 624.72 394.6 632.6 402.5C644.675 414.7 662.173 411.4 663.401 411.1C698.296 411.1 733.19 411.1 768.085 411.1" fill="white"/>
<path d="M768.085 196C674.555 196 580.923 196 487.393 196C459.355 196 436.842 218.6 437.252 245C437.661 270.2 458.946 291.5 485.654 292.3C522.186 292.3 558.717 292.3 595.249 292.3C598.319 292.7 607.324 294.1 614.999 301.4C620.525 306.6 622.878 312.4 623.799 315.4C623.799 337.6 623.799 359.9 623.799 382.1C623.902 384.9 624.72 394.6 632.6 402.5C644.675 414.7 662.173 411.4 663.401 411.1C698.296 411.1 733.19 411.1 768.085 411.1" stroke="black" stroke-width="3"/>
</g>
</g>
</g>
<defs>
<clipPath id="clip0_170_1159">
<rect width="768" height="310" fill="white"/>
</clipPath>
<clipPath id="clip1_170_1159">
<rect width="107.82" height="623.09" fill="white" transform="translate(330 -243)"/>
</clipPath>
</defs>
</svg>
