<svg width="520" height="537" viewBox="0 0 520 537" fill="none" xmlns="http://www.w3.org/2000/svg">
<path d="M5 5H520V532H5V5Z" fill="#D0D6F9"/>
<g clip-path="url(#clip0_174_16)">
<mask id="mask0_174_16" style="mask-type:luminance" maskUnits="userSpaceOnUse" x="5" y="5" width="515" height="527">
<rect x="5" y="5" width="515" height="527" fill="white"/>
</mask>
<g mask="url(#mask0_174_16)">
<path opacity="0.7" d="M-137.7 59C-154.38 63.2 -166.148 77.5 -166.659 93.6C-167.273 111.4 -153.97 127.6 -135.244 131.2C-64.5339 131.2 6.27859 131.2 76.9887 131.2C92.8499 132.8 104.822 145.1 105.539 159.1C106.357 175.3 92.1335 190.4 73.5094 190.4C2.69699 190.4 -68.0131 190.4 -138.825 190.4C-164.715 190.6 -185.897 211.4 -186 236.5C-186.102 261.9 -164.613 283 -138.416 283C-25.2391 283 88.0403 283 201.217 283C226.8 281.7 246.959 261.3 247.573 237.7C248.289 212.1 226.186 189.6 198.352 189.6C186.789 189.6 175.225 189.6 163.662 189.6C151.894 189.6 142.992 180 143.606 170C144.117 161.6 151.383 154.2 161.002 153C202.65 153 244.196 153 285.844 153C310.506 152.7 330.46 133 330.665 109.2C330.87 85 310.404 64.8 285.333 64.9C144.322 62.9 3.31102 60.9 -137.7 59Z" fill="white" stroke="black" stroke-width="3"/>
<g opacity="0.7">
<path d="M603.839 358C510.309 358 416.677 358 323.147 358C295.109 358 272.596 380.6 273.005 407C273.415 432.2 294.7 453.5 321.408 454.3C357.94 454.3 394.471 454.3 431.003 454.3C434.073 454.7 443.078 456.1 450.753 463.4C456.279 468.6 458.632 474.4 459.553 477.4C459.553 499.6 459.553 521.9 459.553 544.1C459.656 546.9 460.474 556.6 468.354 564.5C480.429 576.7 497.927 573.4 499.155 573.1C534.05 573.1 568.944 573.1 603.839 573.1" fill="white"/>
<path d="M603.839 358C510.309 358 416.677 358 323.147 358C295.109 358 272.596 380.6 273.005 407C273.415 432.2 294.7 453.5 321.408 454.3C357.94 454.3 394.471 454.3 431.003 454.3C434.073 454.7 443.078 456.1 450.753 463.4C456.279 468.6 458.632 474.4 459.553 477.4C459.553 499.6 459.553 521.9 459.553 544.1C459.656 546.9 460.474 556.6 468.354 564.5C480.429 576.7 497.927 573.4 499.155 573.1C534.05 573.1 568.944 573.1 603.839 573.1" stroke="black" stroke-width="3"/>
</g>
<g clip-path="url(#clip1_174_16)">
<path d="M250.58 277.52C250.3 277.97 249.85 278.55 249.17 279.06C247.58 280.25 245.82 280.24 245.22 280.21C246.01 274.4 246.73 270.52 247.41 268.56C247.76 267.55 248.09 267.05 248.41 267.06C249.23 267.08 249.96 270.57 250.58 277.52Z" fill="#4B5658" stroke="black" stroke-linejoin="round"/>
<path d="M240.75 389.48C245.98 389.85 250.32 390.96 253.51 392.04C253.5 392.93 253.49 393.83 253.47 394.72C250.09 393.79 245.94 392.94 241.13 392.55C236.04 392.14 231.57 392.35 227.95 392.77C228.04 391.88 228.14 391.01 228.24 390.12C231.46 389.56 235.75 389.13 240.75 389.48Z" fill="#8C8F89" stroke="black" stroke-linejoin="round"/>
<path d="M284.92 392.59C282.39 391.54 278.29 390.21 273.09 390.08C267.04 389.93 262.31 391.48 259.64 392.59C259.68 391.68 259.73 390.77 259.77 389.87C262.27 388.66 267.52 386.57 274.32 387.06C278.94 387.38 282.55 388.78 284.79 389.87C284.83 390.77 284.87 391.68 284.92 392.59Z" fill="#8C8F89" stroke="black" stroke-linejoin="round"/>
<path d="M253.51 392.04C250.32 390.96 245.98 389.85 240.75 389.48C235.75 389.13 231.46 389.56 228.24 390.12C234.14 344.73 238.41 311.88 238.7 309.44C238.74 309.12 238.88 307.94 239.22 306.38C239.57 304.71 240.09 303.12 240.11 303.06C240.61 301.5 241.91 296.06 245.22 280.21C245.82 280.24 247.58 280.25 249.17 279.06C249.85 278.55 250.3 277.97 250.58 277.52C251.39 286.04 252.19 294.55 253 303.06C253.05 303.88 253.11 305.07 253.13 306.5C253.14 307.29 253.14 307.97 253.14 308.5C253.14 309.08 253.13 309.47 253.13 309.57C253.26 337.06 253.39 364.55 253.51 392.04Z" fill="#EBECEA" stroke="black" stroke-linejoin="round"/>
<path d="M253.47 394.72C253.28 409.87 253.08 425.01 252.87 440.16C248.51 439.27 243.36 438.52 237.56 438.25C232.07 437.99 227.12 438.21 222.87 438.63C224.56 423.35 226.25 408.06 227.95 392.78C231.57 392.35 236.04 392.14 241.13 392.55C245.94 392.94 250.09 393.79 253.47 394.72Z" fill="#4B5658" stroke="black" stroke-linejoin="round"/>
<path d="M252.87 440.16C252.69 443.97 252.44 447.88 252.11 451.91C251.72 456.58 251.25 461.09 250.7 465.44C249.67 465.38 248.63 465.32 247.59 465.27C247.42 465.26 247.26 465.25 247.09 465.25H247.08C246.18 465.19 245.27 465.15 244.35 465.12C243.46 465.08 242.55 465.03 241.65 465C239.87 464.92 238.08 464.85 236.28 464.8C233.78 464.72 231.31 464.66 228.87 464.62C228.42 464.61 227.96 464.61 227.51 464.6C227.08 464.59 226.65 464.58 226.23 464.59C225.69 464.57 225.15 464.57 224.61 464.57C223.86 464.57 223.11 464.55 222.36 464.55C222.35 463.94 222.34 463.33 222.33 462.71C222.28 459.73 222.28 456.66 222.32 453.53C222.33 452.74 222.34 451.94 222.36 451.14C222.46 446.83 222.63 442.66 222.87 438.63C227.12 438.21 232.07 437.99 237.56 438.25C243.36 438.52 248.51 439.27 252.87 440.16Z" fill="#B57F63" stroke="black" stroke-linejoin="round"/>
<path d="M280.07 283.27C279.05 282.5 278.02 281.74 277 280.97C276.83 275.32 276.95 272.47 277.39 272.42C277.55 272.4 277.76 272.78 278.01 273.57C278.51 275.16 279.2 278.39 280.07 283.27Z" fill="#4B5658" stroke="black" stroke-linejoin="round"/>
<path d="M271.35 276.79C270.98 276.94 270.37 277.14 269.6 277.11C268.18 277.05 267.22 276.26 266.92 275.99C268.05 266.41 268.88 263.72 269.47 263.74C270.08 263.74 270.77 266.61 271.35 276.79Z" fill="#4B5658" stroke="black" stroke-linejoin="round"/>
<path d="M284.79 389.87C282.55 388.78 278.94 387.38 274.32 387.06C267.52 386.57 262.27 388.66 259.77 389.87C260.86 362.73 261.96 335.6 263.06 308.46C263.07 308.25 263.08 308.03 263.09 307.82C263.05 306.74 263.08 305.48 263.26 304.08C263.45 302.53 263.77 301.19 264.11 300.08C265.05 292.05 265.98 284.02 266.92 275.99C267.22 276.26 268.18 277.05 269.6 277.11C270.37 277.14 270.98 276.94 271.35 276.79C272.96 283.64 274.57 290.48 276.18 297.33C276.67 299.41 277.15 301.49 277.64 303.57C279.71 324.98 281.59 346.68 283.26 368.67C283.79 375.76 284.31 382.83 284.79 389.87Z" fill="#EBECEA" stroke="black" stroke-linejoin="round"/>
<path d="M295.9 396.38C294.5 396.05 292.73 395.77 290.66 395.74C288.51 395.7 286.67 395.96 285.23 396.25C285.14 395.28 285.06 394.32 284.98 393.35C286.62 393.12 288.58 392.98 290.79 393.06C292.55 393.12 294.14 393.32 295.51 393.57C295.64 394.5 295.77 395.44 295.9 396.38Z" fill="#8C8F89" stroke="black" stroke-linejoin="round"/>
<path d="M295.51 393.57C294.14 393.32 292.55 393.12 290.79 393.06C288.58 392.98 286.62 393.12 284.98 393.35C284.96 393.1 284.94 392.84 284.92 392.59C284.87 391.68 284.83 390.77 284.79 389.87C284.31 382.83 283.79 375.76 283.26 368.67C281.59 346.68 279.71 324.98 277.64 303.57C277.15 301.49 276.67 299.41 276.18 297.33C276.22 294.4 276.32 291.37 276.49 288.25C276.63 285.76 276.8 283.33 277 280.97C278.02 281.74 279.05 282.5 280.07 283.27C280.81 287.54 281.66 291.93 282.62 296.42C283.19 299.11 283.79 301.75 284.41 304.33C284.61 305.08 284.89 306.18 285.17 307.52C285.17 307.52 285.54 309.28 285.81 311.1C286.19 313.66 290.16 347.42 295.51 393.57Z" fill="#EBECEA" stroke="black" stroke-linejoin="round"/>
<path d="M285.23 396.25H285.22" stroke="black" stroke-linejoin="round"/>
<path d="M288.71 438.24C285.07 437.39 280.25 436.64 274.58 436.72C268.25 436.81 262.97 437.91 259.13 439.01C258.63 430.71 258.42 421.8 258.62 412.33C258.77 405.43 259.13 398.84 259.64 392.59C262.31 391.48 267.04 389.93 273.09 390.08C278.29 390.21 282.39 391.54 284.92 392.59C284.94 392.84 284.96 393.1 284.98 393.35C285.06 394.32 285.14 395.28 285.23 396.25C286.38 410.03 287.54 423.81 288.69 437.59C288.7 437.81 288.7 438.02 288.71 438.24Z" fill="#4B5658" stroke="black" stroke-linejoin="round"/>
<path d="M299.85 441.44C298.18 441.26 296.3 441.16 294.24 441.18C292.25 441.21 290.43 441.36 288.81 441.57C288.78 440.46 288.74 439.35 288.71 438.24C288.72 438.24 288.74 438.24 288.75 438.24C288.73 438.02 288.71 437.8 288.69 437.58C287.54 423.8 286.38 410.02 285.23 396.24C286.67 395.95 288.51 395.69 290.66 395.73C292.73 395.76 294.5 396.04 295.9 396.37C297.49 411.17 298.64 421.98 298.83 423.94C298.99 425.5 299.09 427 299.09 427C299.17 428.16 299.2 429.02 299.22 429.3C299.29 430.92 299.47 434.51 299.85 441.43V441.44Z" fill="#4B5658" stroke="black" stroke-linejoin="round"/>
<path d="M288.81 441.57C288.78 440.46 288.74 439.35 288.71 438.24C285.07 437.39 280.25 436.64 274.58 436.72C268.25 436.81 262.97 437.91 259.13 439.01C259.14 439.25 259.15 439.48 259.16 439.72C259.49 448.21 259.82 456.7 260.15 465.18C261.4 464.89 262.78 464.61 264.27 464.37C264.48 464.34 264.7 464.3 264.92 464.27C265.41 464.19 265.91 464.12 266.43 464.05C267.17 463.95 267.93 463.87 268.72 463.79C270.59 463.61 272.59 463.51 274.7 463.52C277.29 463.53 279.7 463.69 281.91 463.95C282.6 464.03 283.28 464.12 283.93 464.22C284.67 464.33 285.38 464.45 286.07 464.58C287.11 464.77 288.09 464.98 289 465.19C289.17 465.23 289.34 465.27 289.51 465.31C289.28 457.4 289.05 449.48 288.81 441.57ZM281.13 461.35C280.95 460.15 280.82 458.58 280.96 456.76C281.1 454.98 281.45 453.48 281.81 452.33C283.4 454.83 284.99 457.33 286.58 459.82C284.76 460.33 282.95 460.84 281.13 461.35Z" fill="#B57F63" stroke="black" stroke-linejoin="round"/>
<path d="M301.64 467.61C301.28 467.6 300.91 467.59 300.53 467.58C299.84 467.56 299.14 467.55 298.42 467.55H298.19C297.41 467.56 296.6 467.58 295.77 467.61C295.71 467.61 295.64 467.62 295.58 467.62C293.32 467.71 291.21 467.89 289.26 468.12C289.18 467.23 289.1 466.34 289.02 465.45C289.19 465.4 289.35 465.36 289.51 465.31C289.28 457.4 289.05 449.48 288.81 441.57C290.43 441.36 292.25 441.21 294.24 441.18C296.3 441.16 298.18 441.26 299.85 441.44C300.03 445.1 300.25 448.8 300.49 452.55C300.6 454.2 300.71 455.83 300.83 457.46C301.04 460.36 301.27 463.24 301.51 466.08C301.55 466.59 301.6 467.1 301.64 467.61Z" fill="#B57F63" stroke="black" stroke-linejoin="round"/>
<path d="M227.95 392.78C227.87 392.78 227.8 392.79 227.73 392.8" stroke="black" stroke-linejoin="round"/>
<path d="M253.48 394.72H253.47" stroke="black" stroke-linejoin="round"/>
<path d="M278.02 78.5001V112.33C278 112.49 277.99 112.65 277.97 112.81C275.94 111.43 270.71 108.3 263.34 108.12C255.56 107.94 249.98 111.16 247.96 112.46V78.1901C248.45 77.9101 249.07 77.5601 249.81 77.2101C252.56 75.8601 256.98 74.2301 262.58 74.2101C268.8 74.1801 273.63 76.1301 276.43 77.6101C277.07 77.9401 277.6 78.2401 278.02 78.5001Z" fill="#EBECEA" stroke="black" stroke-linejoin="round"/>
<path d="M266.85 -6.32003V27.06C266.28 26.74 264.92 26.1 263.09 26.16C261.42 26.22 260.21 26.85 259.64 27.18V-5.88003C260.61 -6.18003 261.91 -6.48003 263.47 -6.55003C264.8 -6.61003 265.95 -6.48003 266.85 -6.32003Z" fill="#EBECEA" stroke="black" stroke-linejoin="round"/>
<path d="M276.43 42.2499V77.6099C273.63 76.1299 268.8 74.1799 262.58 74.2099C256.98 74.2299 252.56 75.8599 249.81 77.2099V43.0099C251.22 41.8699 255.94 38.3199 262.96 38.1599C270.32 37.9999 275.04 41.1699 276.43 42.2499Z" fill="#EBECEA" stroke="black" stroke-linejoin="round"/>
<path d="M276.43 42.2499C275.04 41.1699 270.32 38 262.96 38.16C255.94 38.32 251.22 41.8699 249.81 43.0099C253.09 37.7399 256.36 32.4599 259.64 27.1799C260.21 26.8499 261.42 26.2199 263.09 26.1599C264.92 26.0999 266.28 26.7399 266.85 27.0599C270.15 32.2899 273.13 37.0199 276.43 42.2499Z" fill="#EBECEA" stroke="black" stroke-linejoin="round"/>
<path d="M278.02 112.33V112.84C278.02 112.84 277.99 112.82 277.97 112.81" stroke="black" stroke-linejoin="round"/>
<path d="M277.97 112.81C277.57 116.74 277.15 120.66 276.75 124.59C274.75 123.3 269.83 120.5 262.96 120.38C256.53 120.26 251.76 122.54 249.68 123.69C249.11 119.95 248.53 116.21 247.96 112.46C249.98 111.16 255.56 107.94 263.34 108.12C270.71 108.3 275.94 111.43 277.97 112.81Z" fill="#4B5658" stroke="black" stroke-linejoin="round"/>
<path d="M276.75 124.59C276.66 133.65 276.58 142.72 276.49 151.78C274.5 150.63 269.56 148.13 262.83 148.33C256.3 148.53 251.63 151.17 249.68 152.42V123.69C251.76 122.54 256.53 120.26 262.96 120.38C269.83 120.5 274.75 123.3 276.75 124.59Z" fill="#4B5658" stroke="black" stroke-linejoin="round"/>
<path d="M276.49 151.78V168.76C274.12 167.54 269.59 165.62 263.6 165.44C257.09 165.25 252.13 167.21 249.68 168.38V152.42C251.63 151.17 256.3 148.53 262.83 148.33C269.56 148.13 274.5 150.63 276.49 151.78Z" fill="#EBECEA" stroke="black" stroke-linejoin="round"/>
<path d="M276.49 168.76V189.06C275.75 188.65 274.74 188.15 273.5 187.66C272.16 187.13 270.53 186.61 268.66 186.25C267.16 185.95 265.51 185.76 263.73 185.74C263.16 185.73 262.61 185.74 262.06 185.78C259.65 185.89 257.5 186.32 255.67 186.87C253.61 187.48 251.95 188.23 250.74 188.87C250.33 189.08 249.98 189.28 249.68 189.45V168.38C252.13 167.21 257.09 165.25 263.6 165.44C269.59 165.62 274.12 167.54 276.49 168.76Z" fill="#B57F63" stroke="black" stroke-linejoin="round"/>
<path d="M276.49 198.63V189.06" stroke="black" stroke-linejoin="round"/>
<path d="M262.06 185.78C260.88 188.92 259.71 192.05 258.54 195.19" stroke="black" stroke-linejoin="round"/>
<path d="M258.45 195.2C257.53 192.43 256.6 189.65 255.67 186.87C254.69 189.94 253.72 193.01 252.75 196.08C252.08 193.67 251.41 191.27 250.74 188.87C250.39 191.87 250.03 194.87 249.68 197.87V189.45" stroke="black" stroke-linejoin="round"/>
<path d="M262.06 185.77C263.17 188.84 264.28 191.88 265.39 194.93C266.48 192.03 267.57 189.15 268.66 186.25" stroke="black" stroke-linejoin="round"/>
<path d="M268.66 186.24C269.69 189.58 270.73 192.89 271.77 196.21C272.35 193.36 272.92 190.51 273.5 187.66C274.5 191.32 275.49 194.98 276.49 198.63" stroke="black" stroke-linejoin="round"/>
<path d="M258.54 195.19C258.54 195.19 258.48 195.19 258.45 195.2" stroke="black" stroke-linejoin="round"/>
<path d="M276.49 198.63C276.41 200.33 276.32 202.04 276.24 203.74C273.33 202.65 268.83 201.34 263.22 201.18C257.46 201.03 252.8 202.14 249.81 203.1C249.77 201.35 249.73 199.61 249.68 197.87C251.41 197.02 254.45 195.75 258.45 195.2C258.47 195.24 258.48 195.27 258.49 195.31C258.49 195.27 258.52 195.23 258.54 195.19C259.87 195 261.31 194.91 262.83 194.93C269.39 195.04 274.23 197.36 276.49 198.63Z" fill="#4B5658" stroke="black" stroke-linejoin="round"/>
<path d="M278.01 273.57C277.76 272.78 277.55 272.4 277.39 272.42C276.95 272.47 276.83 275.32 277 280.97C276.8 283.33 276.63 285.76 276.49 288.25C276.32 291.37 276.22 294.4 276.18 297.33C274.57 290.48 272.96 283.64 271.35 276.79C270.77 266.61 270.08 263.75 269.47 263.74C268.88 263.72 268.05 266.41 266.92 275.99C265.98 284.02 265.05 292.05 264.11 300.08C263.77 301.19 263.45 302.53 263.26 304.08C263.08 305.48 263.05 306.74 263.09 307.82C263.08 308.03 263.07 308.25 263.06 308.46C261.75 308.18 260.15 307.89 258.24 307.91C256.44 307.93 254.39 308.23 253.14 308.5C253.14 307.97 253.14 307.29 253.13 306.5C253.11 305.07 253.05 303.88 253 303.06C252.19 294.55 251.39 286.04 250.58 277.52C249.96 270.57 249.23 267.08 248.41 267.06C248.09 267.05 247.76 267.55 247.41 268.56C247.29 266.42 247.22 264.13 247.26 261.69C247.29 259.15 247.44 256.76 247.64 254.55C248.36 237.4 249.09 220.25 249.81 203.1C252.8 202.14 257.46 201.03 263.22 201.18C268.83 201.34 273.33 202.65 276.24 203.74C276.79 220.67 277.34 237.61 277.9 254.55C278.17 257.11 278.35 259.88 278.41 262.84C278.48 266.74 278.31 270.33 278.01 273.57Z" fill="#EBECEA" stroke="black" stroke-linejoin="round"/>
<path d="M222.33 462.71C218.84 462.09 215.35 461.47 211.85 460.84C215.34 458.41 218.83 455.97 222.32 453.53C222.28 456.66 222.28 459.73 222.33 462.71Z" fill="#B57F63" stroke="black" stroke-linejoin="round"/>
<path d="M310.92 465.1C307.78 465.43 304.65 465.75 301.51 466.08C301.27 463.24 301.04 460.36 300.83 457.46C304.19 460 307.56 462.55 310.92 465.1Z" fill="#B57F63" stroke="black" stroke-linejoin="round"/>
<path d="M260.36 468.5C259.55 468.58 258.69 468.64 257.81 468.67C257.07 468.7 256.35 468.71 255.65 468.69C254.31 468.69 253.03 468.59 251.83 468.47C251.43 468.43 251.04 468.38 250.66 468.33C250.68 467.37 250.69 466.4 250.7 465.44C251.25 461.09 251.72 456.58 252.11 451.91C252.44 447.88 252.69 443.97 252.87 440.16C253.59 439.92 254.51 439.68 255.6 439.57C257.04 439.42 258.27 439.57 259.16 439.72C259.49 448.21 259.82 456.7 260.15 465.18C260.22 466.29 260.29 467.4 260.36 468.5Z" fill="#B57F63" stroke="black" stroke-linejoin="round"/>
<path d="M263.06 308.46C261.96 335.6 260.86 362.73 259.77 389.87C259.73 390.77 259.68 391.68 259.64 392.59C259.13 398.84 258.77 405.43 258.62 412.33C258.42 421.8 258.63 430.71 259.13 439.01C259.14 439.25 259.15 439.48 259.16 439.72C258.27 439.56 257.04 439.42 255.6 439.57C254.51 439.68 253.59 439.92 252.87 440.16C253.08 425.01 253.28 409.87 253.47 394.72C253.49 393.83 253.5 392.93 253.51 392.04C253.39 364.55 253.26 337.06 253.13 309.57C253.13 309.47 253.14 309.08 253.14 308.5C254.39 308.23 256.44 307.93 258.24 307.91C260.15 307.89 261.75 308.18 263.06 308.46Z" fill="#4B5658" stroke="black" stroke-linejoin="round"/>
<path d="M286.58 459.82C284.76 460.33 282.95 460.84 281.13 461.35C280.95 460.15 280.82 458.58 280.96 456.76C281.1 454.98 281.45 453.48 281.81 452.33C283.4 454.83 284.99 457.33 286.58 459.82Z" fill="#B57F63" stroke="black" stroke-linejoin="round"/>
<path d="M263.56 466.05C262.31 465.78 261.17 465.48 260.15 465.18" stroke="black" stroke-linejoin="round"/>
<path d="M224.61 464.57V464.56" stroke="black" stroke-linejoin="round"/>
<path d="M283.93 464.22C283.89 464.13 283.86 464.04 283.82 463.95" stroke="black" stroke-linejoin="round"/>
<path d="M266.55 463.79C266.51 463.88 266.47 463.96 266.43 464.05" stroke="black" stroke-linejoin="round"/>
<path d="M244.35 465.12C244.33 465.04 244.32 464.96 244.31 464.88" stroke="black" stroke-linejoin="round"/>
<path d="M227.59 464.37C227.56 464.44 227.53 464.52 227.51 464.6" stroke="black" stroke-linejoin="round"/>
<path d="M298.19 467.55C298.15 467.47 298.11 467.39 298.06 467.31" stroke="black" stroke-linejoin="round"/>
<path d="M255.65 468.69C255.6 468.6 255.56 468.52 255.51 468.44" stroke="black" stroke-linejoin="round"/>
<path d="M263.26 308.5C263.19 308.5 263.13 308.47 263.06 308.46" stroke="black" stroke-linejoin="round"/>
<path d="M247.08 465.25V465.24" stroke="black" stroke-linejoin="round"/>
<path d="M310.07 556.59C307.12 567.84 303.84 576.93 301.39 583.14C299.15 574.61 295.23 566.28 294.12 557.62C295.1 554.56 295.94 551.69 296.66 549.03C298.05 553.76 299.75 558.49 301.13 563.23C308.05 533.51 310.12 509.75 309.05 496.76C308.61 491.48 307.8 482.95 302.07 474.63C299.97 471.58 297.28 469.11 295.58 467.62C295.64 467.62 295.71 467.61 295.77 467.61C296.6 467.58 297.41 467.56 298.19 467.55H298.42C300.21 468.74 302.58 470.53 304.96 473.1C311.11 479.73 314.11 488.07 315.59 500.27C316.37 506.68 318.14 525.76 310.07 556.59Z" fill="#E3D91B" stroke="black" stroke-linejoin="round"/>
<path d="M298.42 467.55C298.3 467.46 298.18 467.39 298.06 467.31" stroke="black" stroke-linejoin="round"/>
<path d="M264.92 464.27C263.53 466.05 262.1 468.03 260.7 470.21C258.22 474.06 256.31 477.76 254.83 481.1C253.81 478.24 252.53 475.19 250.93 472.03C251.23 470.84 251.53 469.65 251.83 468.47C253.03 468.59 254.31 468.68 255.65 468.69C256.35 468.71 257.07 468.7 257.81 468.67C258.69 468.64 259.55 468.58 260.36 468.5C260.29 467.4 260.22 466.29 260.15 465.18C261.4 464.89 262.78 464.61 264.27 464.37C264.48 464.34 264.7 464.3 264.92 464.27Z" fill="#E6A900" stroke="black" stroke-linejoin="round"/>
<path d="M251.83 468.47C251.53 469.65 251.23 470.84 250.93 472.03C250.47 471.12 249.98 470.2 249.47 469.27C248.69 467.86 247.89 466.52 247.09 465.25C247.26 465.25 247.42 465.26 247.59 465.27C248.63 465.32 249.67 465.38 250.7 465.44C250.69 466.4 250.68 467.37 250.66 468.33C251.04 468.38 251.43 468.43 251.83 468.47Z" fill="#E3D91B" stroke="black" stroke-linejoin="round"/>
<path d="M297.47 545.95C297.22 546.94 296.95 547.97 296.66 549.03C295.94 551.69 295.1 554.56 294.12 557.61C290.88 567.66 286.1 579.64 278.92 592.59C272.84 581.47 267.01 569.1 261.9 555.44C260.98 552.98 260.08 550.47 259.21 547.92C258.85 546.88 258.5 545.82 258.15 544.76C256.94 541.08 255.83 537.45 254.81 533.88C254 537.66 253.07 541.51 252.02 545.44C251.84 546.13 251.65 546.82 251.46 547.51C250.71 550.21 249.94 552.86 249.13 555.47C245.16 568.25 240.46 579.84 235.51 590.21C226.13 574.83 220.66 561 217.39 550.97C214.64 542.57 206.38 516.52 210.75 494.29C210.75 494.29 213.55 480.04 221.22 470.04C223.05 467.64 225.11 465.64 225.11 465.64C225.52 465.24 225.89 464.9 226.23 464.59C226.65 464.58 227.08 464.59 227.51 464.6C227.96 464.61 228.42 464.61 228.87 464.62C227.75 466.45 226.27 469.07 224.79 472.33C224.79 472.33 220.52 481.76 218.92 493.52C217.37 504.87 221.3 534.88 235.85 572.16C246.97 532.64 251.66 502.39 250.83 491.74C250.17 483.17 247.51 476.16 247.51 476.16C245.74 471.49 243.56 467.77 241.65 465C242.55 465.03 243.46 465.08 244.35 465.12C245.27 465.15 246.18 465.19 247.08 465.25H247.09C247.89 466.52 248.69 467.86 249.47 469.27C249.98 470.2 250.47 471.12 250.93 472.03C252.53 475.19 253.81 478.24 254.83 481.1C256.31 477.76 258.22 474.06 260.7 470.21C262.1 468.03 263.53 466.05 264.92 464.27C265.41 464.19 265.91 464.12 266.43 464.05C267.17 463.95 267.93 463.87 268.72 463.79C267.76 466.04 266.5 469.28 265.3 473.27C265.3 473.27 261.69 485.32 261.39 499.99C261.11 513.59 265.63 540.51 278.75 573.01C280.58 568.34 293.98 533.67 293.55 505.59C293.46 499.82 293.29 489.89 288.87 477.95C286.64 471.91 283.98 467.19 281.91 463.95C282.6 464.03 283.28 464.12 283.93 464.22C284.67 464.33 285.38 464.45 286.07 464.58C287.86 467.02 290.96 470.68 291.77 472.08C299.09 484.77 301.64 499.4 301.64 499.4C304.68 516.83 300.82 532.69 297.47 545.95Z" fill="#E3D91B" stroke="black" stroke-linejoin="round"/>
<path d="M226.24 464.58L226.23 464.59" stroke="black" stroke-linejoin="round"/>
<path d="M235.85 572.16C221.3 534.88 217.37 504.87 218.92 493.52C220.52 481.76 224.79 472.33 224.79 472.33C226.27 469.07 227.75 466.45 228.87 464.62C231.31 464.66 233.78 464.72 236.28 464.8C238.08 464.85 239.87 464.92 241.65 465C243.56 467.77 245.74 471.49 247.51 476.16C247.51 476.16 250.17 483.17 250.83 491.74C251.66 502.39 246.97 532.64 235.85 572.16Z" fill="#E6A900" stroke="black" stroke-linejoin="round"/>
<path d="M278.75 573.01C265.63 540.51 261.11 513.59 261.39 499.99C261.69 485.32 265.3 473.27 265.3 473.27C266.5 469.28 267.76 466.04 268.72 463.79C270.59 463.61 272.59 463.51 274.7 463.52C277.29 463.53 279.7 463.69 281.91 463.95C283.98 467.19 286.64 471.91 288.87 477.95C293.29 489.89 293.46 499.82 293.55 505.59C293.98 533.67 280.58 568.34 278.75 573.01Z" fill="#E6A900" stroke="black" stroke-linejoin="round"/>
<path d="M301.13 563.23C299.75 558.49 298.05 553.76 296.66 549.03C296.95 547.97 297.22 546.94 297.47 545.95C300.82 532.69 304.68 516.83 301.64 499.4C301.64 499.4 299.09 484.77 291.77 472.08C290.96 470.68 287.86 467.02 286.07 464.58C287.11 464.77 288.09 464.98 289 465.19C289.01 465.28 289.02 465.36 289.02 465.45C289.1 466.34 289.18 467.23 289.26 468.12C291.21 467.89 293.32 467.71 295.58 467.62C297.28 469.11 299.97 471.58 302.07 474.63C307.8 482.95 308.61 491.48 309.05 496.76C310.12 509.75 308.05 533.51 301.13 563.23Z" fill="#E6A900" stroke="black" stroke-linejoin="round"/>
<path d="M295.58 467.62C295.45 467.51 295.33 467.41 295.22 467.31" stroke="black" stroke-linejoin="round"/>
</g>
</g>
</g>
<rect x="5" width="515" height="5" fill="#0B0D17"/>
<rect x="5" y="532" width="515" height="5" fill="#0B0D17"/>
<rect x="5" width="537" height="4.99998" transform="rotate(90 5 0)" fill="#0B0D17"/>
<defs>
<clipPath id="clip0_174_16">
<rect width="515" height="527" fill="white" transform="translate(5 5)"/>
</clipPath>
<clipPath id="clip1_174_16">
<rect width="107.82" height="623.09" fill="white" transform="translate(209 -30)"/>
</clipPath>
</defs>
</svg>
