<svg width="515" height="537" viewBox="0 0 515 537" fill="none" xmlns="http://www.w3.org/2000/svg">
<path d="M0 0H515V537H0V0Z" fill="#D0D6F9"/>
<g clip-path="url(#clip0_162_109)">
<mask id="mask0_162_109" style="mask-type:luminance" maskUnits="userSpaceOnUse" x="1" y="-6" width="515" height="542">
<rect x="1" y="-5.07568" width="515" height="541.076" fill="white"/>
</mask>
<g mask="url(#mask0_162_109)">
</g>
<g clip-path="url(#clip1_162_109)">
<path d="M279.2 48.7397V91.1297C274.65 89.1797 267.53 86.7697 258.52 86.2797C247.5 85.6797 238.76 88.2197 233.75 90.1097C233.88 76.1497 234.01 62.1897 234.13 48.2397C238.69 46.2897 247.14 43.3897 258.01 43.7697C267.5 44.0897 274.87 46.7797 279.2 48.7397Z" fill="#D9DBD4" stroke="#231F20" stroke-miterlimit="10"/>
<path d="M279.2 48.74C274.87 46.78 267.5 44.09 258.01 43.77C247.14 43.39 238.69 46.29 234.13 48.24C234.87 40.7 235.61 33.17 236.35 25.64C240.41 23.88 247.54 21.39 256.73 21.3C265.75 21.21 272.82 23.48 276.9 25.13C277.67 33 278.43 40.87 279.2 48.74Z" fill="#D9DBD4" stroke="#231F20" stroke-miterlimit="10"/>
<path d="M276.9 25.1297C272.82 23.4797 265.75 21.2097 256.73 21.2997C247.54 21.3897 240.41 23.8797 236.35 25.6397V-17.2903C236.42 -17.4703 236.49 -17.6403 236.54 -17.8003C237.05 -18.0203 238.31 -18.5703 239.07 -18.8903V-20.0903C243.02 -21.8503 249.28 -23.9203 257.11 -23.7603C266.53 -23.5703 273.48 -20.2503 276.77 -18.4003C276.77 -3.89031 276.9 10.6197 276.9 25.1297Z" fill="#D9DBD4" stroke="#231F20" stroke-miterlimit="10"/>
<path d="M279.2 91.1301C278.33 97.0501 277.47 102.97 276.61 108.89C272.2 107.27 265.48 105.37 257.11 105.17C248.07 104.95 240.78 106.8 236.18 108.36C235.37 102.28 234.56 96.19 233.75 90.11C238.76 88.22 247.5 85.68 258.52 86.28C267.53 86.77 274.65 89.1801 279.2 91.1301Z" fill="#61655B" stroke="#231F20" stroke-miterlimit="10"/>
<path d="M276.61 108.89C276.54 114.03 276.47 119.17 276.4 124.31C272.23 122.72 265.74 120.79 257.62 120.62C248.26 120.42 240.84 122.63 236.43 124.32C236.38 121.3 236.34 118.29 236.29 115.27C238.97 114.92 241.42 114.69 243.58 114.53C247.26 114.27 252.43 113.92 259.16 114.45C264.06 114.83 268.29 115.57 271.67 116.32C271.86 115.98 272.06 115.64 272.26 115.3V111.81C267.02 110.64 262.44 110.14 258.81 109.94C253.63 109.64 249.68 109.9 244.09 110.28C241.26 110.47 238.63 110.7 236.22 110.95C236.21 110.09 236.19 109.22 236.18 108.36C240.78 106.8 248.07 104.95 257.11 105.17C265.48 105.37 272.2 107.27 276.61 108.89Z" fill="#61655B" stroke="#231F20" stroke-miterlimit="10"/>
<path d="M276.4 124.31V178.19C271.82 176.65 264.85 174.87 256.22 174.87C247.59 174.87 241.13 176.53 236.62 178C236.56 160.11 236.5 142.21 236.43 124.32C240.84 122.63 248.26 120.42 257.62 120.62C265.74 120.79 272.23 122.72 276.4 124.31Z" fill="#61655B" stroke="#231F20" stroke-miterlimit="10"/>
<path d="M276.4 178.19C276.28 188.58 276.16 198.97 276.05 209.35C275.12 209.04 274.11 208.73 273.01 208.43C270.82 207.82 268.31 207.25 265.52 206.84C263.09 206.47 260.45 206.22 257.62 206.15C256.95 206.13 256.29 206.13 255.64 206.14C251.9 206.16 248.47 206.52 245.44 207.05C242.81 207.5 240.46 208.08 238.46 208.66C237.81 208.85 237.2 209.03 236.62 209.22V178C241.13 176.53 247.9 174.87 256.22 174.87C264.54 174.87 271.82 176.65 276.4 178.19Z" fill="#E98724" stroke="#231F20" stroke-miterlimit="10"/>
<path d="M236.62 209.22C236.67 213.88 236.71 218.53 236.75 223.19C237.32 218.35 237.89 213.5 238.46 208.66C239.61 213.03 240.77 217.41 241.92 221.79C243.1 216.87 244.27 211.96 245.44 207.05C247.11 211.6 248.79 216.15 250.45 220.71" stroke="#231F20" stroke-linejoin="round"/>
<path d="M250.49 220.71C252.21 215.85 253.93 210.99 255.64 206.14C257.26 210.97 258.87 215.8 260.48 220.63C262.16 216.03 263.84 211.43 265.52 206.84C266.92 211.81 268.31 216.79 269.71 221.77C270.81 217.32 271.91 212.88 273.01 208.43C273.72 213.33 274.44 218.23 275.16 223.13C275.45 218.54 275.75 213.94 276.05 209.35" stroke="#231F20" stroke-linejoin="round"/>
<path d="M250.49 220.71H250.45" stroke="#231F20" stroke-linejoin="round"/>
<path d="M276.35 251.98C271.43 250.64 264.78 249.34 256.86 249.26C248.13 249.16 240.87 250.56 235.67 251.98C236.03 242.38 236.39 232.79 236.75 223.19C240.3 222.18 244.95 221.16 250.45 220.71C250.46 220.73 250.46 220.75 250.47 220.77C250.47 220.75 250.47 220.73 250.49 220.71C252.4 220.56 254.41 220.48 256.52 220.49C257.88 220.49 259.2 220.55 260.48 220.63C266.38 221 271.36 222.06 275.16 223.13C275.55 232.75 275.95 242.36 276.35 251.98Z" fill="#61655B" stroke="#231F20" stroke-linejoin="round"/>
<path d="M232.79 352.64V352.59" stroke="#231F20" stroke-linejoin="round"/>
<path d="M278.89 386.86C276.6 377.13 275.23 368.17 272.94 358.45C272.12 343.97 268.3 341.85 267.43 341.85C266.59 341.82 263.53 343.94 261.92 357.57C260.58 368.99 259.14 377.05 257.8 388.47C257.32 390.05 256.99 395.32 256.72 397.52C256.46 399.51 256.42 401.31 256.47 402.84C256.46 403.14 256.45 403.45 256.43 403.75C255.34 430.86 254.24 457.95 253.14 485.05C252.69 496.32 252.23 507.6 251.78 518.88L242.83 518.93C242.78 507.68 242.73 496.43 242.68 485.17C242.56 458.56 242.43 431.94 242.31 405.33C242.31 405.19 242.32 404.63 242.32 403.81C242.32 403.06 242.32 402.09 242.31 400.96C242.28 398.93 242.19 397.24 242.12 396.07C240.97 383.97 239.83 371.86 238.68 359.74C237.8 349.86 236.76 344.89 235.59 344.86C235.14 344.85 234.67 345.56 234.17 347C233.73 348.29 233.27 350.14 232.79 352.58C233.06 345.17 233.52 324.38 233.79 310.62C233.98 301.15 233.98 297.36 234.13 290.28C234.33 281.12 234.73 268.08 235.67 251.98C240.87 250.56 248.13 249.16 256.86 249.26C264.78 249.34 271.43 250.64 276.35 251.98C276.72 264.95 277.07 277.97 277.37 291.04C277.89 313.32 278.28 335.47 278.57 357.46C278.61 360.46 278.64 363.46 278.68 366.46C278.76 373.27 278.83 380.07 278.89 386.86Z" fill="#61655B" stroke="#231F20" stroke-miterlimit="10"/>
<path d="M278.9 388.47C278.9 387.94 278.89 387.41 278.89 386.88" stroke="#231F20" stroke-miterlimit="10"/>
<path d="M238.68 359.74C238.28 360.38 237.64 361.21 236.67 361.93C234.41 363.63 231.91 363.61 231.06 363.57C231.66 359.11 232.24 355.45 232.79 352.59C233.27 350.14 233.73 348.29 234.17 347C234.67 345.56 235.14 344.85 235.59 344.86C236.76 344.89 237.8 349.86 238.68 359.74Z" fill="#3E403A" stroke="#231F20" stroke-linejoin="round"/>
<path d="M218.98 426.88C217.74 436.47 216.13 448.9 214.22 463.54C212.13 479.66 209.68 498.47 207 519.13C206.97 519.39 206.93 519.65 206.9 519.91" stroke="#231F20" stroke-linejoin="round"/>
<path d="M272.94 358.45C272.42 358.66 268.68 359.21 267.58 359.16C265.56 359.08 262.35 357.95 261.92 357.57C263.53 343.94 266.59 341.82 267.43 341.85C268.3 341.85 272.12 343.97 272.94 358.45Z" fill="#3E403A" stroke="#231F20" stroke-linejoin="round"/>
<path d="M301.87 518.6L287.28 518.68C287.2 517.46 287.11 516.25 287.02 515.03C286.44 506.52 285.81 497.97 285.16 489.4C285.07 487.83 284.98 486.26 284.89 484.7C284.63 480.05 284.35 475.4 284.06 470.75C282.95 446.34 282.98 422.86 280.63 398.53C279.93 395.57 279.6 389.87 278.9 386.92C278.9 386.91 278.89 386.89 278.89 386.88V386.86C278.83 380.07 278.76 373.27 278.68 366.46C278.64 363.46 278.61 360.46 278.57 357.46C279.15 359.98 279.83 363.47 280.63 367.92C281.68 374 282.89 380.24 284.25 386.63C285.06 390.45 285.92 394.21 286.8 397.88C287.08 398.94 287.48 400.51 287.88 402.42C287.88 402.42 288.41 404.92 288.79 407.51C289.21 410.35 292.76 440.29 297.91 484.56C299.15 495.15 300.47 506.55 301.87 518.6Z" fill="#61655B" stroke="#231F20" stroke-linejoin="round"/>
<path d="M256.72 403.81C256.62 403.81 256.54 403.77 256.44 403.75" stroke="#231F20" stroke-linejoin="round"/>
<path d="M218.98 221.94V519.06C217.39 519.07 215.81 519.08 214.22 519.09V220.58C215.81 221.03 217.4 221.48 218.98 221.94Z" fill="#9FB4C5" stroke="#231F20" stroke-linejoin="round"/>
<path d="M196.69 221.26C195.72 248.55 194.76 275.84 193.79 303.13C192.77 306.76 191.75 310.39 190.73 314.02C189.12 371.28 187.51 428.54 185.91 485.8C185.59 496.95 185.28 508.11 184.97 519.26L200.03 519.17C202.35 519.16 204.68 519.14 207 519.13C209.41 519.13 211.81 519.1 214.22 519.09V220.58C208.09 220.58 202.81 221.26 196.69 221.26ZM204.13 231.04C205.82 231.04 207.23 232.2 207.61 233.78C207.68 234.05 207.71 234.33 207.71 234.62C207.71 236.17 206.72 237.49 205.34 237.98C204.96 238.12 204.56 238.19 204.13 238.19C202.16 238.19 200.56 236.59 200.56 234.62C200.56 232.65 202.16 231.04 204.13 231.04ZM203.51 266.75C205.17 266.75 206.57 267.89 206.96 269.43C207.04 269.72 207.08 270.01 207.08 270.32C207.08 271.86 206.11 273.18 204.74 273.68C204.36 273.82 203.94 273.9 203.51 273.9C201.53 273.9 199.93 272.3 199.93 270.32C199.93 268.34 201.53 266.75 203.51 266.75Z" fill="#9FB4C5" stroke="#231F20" stroke-linejoin="round"/>
<path d="M508.52 517.43V537.51C440.4 537.75 372.27 537.99 304.15 538.23C299.03 538.25 293.9 538.27 288.78 538.29C276.33 538.33 263.89 538.38 251.44 538.42C248.51 538.43 245.57 538.44 242.64 538.45C230.04 538.5 217.44 538.54 204.84 538.58C145.73 538.8 86.61 539 27.5 539.21V520.15C28.86 520.14 30.22 520.13 31.58 520.13C42.81 520.06 54.05 520 65.28 519.94C76.5 519.87 87.71 519.81 98.93 519.75C127.61 519.58 156.29 519.42 184.97 519.26L200.03 519.17L207 519.14L214.22 519.09L218.98 519.06C221.02 519.06 223.07 519.04 225.11 519.03H225.27L235.42 518.98L242.83 518.93L251.78 518.88L270.15 518.78L287.28 518.68L301.87 518.6C303.32 518.59 304.78 518.58 306.23 518.58C318.26 518.51 330.29 518.44 342.32 518.37C354.01 518.3 365.69 518.24 377.38 518.17C389.86 518.1 402.34 518.03 414.82 517.96C427.3 517.89 439.79 517.82 452.27 517.75C467.71 517.66 483.14 517.57 498.58 517.49C501.89 517.47 505.21 517.45 508.52 517.43Z" fill="#AB6C4D" stroke="#231F20" stroke-linejoin="round"/>
<path d="M242.83 518.93C240.36 518.93 237.89 518.96 235.42 518.97C232.04 518.99 228.65 519.01 225.27 519.03H225.11C223.07 519.04 221.02 519.05 218.98 519.06V426.88C220.63 414.21 221.62 406.49 221.78 405.15C221.84 404.69 222.04 403.01 222.52 400.79C223.02 398.42 223.76 396.16 223.79 396.07C224.5 393.85 226.35 386.11 231.06 363.57C231.91 363.61 234.41 363.63 236.67 361.93C237.64 361.21 238.28 360.38 238.68 359.74C239.83 371.86 240.97 383.97 242.12 396.07C242.19 397.24 242.28 398.93 242.31 400.96C242.32 402.09 242.32 403.06 242.32 403.81C242.32 404.63 242.31 405.19 242.31 405.33C242.43 431.94 242.56 458.56 242.68 485.17C242.73 496.43 242.78 507.68 242.83 518.93Z" fill="#61655B" stroke="#231F20" stroke-linejoin="round"/>
<path d="M287.28 518.68L270.15 518.78L251.78 518.88C252.23 507.6 252.69 496.32 253.14 485.05C254.24 457.95 255.34 430.86 256.43 403.75C256.45 403.45 256.46 403.14 256.47 402.84C256.42 401.31 256.46 399.51 256.72 397.52C256.99 395.32 257.32 390.05 257.8 388.47C259.14 377.05 260.58 368.99 261.92 357.57C262.35 357.95 265.56 359.08 267.58 359.16C268.68 359.21 272.42 358.66 272.94 358.45C275.23 368.17 276.6 377.13 278.89 386.86V386.88C278.89 386.88 278.9 386.91 278.9 386.92C279.6 389.87 279.93 395.57 280.63 398.53C282.98 422.86 282.95 446.34 284.06 470.75C284.26 475.37 284.51 480.01 284.82 484.7C284.93 486.26 285.04 487.83 285.16 489.4C285.64 497.98 286.39 506.52 287.02 515.03C287.11 516.25 287.2 517.46 287.28 518.68Z" fill="#61655B" stroke="#231F20" stroke-linejoin="round"/>
<path d="M226.09 126.43V126.06" stroke="#231F20" stroke-linejoin="round"/>
<path d="M227.37 126.43V126.1" stroke="#231F20" stroke-linejoin="round"/>
<path d="M227.37 125.98H226.09C226.01 82.0699 225.92 37.8199 225.83 -6.15013C225.82 -10.4801 225.81 -14.8101 225.8 -19.1401C226.22 -18.7601 226.63 -18.3901 227.05 -18.0201C227.06 -15.5401 227.06 -13.0601 227.07 -10.5701V-8.49014C227.1 2.68987 227.12 13.8899 227.15 25.0999V26.4699C227.17 38.0799 227.2 49.7099 227.23 61.3299V62.8199C227.24 65.7999 227.24 68.7899 227.25 71.7699C227.26 78.5699 227.28 85.3699 227.29 92.1599C227.29 92.6699 227.3 93.1599 227.3 93.6599C227.32 104.46 227.34 115.23 227.37 125.98Z" fill="#1A9B75" stroke="#231F20" stroke-linejoin="round"/>
<path d="M226.28 129.62C226.07 129.49 225.85 129.35 225.64 129.21C225.65 128.16 225.66 127.11 225.67 126.06H226.09V125.98C226.01 82.0696 225.92 37.8196 225.83 -6.15039C224.42 -5.99039 223.02 -5.8404 221.61 -5.6904C221.09 10.3396 220.46 23.3496 219.96 32.3396C219.83 34.7396 219.71 36.9296 219.59 38.9496C218.92 50.6096 218.52 56.6496 218.69 66.4896C218.73 68.9696 218.83 73.2396 219.93 88.6696C220.04 90.1696 220.15 91.7696 220.28 93.4896C220.9 101.82 221.77 113 222.94 126.36C223.03 127.42 223.12 128.51 223.22 129.6V129.62H226.28ZM222.77 56.0696C223.57 56.0696 224.21 56.7096 224.21 57.5096C224.21 58.3096 223.57 58.9596 222.77 58.9596C221.97 58.9596 221.32 58.3096 221.32 57.5096C221.32 56.7096 221.97 56.0696 222.77 56.0696ZM220.88 65.4096C220.88 64.6096 221.52 63.9696 222.32 63.9696C223.12 63.9696 223.77 64.6096 223.77 65.4096C223.77 66.2096 223.12 66.8596 222.32 66.8596C221.52 66.8596 220.88 66.2096 220.88 65.4096ZM222.85 75.7196C222.05 75.7196 221.4 75.0696 221.4 74.2696C221.4 73.4696 222.05 72.8296 222.85 72.8296C223.65 72.8296 224.29 73.4796 224.29 74.2696C224.29 75.0596 223.64 75.7196 222.85 75.7196Z" fill="#1A9B75" stroke="#231F20" stroke-linejoin="round"/>
<path d="M223.22 129.62C223.54 129.85 223.86 130.09 224.18 130.32H227.37" stroke="#231F20" stroke-linejoin="round"/>
<path d="M227.07 129.62H226.28" stroke="#231F20" stroke-linejoin="round"/>
<path d="M226.81 126.06V129.17C226.42 129.19 226.03 129.2 225.64 129.21C225.65 128.16 225.66 127.11 225.67 126.06H226.81Z" fill="#1A9B75" stroke="#231F20" stroke-linejoin="round"/>
<path d="M229.9 126.43V129.51C229.44 129.41 228.92 129.32 228.35 129.26C227.79 129.2 227.28 129.17 226.81 129.17V126.06C226.99 126.07 227.18 126.08 227.37 126.1C227.85 126.13 228.35 126.18 228.88 126.26C229.23 126.31 229.57 126.36 229.9 126.43Z" fill="#1A9B75" stroke="#231F20" stroke-linejoin="round"/>
<path d="M233.11 129.02C233.07 129.35 233.08 130.23 233.11 131.49C232.04 130.83 230.97 130.17 229.9 129.51V126.43C230.18 126.62 230.45 126.8 230.73 126.99C231.4 127.45 232.08 127.91 232.75 128.36C232.84 128.4 232.97 128.48 233.05 128.62C233.14 128.79 233.12 128.96 233.11 129.02Z" fill="#1A9B75" stroke="#231F20" stroke-linejoin="round"/>
<path d="M233.11 131.49C232.71 131.71 232.14 131.95 231.43 132.09C231 132.17 230.61 132.19 230.28 132.19C229.31 131.57 228.34 130.95 227.37 130.32C227.01 130.09 226.65 129.86 226.28 129.62C226.07 129.49 225.85 129.35 225.64 129.21C226.03 129.2 226.42 129.19 226.81 129.17C227.28 129.17 227.79 129.2 228.35 129.26C228.92 129.32 229.44 129.41 229.9 129.51C230.97 130.17 232.04 130.83 233.11 131.49Z" fill="#1A9B75" stroke="#231F20" stroke-linejoin="round"/>
<path d="M229.5 -6.74024V26.7898C228.71 26.2198 227.94 25.6598 227.15 25.1098C227.12 13.8898 227.1 2.68977 227.07 -8.49023C227.88 -7.91023 228.69 -7.33024 229.5 -6.74024Z" fill="#1A9B75" stroke="#231F20" stroke-linejoin="round"/>
<path d="M229.5 26.7899V28.1599C228.71 27.5999 227.93 27.0299 227.15 26.4699V25.1099C227.94 25.6599 228.71 26.2199 229.5 26.7899Z" fill="#1A9B75" stroke="#231F20" stroke-linejoin="round"/>
<path d="M229.5 28.1597V63.4297C228.74 62.7197 227.99 62.0297 227.23 61.3297C227.2 49.7097 227.17 38.0797 227.15 26.4697C227.93 27.0297 228.71 27.5997 229.5 28.1597Z" fill="#1A9B75" stroke="#231F20" stroke-linejoin="round"/>
<path d="M229.5 63.4301V73.8701C228.79 73.2301 227.91 72.4101 227.25 71.7801C227.24 68.7901 227.24 65.8001 227.23 62.8201V61.3301C227.99 62.0301 228.74 62.7201 229.5 63.4301Z" fill="#1A9B75" stroke="#231F20" stroke-linejoin="round"/>
<path d="M229.5 73.8698V94.2098C228.8 93.5598 227.94 92.7698 227.29 92.1698C227.29 85.3698 227.26 78.5698 227.25 71.7798C227.91 72.4098 228.79 73.2298 229.5 73.8698Z" fill="#1A9B75" stroke="#231F20" stroke-linejoin="round"/>
<path d="M229.5 94.2099V95.7199C228.82 95.0899 227.93 94.2599 227.3 93.6699C227.3 93.1599 227.29 92.6699 227.29 92.1699C227.94 92.7699 228.8 93.5599 229.5 94.2099Z" fill="#1A9B75" stroke="#231F20" stroke-linejoin="round"/>
<path d="M229.5 111.6V111.52" stroke="#231F20" stroke-linejoin="round"/>
<path d="M229.5 111.52C229.44 111.52 229.39 111.51 229.33 111.51" stroke="#231F20" stroke-linejoin="round"/>
<path d="M230.77 -10.9402V111.6C230.35 111.57 229.92 111.55 229.5 111.52V-6.7402C228.69 -7.3302 227.88 -7.9102 227.07 -8.4902V-10.5002C227.87 -9.9102 228.81 -9.2702 229.58 -8.7002V-11.4502C229.8 -11.2902 230.02 -11.1302 230.24 -10.9702C230.42 -10.9602 230.59 -10.9502 230.77 -10.9402Z" fill="#1A9B75" stroke="#231F20" stroke-linejoin="round"/>
<path d="M230.77 111.89V111.6" stroke="#231F20" stroke-linejoin="round"/>
<path d="M227.15 25.0996H227.14" stroke="#231F20" stroke-linejoin="round"/>
<path d="M227.23 61.3298L227.22 61.3198" stroke="#231F20" stroke-linejoin="round"/>
<path d="M227.15 62.75L229.42 64.86" stroke="#231F20" stroke-linejoin="round"/>
<path d="M227.26 70.2998C228.02 70.9998 228.95 71.8698 229.71 72.5698" stroke="#231F20" stroke-linejoin="round"/>
<path d="M229.71 74.0696C229.64 74.0096 229.57 73.9396 229.5 73.8696" stroke="#231F20" stroke-linejoin="round"/>
<path d="M227.25 71.7697C227.25 71.7697 227.21 71.7397 227.19 71.7197" stroke="#231F20" stroke-linejoin="round"/>
<path d="M229.71 94.3999C229.64 94.3399 229.57 94.27 229.5 94.21" stroke="#231F20" stroke-linejoin="round"/>
<path d="M227.29 92.1598C227.29 92.1598 227.22 92.0998 227.19 92.0698" stroke="#231F20" stroke-linejoin="round"/>
<path d="M229.71 95.9097C229.64 95.8497 229.57 95.7797 229.5 95.7197" stroke="#231F20" stroke-linejoin="round"/>
<path d="M227.3 93.6597C227.24 93.6097 227.17 93.5497 227.11 93.4897" stroke="#231F20" stroke-linejoin="round"/>
<path d="M272.26 111.81V115.3C266.91 114.08 262.25 113.52 258.64 113.26C252.28 112.79 247.39 113.09 243.67 113.34C238.37 113.71 233.95 114.33 230.73 114.87V126.99C230.45 126.8 230.18 126.62 229.9 126.43C229.57 126.36 229.23 126.31 228.88 126.26C228.35 126.18 227.85 126.13 227.37 126.1V125.98C227.34 115.23 227.32 104.46 227.3 93.6699C227.93 94.2599 228.82 95.0899 229.5 95.7199V111.52C229.92 111.55 230.35 111.57 230.77 111.6C232.42 111.38 234.25 111.16 236.22 110.95C238.63 110.7 241.26 110.47 244.09 110.28C249.68 109.9 253.63 109.64 258.81 109.94C262.44 110.14 267.02 110.64 272.26 111.81Z" fill="#1A9B75" stroke="#231F20" stroke-linejoin="round"/>
<path d="M230.73 127.11V126.99" stroke="#231F20" stroke-linejoin="round"/>
<path d="M272.26 115.3C272.06 115.64 271.86 115.98 271.67 116.32C268.29 115.57 264.06 114.83 259.16 114.45C252.43 113.92 247.26 114.27 243.58 114.53C241.42 114.69 238.97 114.92 236.29 115.27C234.53 115.51 232.68 115.8 230.73 116.15V114.87C233.95 114.33 238.37 113.71 243.67 113.34C247.39 113.09 252.28 112.79 258.64 113.26C262.25 113.52 266.91 114.08 272.26 115.3Z" fill="#1A9B75" stroke="#231F20" stroke-linejoin="round"/>
<path d="M223.22 129.6H216.26V126.36H222.94C223.03 127.42 223.12 128.51 223.22 129.6Z" fill="#1A9B75" stroke="#231F20" stroke-linejoin="round"/>
<path d="M223.77 129.6H223.22" stroke="#231F20" stroke-linejoin="round"/>
<path d="M222.96 126.36H222.94" stroke="#231F20" stroke-linejoin="round"/>
<path d="M215.73 -9.84033C215.62 5.28967 215.52 20.4197 215.41 35.5497C212.97 35.6697 210.53 35.7797 208.09 35.8897C209.57 20.7297 211.06 5.55966 212.54 -9.61034C213.6 -9.69034 214.67 -9.76033 215.73 -9.84033Z" fill="#9FB4C5" stroke="#231F20" stroke-linejoin="round"/>
<path d="M208.09 35.8898C205.94 42.2498 203.78 48.5998 201.62 54.9598C200.26 89.3998 198.9 123.84 197.54 158.28C202.98 158.05 208.43 157.82 213.88 157.6C214.39 116.92 214.9 76.2398 215.41 35.5498C212.97 35.6698 210.53 35.7798 208.09 35.8898ZM207.26 147.04C205.92 147.04 204.82 145.95 204.82 144.6C204.82 143.25 205.92 142.16 207.26 142.16C208.6 142.16 209.7 143.26 209.7 144.6C209.7 145.94 208.61 147.04 207.26 147.04ZM207.26 120.9C205.92 120.9 204.82 119.81 204.82 118.46C204.82 117.11 205.92 116.02 207.26 116.02C208.6 116.02 209.7 117.11 209.7 118.46C209.7 119.81 208.61 120.9 207.26 120.9ZM208.09 70.2898C206.74 70.2898 205.65 69.1998 205.65 67.8498C205.65 66.4998 206.74 65.4098 208.09 65.4098C209.44 65.4098 210.53 66.5098 210.53 67.8498C210.53 69.1898 209.44 70.2898 208.09 70.2898Z" fill="#9FB4C5" stroke="#231F20" stroke-linejoin="round"/>
<path d="M218.13 36.92C217.23 36.46 216.32 36.01 215.41 35.55C215.52 20.42 215.62 5.29 215.73 -9.84C216.48 -9.89 217.22 -9.95 217.97 -10C218.02 5.64 218.08 21.28 218.13 36.92Z" fill="#9FB4C5" stroke="#231F20" stroke-linejoin="round"/>
<path d="M216.26 126.36V129.6H219.33C219.21 139.95 219.1 150.31 218.98 160.66C217.28 159.64 215.58 158.62 213.88 157.6C214.39 116.92 214.9 76.2398 215.41 35.5498C216.32 36.0098 217.23 36.4598 218.13 36.9198C218.62 37.5998 219.11 38.2798 219.59 38.9498C218.92 50.6098 218.52 56.6498 218.69 66.4898C218.73 68.9698 218.83 73.2398 219.93 88.6698C219.79 101.23 219.64 113.8 219.5 126.36H216.26Z" fill="#9FB4C5" stroke="#231F20" stroke-linejoin="round"/>
<path d="M213.88 157.6C213.08 163.33 212.27 169.07 211.47 174.81C205.86 175.14 200.25 175.48 194.64 175.81C195.61 169.97 196.57 164.12 197.54 158.28C202.98 158.05 208.43 157.82 213.88 157.6Z" fill="#9FB4C5" stroke="#231F20" stroke-linejoin="round"/>
<path d="M221.37 179.72C218.07 178.09 214.77 176.45 211.47 174.81C212.27 169.07 213.08 163.33 213.88 157.6C215.58 158.62 217.28 159.64 218.98 160.66C219.78 167.02 220.57 173.37 221.37 179.72Z" fill="#9FB4C5" stroke="#231F20" stroke-linejoin="round"/>
<path d="M211.47 174.81C211.42 178.66 211.37 182.51 211.33 186.36C205.59 186.7 199.86 187.04 194.13 187.38C194.3 183.53 194.47 179.67 194.64 175.81C200.25 175.48 205.86 175.14 211.47 174.81Z" fill="#9FB4C5" stroke="#231F20" stroke-linejoin="round"/>
<path d="M221.37 179.72V190.79C218.02 189.32 214.67 187.84 211.33 186.36C211.37 182.51 211.42 178.66 211.47 174.81C214.77 176.45 218.07 178.09 221.37 179.72Z" fill="#9FB4C5" stroke="#231F20" stroke-linejoin="round"/>
<path d="M211.5 216.05C205.77 216.39 200.03 216.73 194.3 217.07C194.25 211.51 194.19 192.94 194.13 187.38C199.86 187.04 205.59 186.7 211.33 186.36C211.38 191.92 211.44 210.49 211.5 216.05Z" fill="#9FB4C5" stroke="#231F20" stroke-linejoin="round"/>
<path d="M221.54 219.12C218.19 218.09 214.84 217.07 211.5 216.05C211.44 210.49 211.38 191.92 211.33 186.36C214.67 187.84 218.02 189.32 221.37 190.79C221.42 195.9 221.48 214.01 221.54 219.12Z" fill="#9FB4C5" stroke="#231F20" stroke-linejoin="round"/>
<path d="M214.22 220.58C208.09 220.58 202.81 221.26 196.69 221.26C196.18 220.09 194.81 218.24 194.3 217.07C200.03 216.73 205.77 216.39 211.5 216.05C212.4 217.56 213.31 219.07 214.22 220.58Z" fill="#9FB4C5" stroke="#231F20" stroke-linejoin="round"/>
<path d="M221.54 219.12C220.69 220.06 219.84 221 218.98 221.94C217.4 221.48 215.81 221.03 214.22 220.58C213.31 219.07 212.4 217.56 211.5 216.05C214.84 217.07 218.19 218.09 221.54 219.12Z" fill="#9FB4C5" stroke="#231F20" stroke-linejoin="round"/>
<path d="M207.61 233.78C207.36 233.85 206.32 234.18 205.67 235.26C204.91 236.51 205.28 237.78 205.34 237.98C204.96 238.12 204.56 238.19 204.13 238.19C202.16 238.19 200.56 236.59 200.56 234.62C200.56 232.65 202.16 231.04 204.13 231.04C205.82 231.04 207.23 232.2 207.61 233.78Z" fill="#556069" stroke="#231F20" stroke-linejoin="round"/>
<path d="M207.71 234.62C207.71 236.17 206.72 237.49 205.34 237.98C205.28 237.78 204.91 236.51 205.67 235.26C206.32 234.18 207.36 233.85 207.61 233.78C207.68 234.05 207.71 234.33 207.71 234.62Z" stroke="#231F20" stroke-linejoin="round"/>
<path d="M206.96 269.43C206.72 269.5 205.68 269.81 205.03 270.87C204.24 272.16 204.67 273.49 204.74 273.68C204.36 273.82 203.94 273.9 203.51 273.9C201.53 273.9 199.93 272.3 199.93 270.32C199.93 268.34 201.53 266.75 203.51 266.75C205.17 266.75 206.57 267.89 206.96 269.43Z" fill="#556069" stroke="#231F20" stroke-linejoin="round"/>
<path d="M207.08 270.32C207.08 271.86 206.11 273.18 204.74 273.68C204.67 273.49 204.24 272.16 205.03 270.87C205.68 269.81 206.72 269.5 206.96 269.43C207.04 269.72 207.08 270.01 207.08 270.32Z" stroke="#231F20" stroke-linejoin="round"/>
<path d="M208.09 70.2897C209.437 70.2897 210.53 69.1972 210.53 67.8497C210.53 66.5021 209.437 65.4097 208.09 65.4097C206.742 65.4097 205.65 66.5021 205.65 67.8497C205.65 69.1972 206.742 70.2897 208.09 70.2897Z" fill="#556069" stroke="#231F20" stroke-linejoin="round"/>
<path d="M207.26 120.9C208.608 120.9 209.7 119.808 209.7 118.46C209.7 117.112 208.608 116.02 207.26 116.02C205.912 116.02 204.82 117.112 204.82 118.46C204.82 119.808 205.912 120.9 207.26 120.9Z" fill="#556069" stroke="#231F20" stroke-linejoin="round"/>
<path d="M207.26 147.04C208.608 147.04 209.7 145.947 209.7 144.6C209.7 143.252 208.608 142.16 207.26 142.16C205.912 142.16 204.82 143.252 204.82 144.6C204.82 145.947 205.912 147.04 207.26 147.04Z" fill="#556069" stroke="#231F20" stroke-linejoin="round"/>
<path d="M224.21 57.5098C224.21 58.3098 223.57 58.9598 222.77 58.9598C221.97 58.9598 221.32 58.3098 221.32 57.5098C221.32 56.7098 221.97 56.0698 222.77 56.0698C223.57 56.0698 224.21 56.7098 224.21 57.5098Z" fill="#12644B" stroke="#231F20" stroke-linejoin="round"/>
<path d="M223.77 65.4097C223.77 66.2097 223.12 66.8597 222.32 66.8597C221.52 66.8597 220.88 66.2097 220.88 65.4097C220.88 64.6097 221.52 63.9697 222.32 63.9697C223.12 63.9697 223.77 64.6097 223.77 65.4097Z" fill="#12644B" stroke="#231F20" stroke-linejoin="round"/>
<path d="M224.29 74.2701C224.29 75.0701 223.64 75.7201 222.85 75.7201C222.06 75.7201 221.4 75.0701 221.4 74.2701C221.4 73.4701 222.05 72.8301 222.85 72.8301C223.65 72.8301 224.29 73.4801 224.29 74.2701Z" fill="#12644B" stroke="#231F20" stroke-linejoin="round"/>
<path d="M541.94 523.21V541.6C530.8 540.23 519.66 538.87 508.52 537.51V517.43C511.67 517.98 514.83 518.52 517.98 519.07C522 519.77 526.03 520.46 530.05 521.15C532.28 521.54 534.5 521.93 536.73 522.31C538.47 522.61 540.2 522.91 541.94 523.21Z" fill="#AB6C4D" stroke="#231F20" stroke-linejoin="round"/>
<path d="M31.5801 520.13V487.13H65.2801V520.13" stroke="#231F20" stroke-linejoin="round"/>
<path d="M65.28 487.13L498.58 482.34V517.49" stroke="#231F20" stroke-miterlimit="10"/>
<path d="M452.27 482.85V517.75" stroke="#231F20" stroke-miterlimit="10"/>
<path d="M414.82 483.27V519.26" stroke="#231F20" stroke-miterlimit="10"/>
<path d="M377.38 483.68V519.26" stroke="#231F20" stroke-miterlimit="10"/>
<path d="M342.32 484.07V519.26" stroke="#231F20" stroke-miterlimit="10"/>
<path d="M306.23 484.47V518.58" stroke="#231F20" stroke-miterlimit="10"/>
<path d="M270.15 484.87V519.26" stroke="#231F20" stroke-miterlimit="10"/>
<path d="M235.42 485.25V518.98" stroke="#231F20" stroke-miterlimit="10"/>
<path d="M200.03 485.25V519.26" stroke="#231F20" stroke-miterlimit="10"/>
<path d="M165.83 485.25V518.98" stroke="#231F20" stroke-miterlimit="10"/>
<path d="M132.62 487.13V519.55" stroke="#231F20" stroke-miterlimit="10"/>
<path d="M98.9299 486.76V520.13" stroke="#231F20" stroke-miterlimit="10"/>
<path d="M498.58 482.34L541.94 494.26" stroke="#231F20" stroke-miterlimit="10"/>
<path d="M504.86 484.07V517.43" stroke="#231F20" stroke-miterlimit="10"/>
<path d="M512.11 486.06V517.75" stroke="#231F20" stroke-miterlimit="10"/>
</g>
</g>
<rect x="5" width="510" height="5" fill="#0B0D17"/>
<rect x="5" y="532" width="510" height="5" fill="#0B0D17"/>
<rect x="5" width="537" height="4.99998" transform="rotate(90 5 0)" fill="#0B0D17"/>
<defs>
<clipPath id="clip0_162_109">
<rect width="515" height="531" fill="white" transform="translate(1 5)"/>
</clipPath>
<clipPath id="clip1_162_109">
<rect width="515.44" height="677.1" fill="white" transform="translate(27 -135)"/>
</clipPath>
</defs>
</svg>
