<svg width="768" height="310" viewBox="0 0 768 310" fill="none" xmlns="http://www.w3.org/2000/svg">
<g clip-path="url(#clip0_170_1241)">
<path d="M0 0H768V310H0V0Z" fill="#D0D6F9"/>
<path d="M0 307H768V310H0V307Z" fill="#0B0D17"/>
<path d="M0 0H768V3H0V0Z" fill="#0B0D17"/>
<mask id="mask0_170_1241" style="mask-type:luminance" maskUnits="userSpaceOnUse" x="0" y="3" width="768" height="304">
<rect y="3" width="768" height="304" fill="white"/>
</mask>
<g mask="url(#mask0_170_1241)">
<path d="M385.447 22.9801C380.584 21.6401 374.012 20.3401 366.184 20.2601C357.556 20.1601 350.38 21.5601 345.241 22.9801C345.597 13.3801 345.952 3.79011 346.308 -5.80989C349.817 -6.81989 354.413 -7.8399 359.849 -8.2899C359.859 -8.2699 359.859 -8.24991 359.868 -8.22991C359.868 -8.24991 359.868 -8.2699 359.888 -8.2899C361.776 -8.4399 363.763 -8.51991 365.848 -8.50991C367.192 -8.50991 368.497 -8.44989 369.762 -8.36989C375.593 -7.99989 380.515 -6.93989 384.271 -5.86989C384.657 3.75011 385.052 13.3601 385.447 22.9801Z" fill="#61655B" stroke="#231F20" stroke-linejoin="round"/>
<path d="M342.395 123.64V123.59" stroke="#231F20" stroke-linejoin="round"/>
<path d="M387.958 157.86C385.695 148.13 384.341 139.17 382.077 129.45C381.267 114.97 377.491 112.85 376.631 112.85C375.801 112.82 372.777 114.94 371.185 128.57C369.861 139.99 368.438 148.05 367.113 159.47C366.639 161.05 366.313 166.32 366.046 168.52C365.789 170.51 365.749 172.31 365.799 173.84C365.789 174.14 365.779 174.45 365.759 174.75C364.682 201.86 363.595 228.95 362.508 256.05C362.063 267.32 361.608 278.6 361.163 289.88L352.318 289.93C352.268 278.68 352.219 267.43 352.169 256.17C352.051 229.56 351.922 202.94 351.804 176.33C351.804 176.19 351.814 175.63 351.814 174.81C351.814 174.06 351.814 173.09 351.804 171.96C351.774 169.93 351.685 168.24 351.616 167.07C350.479 154.97 349.353 142.86 348.216 130.74C347.346 120.86 346.318 115.89 345.162 115.86C344.717 115.85 344.253 116.56 343.758 118C343.324 119.29 342.869 121.14 342.395 123.58C342.661 116.17 343.116 95.3799 343.383 81.6199C343.571 72.1499 343.571 68.3599 343.719 61.2799C343.917 52.1199 344.312 39.0799 345.241 22.9799C350.38 21.5599 357.556 20.1599 366.184 20.2599C374.012 20.3399 380.585 21.6399 385.447 22.9799C385.813 35.9499 386.159 48.9699 386.456 62.0399C386.97 84.3199 387.355 106.47 387.642 128.46C387.681 131.46 387.711 134.46 387.75 137.46C387.829 144.27 387.899 151.07 387.958 157.86Z" fill="#61655B" stroke="#231F20" stroke-miterlimit="10"/>
<path d="M387.968 159.47C387.968 158.94 387.958 158.41 387.958 157.88" stroke="#231F20" stroke-miterlimit="10"/>
<path d="M348.216 130.74C347.821 131.38 347.188 132.21 346.229 132.93C343.996 134.63 341.525 134.61 340.685 134.57C341.278 130.11 341.851 126.45 342.394 123.59C342.869 121.14 343.323 119.29 343.758 118C344.253 116.56 344.717 115.85 345.162 115.86C346.318 115.89 347.346 120.86 348.216 130.74Z" fill="#3E403A" stroke="#231F20" stroke-linejoin="round"/>
<path d="M328.745 197.88C327.519 207.47 325.928 219.9 324.04 234.54C321.975 250.66 319.553 269.47 316.905 290.13C316.875 290.39 316.835 290.65 316.806 290.91" stroke="#231F20" stroke-linejoin="round"/>
<path d="M382.077 129.45C381.563 129.66 377.866 130.21 376.779 130.16C374.783 130.08 371.61 128.95 371.185 128.57C372.776 114.94 375.801 112.82 376.631 112.85C377.491 112.85 381.266 114.97 382.077 129.45Z" fill="#3E403A" stroke="#231F20" stroke-linejoin="round"/>
<path d="M410.67 289.6L396.25 289.68C396.171 288.46 396.082 287.25 395.993 286.03C395.42 277.52 394.797 268.97 394.155 260.4C394.066 258.83 393.977 257.26 393.888 255.7C393.631 251.05 393.354 246.4 393.068 241.75C391.971 217.34 392 193.86 389.678 169.53C388.986 166.57 388.66 160.87 387.968 157.92C387.968 157.91 387.958 157.89 387.958 157.88V157.86C387.899 151.07 387.829 144.27 387.75 137.46C387.711 134.46 387.681 131.46 387.642 128.46C388.215 130.98 388.887 134.47 389.678 138.92C390.715 145 391.911 151.24 393.255 157.63C394.056 161.45 394.906 165.21 395.776 168.88C396.053 169.94 396.448 171.51 396.843 173.42C396.843 173.42 397.367 175.92 397.743 178.51C398.158 181.35 401.666 211.29 406.756 255.56C407.982 266.15 409.287 277.55 410.67 289.6Z" fill="#61655B" stroke="#231F20" stroke-linejoin="round"/>
<path d="M366.049 174.81C365.949 174.81 365.869 174.77 365.769 174.75" stroke="#231F20" stroke-linejoin="round"/>
<path d="M328.745 -7.05991V290.06C327.174 290.07 325.612 290.08 324.041 290.09V-8.41992C325.612 -7.96992 327.184 -7.51991 328.745 -7.05991Z" fill="#9FB4C5" stroke="#231F20" stroke-linejoin="round"/>
<path d="M306.714 -7.7399C305.756 19.5501 304.807 46.8401 303.848 74.1301C302.84 77.7601 301.832 81.3901 300.824 85.0201C299.233 142.28 297.641 199.54 296.06 256.8C295.744 267.95 295.437 279.11 295.131 290.26L310.016 290.17C312.309 290.16 314.611 290.14 316.904 290.13C319.286 290.13 321.658 290.1 324.04 290.09V-8.41992C317.982 -8.41992 312.763 -7.7399 306.714 -7.7399ZM314.068 2.0401C315.738 2.0401 317.132 3.20009 317.507 4.78009C317.577 5.05009 317.606 5.33009 317.606 5.62009C317.606 7.17009 316.628 8.4901 315.264 8.9801C314.888 9.1201 314.493 9.19009 314.068 9.19009C312.121 9.19009 310.539 7.59009 310.539 5.62009C310.539 3.65009 312.121 2.0401 314.068 2.0401ZM313.455 37.7501C315.096 37.7501 316.479 38.8901 316.865 40.4301C316.944 40.7201 316.983 41.0101 316.983 41.3201C316.983 42.8601 316.025 44.1801 314.671 44.6801C314.295 44.8201 313.88 44.9001 313.455 44.9001C311.498 44.9001 309.917 43.3001 309.917 41.3201C309.917 39.3401 311.498 37.7501 313.455 37.7501Z" fill="#9FB4C5" stroke="#231F20" stroke-linejoin="round"/>
<path d="M614.915 288.43V308.51C547.588 308.75 480.251 308.99 412.924 309.23C407.863 309.25 402.793 309.27 397.733 309.29C385.428 309.33 373.132 309.38 360.827 309.42C357.931 309.43 355.026 309.44 352.13 309.45C339.676 309.5 327.223 309.54 314.77 309.58C256.348 309.8 197.916 310 139.494 310.21V291.15C140.838 291.14 142.182 291.13 143.527 291.13C154.626 291.06 165.735 291 176.834 290.94C187.924 290.87 199.003 290.81 210.093 290.75C238.439 290.58 266.785 290.42 295.131 290.26L310.016 290.17L316.905 290.14L324.041 290.09L328.745 290.06C330.761 290.06 332.788 290.04 334.804 290.03H334.962L344.994 289.98L352.318 289.93L361.163 289.88L379.32 289.78L396.25 289.68L410.67 289.6C412.103 289.59 413.546 289.58 414.98 289.58C426.87 289.51 438.759 289.44 450.649 289.37C462.203 289.3 473.747 289.24 485.301 289.17C497.636 289.1 509.971 289.03 522.306 288.96C534.64 288.89 546.985 288.82 559.32 288.75C574.58 288.66 589.83 288.57 605.09 288.49C608.362 288.47 611.643 288.45 614.915 288.43Z" fill="#AB6C4D" stroke="#231F20" stroke-linejoin="round"/>
<path d="M352.318 289.93C349.876 289.93 347.435 289.96 344.994 289.97C341.653 289.99 338.303 290.01 334.962 290.03H334.804C332.788 290.04 330.761 290.05 328.745 290.06V197.88C330.376 185.21 331.354 177.49 331.513 176.15C331.572 175.69 331.77 174.01 332.244 171.79C332.738 169.42 333.469 167.16 333.499 167.07C334.201 164.85 336.029 157.11 340.685 134.57C341.525 134.61 343.996 134.63 346.229 132.93C347.188 132.21 347.82 131.38 348.216 130.74C349.352 142.86 350.479 154.97 351.616 167.07C351.685 168.24 351.774 169.93 351.804 171.96C351.813 173.09 351.813 174.06 351.813 174.81C351.813 175.63 351.804 176.19 351.804 176.33C351.922 202.94 352.051 229.56 352.169 256.17C352.219 267.43 352.268 278.68 352.318 289.93Z" fill="#61655B" stroke="#231F20" stroke-linejoin="round"/>
<path d="M396.25 289.68L379.32 289.78L361.164 289.88C361.608 278.6 362.063 267.32 362.508 256.05C363.595 228.95 364.682 201.86 365.759 174.75C365.779 174.45 365.789 174.14 365.799 173.84C365.75 172.31 365.789 170.51 366.046 168.52C366.313 166.32 366.639 161.05 367.114 159.47C368.438 148.05 369.861 139.99 371.186 128.57C371.611 128.95 374.783 130.08 376.78 130.16C377.867 130.21 381.563 129.66 382.077 129.45C384.341 139.17 385.695 148.13 387.958 157.86V157.88C387.958 157.88 387.968 157.91 387.968 157.92C388.66 160.87 388.986 166.57 389.678 169.53C392 193.86 391.971 217.34 393.068 241.75C393.265 246.37 393.513 251.01 393.819 255.7C393.928 257.26 394.036 258.83 394.155 260.4C394.629 268.98 395.371 277.52 395.993 286.03C396.082 287.25 396.171 288.46 396.25 289.68Z" fill="#61655B" stroke="#231F20" stroke-linejoin="round"/>
<path d="M317.507 4.78003C317.26 4.85003 316.233 5.18004 315.59 6.26004C314.839 7.51004 315.205 8.78004 315.264 8.98004C314.888 9.12004 314.493 9.19003 314.068 9.19003C312.121 9.19003 310.54 7.59003 310.54 5.62003C310.54 3.65003 312.121 2.04004 314.068 2.04004C315.738 2.04004 317.132 3.20003 317.507 4.78003Z" fill="#556069" stroke="#231F20" stroke-linejoin="round"/>
<path d="M317.606 5.61978C317.606 7.16978 316.628 8.4898 315.264 8.9798C315.205 8.7798 314.839 7.5098 315.59 6.2598C316.233 5.1798 317.261 4.84979 317.508 4.77979C317.577 5.04979 317.606 5.32978 317.606 5.61978Z" stroke="#231F20" stroke-linejoin="round"/>
<path d="M316.865 40.43C316.628 40.5 315.6 40.81 314.958 41.87C314.177 43.16 314.602 44.49 314.671 44.68C314.295 44.82 313.88 44.9 313.455 44.9C311.498 44.9 309.917 43.3 309.917 41.32C309.917 39.34 311.498 37.75 313.455 37.75C315.096 37.75 316.48 38.89 316.865 40.43Z" fill="#556069" stroke="#231F20" stroke-linejoin="round"/>
<path d="M316.984 41.3197C316.984 42.8597 316.025 44.1797 314.671 44.6797C314.602 44.4897 314.177 43.1597 314.958 41.8697C315.6 40.8097 316.628 40.4997 316.865 40.4297C316.944 40.7197 316.984 41.0097 316.984 41.3197Z" stroke="#231F20" stroke-linejoin="round"/>
<path d="M647.946 294.21V312.6C636.935 311.23 625.925 309.87 614.915 308.51V288.43C618.028 288.98 621.151 289.52 624.264 290.07C628.238 290.77 632.221 291.46 636.194 292.15C638.398 292.54 640.592 292.93 642.796 293.31C644.516 293.61 646.226 293.91 647.946 294.21Z" fill="#AB6C4D" stroke="#231F20" stroke-linejoin="round"/>
<path d="M143.527 291.13V258.13H176.835V291.13" stroke="#231F20" stroke-linejoin="round"/>
<path d="M176.834 258.13L605.091 253.34V288.49" stroke="#231F20" stroke-miterlimit="10"/>
<path d="M559.319 253.85V288.75" stroke="#231F20" stroke-miterlimit="10"/>
<path d="M522.306 254.27V290.26" stroke="#231F20" stroke-miterlimit="10"/>
<path d="M485.301 254.68V290.26" stroke="#231F20" stroke-miterlimit="10"/>
<path d="M450.649 255.07V290.26" stroke="#231F20" stroke-miterlimit="10"/>
<path d="M414.979 255.47V289.58" stroke="#231F20" stroke-miterlimit="10"/>
<path d="M379.319 255.87V290.26" stroke="#231F20" stroke-miterlimit="10"/>
<path d="M344.994 256.25V289.98" stroke="#231F20" stroke-miterlimit="10"/>
<path d="M310.016 256.25V290.26" stroke="#231F20" stroke-miterlimit="10"/>
<path d="M276.214 256.25V289.98" stroke="#231F20" stroke-miterlimit="10"/>
<path d="M243.391 258.13V290.55" stroke="#231F20" stroke-miterlimit="10"/>
<path d="M210.093 257.76V291.13" stroke="#231F20" stroke-miterlimit="10"/>
<path d="M605.09 253.34L647.946 265.26" stroke="#231F20" stroke-miterlimit="10"/>
<path d="M611.297 255.07V288.43" stroke="#231F20" stroke-miterlimit="10"/>
<path d="M618.463 257.06V288.75" stroke="#231F20" stroke-miterlimit="10"/>
<path d="M624.265 259.3V290.55" stroke="#231F20" stroke-miterlimit="10"/>
<path d="M629.592 260.15V290.55" stroke="#231F20" stroke-miterlimit="10"/>
<path d="M636.194 261.99V292.49" stroke="#231F20" stroke-miterlimit="10"/>
<path d="M642.796 263.82V293.31" stroke="#231F20" stroke-miterlimit="10"/>
</g>
</g>
<defs>
<clipPath id="clip0_170_1241">
<rect width="768" height="310" fill="white"/>
</clipPath>
</defs>
</svg>
