<svg width="1440" height="900" viewBox="0 0 1440 900" fill="none" xmlns="http://www.w3.org/2000/svg">
<g clip-path="url(#clip0_133_2)">
<path d="M1439 0H-1V900H1439V0Z" fill="#D0D6F9"/>
<path d="M1441.5 441.5V900.8H973.5C920.8 669.8 819.2 162.5 818.5 1.80006L1000.4 1.00006V1.80006C1254.5 1 1188.5 1.00002 1441.5 1V441.5Z" fill="#D0D6F9"/>
<path opacity="0.2" d="M1442.6 899V899.2H976.8C924.1 668.2 823.3 159.9 822.6 -0.800049H911V-4.88162e-05C911.7 160.5 1012.2 667.5 1065 899H1442.6Z" fill="#98A7F9"/>
<path opacity="0.2" d="M1437.6 899V899.2H971.8C919.1 668.2 818.3 159.9 817.6 -0.800049H885V-4.88162e-05C885.7 160.5 986.2 667.5 1039 899H1437.6Z" fill="#98A7F9"/>
<path opacity="0.2" d="M1008 899H972.7C920 668.1 819.3 160 818.5 -0.800049H854V-4.88162e-05C854.7 160.5 955.2 667.5 1008 899Z" fill="#98A7F9"/>
<path d="M973 899.2C973 899.1 973 899.1 973 899C920.2 667.5 819.7 160.5 819 9.76324e-05V-0.899902" stroke="#0B0D17" stroke-width="10" stroke-linecap="round"/>
<path fill-rule="evenodd" clip-rule="evenodd" d="M640 83C640 83 640 95 628 95C639.8 95.1 640 107 640 107C640 107 640 95 652 95C640 95 640 83 640 83Z" fill="#0B0D17"/>
<path fill-rule="evenodd" clip-rule="evenodd" d="M343 136C343 136 343 148 331 148C342.8 148.1 343 160 343 160C343 160 343 148 355 148C343 148 343 136 343 136Z" fill="#0B0D17"/>
<path fill-rule="evenodd" clip-rule="evenodd" d="M28 332C28 332 28 344 16 344C27.8 344.1 28 356 28 356C28 356 28 344 40 344C28 344 28 332 28 332Z" fill="#0B0D17"/>
<path fill-rule="evenodd" clip-rule="evenodd" d="M103 112C103 112 103 124 91 124C102.8 124.1 103 136 103 136C103 136 103 124 115 124C103 124 103 112 103 112Z" fill="#0B0D17"/>
<path fill-rule="evenodd" clip-rule="evenodd" d="M357.5 133C357.5 133 357.5 135.5 355 135.5C357.5 135.5 357.5 138 357.5 138C357.5 138 357.5 135.5 360 135.5C357.5 135.5 357.5 133 357.5 133Z" fill="#0B0D17"/>
<path fill-rule="evenodd" clip-rule="evenodd" d="M666.5 107C666.5 107 666.5 109.5 664 109.5C666.5 109.5 666.5 112 666.5 112C666.5 112 666.5 109.5 669 109.5C666.5 109.5 666.5 107 666.5 107Z" fill="#0B0D17"/>
<path fill-rule="evenodd" clip-rule="evenodd" d="M262.5 399C262.5 399 262.5 401.5 260 401.5C262.5 401.5 262.5 404 262.5 404C262.5 404 262.5 401.5 265 401.5C262.5 401.5 262.5 399 262.5 399Z" fill="#0B0D17"/>
<path fill-rule="evenodd" clip-rule="evenodd" d="M220.5 62C220.5 62 220.5 64.5 218 64.5C220.5 64.5 220.5 67 220.5 67C220.5 67 220.5 64.5 223 64.5C220.5 64.5 220.5 62 220.5 62Z" fill="#0B0D17"/>
<path fill-rule="evenodd" clip-rule="evenodd" d="M369.5 387C369.5 387 369.5 389.5 367 389.5C369.5 389.5 369.5 392 369.5 392C369.5 392 369.5 389.5 372 389.5C369.5 389.5 369.5 387 369.5 387Z" fill="#0B0D17"/>
<path fill-rule="evenodd" clip-rule="evenodd" d="M781.5 449C781.5 449 781.5 451.5 779 451.5C781.5 451.5 781.5 454 781.5 454C781.5 454 781.5 451.5 784 451.5C781.5 451.5 781.5 449 781.5 449Z" fill="#0B0D17"/>
<path fill-rule="evenodd" clip-rule="evenodd" d="M654.5 265C654.5 265 654.5 267.5 652 267.5C654.5 267.5 654.5 270 654.5 270C654.5 270 654.5 267.5 657 267.5C654.5 267.5 654.5 265 654.5 265Z" fill="#0B0D17"/>
<path fill-rule="evenodd" clip-rule="evenodd" d="M530.5 223C530.5 223 530.5 225.5 528 225.5C530.5 225.5 530.5 228 530.5 228C530.5 228 530.5 225.5 533 225.5C530.5 225.5 530.5 223 530.5 223Z" fill="#0B0D17"/>
<path fill-rule="evenodd" clip-rule="evenodd" d="M556.5 181C556.5 181 556.5 183.5 554 183.5C556.5 183.5 556.5 186 556.5 186C556.5 186 556.5 183.5 559 183.5C556.5 183.5 556.5 181 556.5 181Z" fill="#0B0D17"/>
<path fill-rule="evenodd" clip-rule="evenodd" d="M403.5 40C403.5 40 403.5 42.5 401 42.5C403.5 42.5 403.5 45 403.5 45C403.5 45 403.5 42.5 406 42.5C403.5 42.5 403.5 40 403.5 40Z" fill="#0B0D17"/>
<path fill-rule="evenodd" clip-rule="evenodd" d="M447.5 691C447.5 691 447.5 693.5 445 693.5C447.5 693.5 447.5 696 447.5 696C447.5 696 447.5 693.5 450 693.5C447.5 693.5 447.5 691 447.5 691Z" fill="#0B0D17"/>
<path fill-rule="evenodd" clip-rule="evenodd" d="M415.5 769C415.5 769 415.5 771.5 413 771.5C415.5 771.5 415.5 774 415.5 774C415.5 774 415.5 771.5 418 771.5C415.5 771.5 415.5 769 415.5 769Z" fill="#0B0D17"/>
<path fill-rule="evenodd" clip-rule="evenodd" d="M352.5 723C352.5 723 352.5 725.5 350 725.5C352.5 725.5 352.5 728 352.5 728C352.5 728 352.5 725.5 355 725.5C352.5 725.5 352.5 723 352.5 723Z" fill="#0B0D17"/>
<path fill-rule="evenodd" clip-rule="evenodd" d="M345.5 700C345.5 700 345.5 702.5 343 702.5C345.5 702.5 345.5 705 345.5 705C345.5 705 345.5 702.5 348 702.5C345.5 702.5 345.5 700 345.5 700Z" fill="#0B0D17"/>
<path fill-rule="evenodd" clip-rule="evenodd" d="M301.5 691C301.5 691 301.5 693.5 299 693.5C301.5 693.5 301.5 696 301.5 696C301.5 696 301.5 693.5 304 693.5C301.5 693.5 301.5 691 301.5 691Z" fill="#0B0D17"/>
<path fill-rule="evenodd" clip-rule="evenodd" d="M185.5 764C185.5 764 185.5 766.5 183 766.5C185.5 766.5 185.5 769 185.5 769C185.5 769 185.5 766.5 188 766.5C185.5 766.5 185.5 764 185.5 764Z" fill="#0B0D17"/>
<path fill-rule="evenodd" clip-rule="evenodd" d="M185.5 617C185.5 617 185.5 619.5 183 619.5C185.5 619.5 185.5 622 185.5 622C185.5 622 185.5 619.5 188 619.5C185.5 619.5 185.5 617 185.5 617Z" fill="#0B0D17"/>
<path fill-rule="evenodd" clip-rule="evenodd" d="M162.5 228C162.5 228 162.5 230.5 160 230.5C162.5 230.5 162.5 233 162.5 233C162.5 233 162.5 230.5 165 230.5C162.5 230.5 162.5 228 162.5 228Z" fill="#0B0D17"/>
<path fill-rule="evenodd" clip-rule="evenodd" d="M681 575C681 575 681 587 669 587C680.8 587.1 681 599 681 599C681 599 681 587 693 587C681 587 681 575 681 575Z" fill="#0B0D17"/>
<path fill-rule="evenodd" clip-rule="evenodd" d="M103 681C103 681 103 693 91 693C102.8 693.1 103 705 103 705C103 705 103 693 115 693C103 693 103 681 103 681Z" fill="#0B0D17"/>
<path fill-rule="evenodd" clip-rule="evenodd" d="M355 803C355 803 355 815 343 815C354.8 815.1 355 827 355 827C355 827 355 815 367 815C355 815 355 803 355 803Z" fill="#0B0D17"/>
<path d="M779 2C771.4 128.8 866 674.7 925 896" stroke="#0B0D17" stroke-width="10" stroke-linecap="round" stroke-linejoin="round" stroke-dasharray="100 100"/>
<path opacity="0.7" d="M1006.7 48C990.4 52.2 978.9 66.5 978.4 82.6C977.8 100.4 990.8 116.6 1009.1 120.2C1078.2 120.2 1147.4 120.2 1216.5 120.2C1232 121.8 1243.7 134.1 1244.4 148.1C1245.2 164.3 1231.3 179.4 1213.1 179.4C1143.9 179.4 1074.8 179.4 1005.6 179.4C980.3 179.6 959.6 200.4 959.5 225.5C959.4 250.9 980.4 272 1006 272C1116.6 272 1227.3 272 1337.9 272C1362.9 270.7 1382.6 250.3 1383.2 226.7C1383.9 201.1 1362.3 178.6 1335.1 178.6C1323.8 178.6 1312.5 178.6 1301.2 178.6C1289.7 178.6 1281 169 1281.6 159C1282.1 150.6 1289.2 143.2 1298.6 142C1339.3 142 1379.9 142 1420.6 142C1444.7 141.7 1464.2 122 1464.4 98.2C1464.6 74 1444.6 53.8 1420.1 53.9C1282.3 51.9 1144.5 49.9 1006.7 48Z" fill="white" stroke="black" stroke-width="3"/>
<g opacity="0.7">
<path d="M1496 545.1C1370.9 545.8 1245.8 546.5 1120.7 547.3C1051 547.4 995.4 489.6 997 423.6C998.6 362.1 1049.6 309.4 1114.3 306.3C1241.5 306.3 1368.7 306.3 1495.9 306.3" fill="white"/>
<path d="M1496 545.1C1370.9 545.8 1245.8 546.5 1120.7 547.3C1051 547.4 995.4 489.6 997 423.6C998.6 362.1 1049.6 309.4 1114.3 306.3C1241.5 306.3 1368.7 306.3 1495.9 306.3" stroke="black" stroke-width="3"/>
</g>
<g opacity="0.7">
<path d="M1441 602.7C1349.6 602.7 1258.1 602.7 1166.7 602.7C1139.3 602.7 1117.3 625.3 1117.7 651.7C1118.1 676.9 1138.9 698.2 1165 699C1200.7 699 1236.4 699 1272.1 699C1275.1 699.4 1283.9 700.8 1291.4 708.1C1296.8 713.3 1299.1 719.1 1300 722.1C1300 744.3 1300 766.6 1300 788.8C1300.1 791.6 1300.9 801.3 1308.6 809.2C1320.4 821.4 1337.5 818.1 1338.7 817.8C1372.8 817.8 1406.9 817.8 1441 817.8" fill="white"/>
<path d="M1441 602.7C1349.6 602.7 1258.1 602.7 1166.7 602.7C1139.3 602.7 1117.3 625.3 1117.7 651.7C1118.1 676.9 1138.9 698.2 1165 699C1200.7 699 1236.4 699 1272.1 699C1275.1 699.4 1283.9 700.8 1291.4 708.1C1296.8 713.3 1299.1 719.1 1300 722.1C1300 744.3 1300 766.6 1300 788.8C1300.1 791.6 1300.9 801.3 1308.6 809.2C1320.4 821.4 1337.5 818.1 1338.7 817.8C1372.8 817.8 1406.9 817.8 1441 817.8" stroke="black" stroke-width="3"/>
</g>
</g>
<defs>
<clipPath id="clip0_133_2">
<rect width="1440" height="900" fill="white"/>
</clipPath>
</defs>
</svg>
