<svg width="375" height="667" viewBox="0 0 375 667" fill="none" xmlns="http://www.w3.org/2000/svg">
<g clip-path="url(#clip0_169_915)">
<rect width="375" height="667" fill="#D0D6F9"/>
<g clip-path="url(#clip1_169_915)">
<path d="M375 737.649L375 77.46L3.05176e-05 77.4599L1.65982e-06 737.649L375 737.649Z" fill="#D0D6F9"/>
<path d="M168.705 687.543L-24.7656 659.559L-7.14103 474.026C92.1477 467.207 309.664 457.837 377.382 467.35L370.868 539.511L370.532 539.462C361.299 640.246 363.785 614.081 354.257 714.38L168.705 687.543Z" fill="#D0D6F9"/>
<path opacity="0.2" d="M-24.0723 660.113L-24.1565 660.1L-6.61618 475.474C92.6643 468.657 310.553 459.667 378.266 469.178L374.937 504.217L374.6 504.168C306.972 494.669 89.6416 503.62 -9.85322 510.446L-24.0723 660.113Z" fill="#98A7F9"/>
<path opacity="0.2" d="M-23.8311 658.04L-23.9153 658.028L-6.37497 473.402C92.9055 466.584 310.794 457.594 378.507 467.105L375.969 493.82L375.632 493.772C308.004 484.272 90.6736 493.223 -8.82123 500.049L-23.8311 658.04Z" fill="#98A7F9"/>
<path opacity="0.2" d="M-3.07884 483.159L-1.76121 470.028C96.2994 463.665 311.514 455.343 378.464 464.268L377.139 477.474L376.806 477.428C309.985 468.484 95.2353 476.794 -3.07884 483.159Z" fill="#98A7F9"/>
<path d="M-1.47143 476.703C-1.43005 476.708 -1.43004 476.708 -1.38866 476.712C96.9698 466.026 311.65 448.897 378.108 456.374L378.48 456.417" stroke="#0B0D17" stroke-width="5" stroke-linecap="round"/>
<path fill-rule="evenodd" clip-rule="evenodd" d="M340.416 311.111C340.416 311.111 335.416 311.111 335.416 306.103C335.374 311.028 330.416 311.111 330.416 311.111C330.416 311.111 335.416 311.111 335.416 316.119C335.416 311.111 340.416 311.111 340.416 311.111Z" fill="#0B0D17"/>
<path fill-rule="evenodd" clip-rule="evenodd" d="M318.333 187.155C318.333 187.155 313.333 187.155 313.333 182.146C313.291 187.071 308.333 187.155 308.333 187.155C308.333 187.155 313.333 187.155 313.333 192.163C313.333 187.155 318.333 187.155 318.333 187.155Z" fill="#0B0D17"/>
<path fill-rule="evenodd" clip-rule="evenodd" d="M236.666 55.6861C236.666 55.6861 231.666 55.6861 231.666 50.6777C231.624 55.6026 226.666 55.6861 226.666 55.6861C226.666 55.6861 231.666 55.6861 231.666 60.6944C231.666 55.6861 236.666 55.6861 236.666 55.6861Z" fill="#0B0D17"/>
<path fill-rule="evenodd" clip-rule="evenodd" d="M328.333 86.9883C328.333 86.9883 323.333 86.9883 323.333 81.98C323.291 86.9048 318.333 86.9883 318.333 86.9883C318.333 86.9883 323.333 86.9883 323.333 91.9966C323.333 86.9883 328.333 86.9883 328.333 86.9883Z" fill="#0B0D17"/>
<path fill-rule="evenodd" clip-rule="evenodd" d="M319.583 193.206C319.583 193.206 318.541 193.206 318.541 192.163C318.541 193.206 317.5 193.206 317.5 193.206C317.5 193.206 318.541 193.206 318.541 194.25C318.541 193.206 319.583 193.206 319.583 193.206Z" fill="#0B0D17"/>
<path fill-rule="evenodd" clip-rule="evenodd" d="M330.416 322.171C330.416 322.171 329.374 322.171 329.374 321.128C329.374 322.171 328.333 322.171 328.333 322.171C328.333 322.171 329.374 322.171 329.374 323.214C329.374 322.171 330.416 322.171 330.416 322.171Z" fill="#0B0D17"/>
<path fill-rule="evenodd" clip-rule="evenodd" d="M208.75 153.557C208.75 153.557 207.708 153.557 207.708 152.514C207.708 153.557 206.667 153.557 206.667 153.557C206.667 153.557 207.708 153.557 207.708 154.601C207.708 153.557 208.75 153.557 208.75 153.557Z" fill="#0B0D17"/>
<path fill-rule="evenodd" clip-rule="evenodd" d="M349.166 136.028C349.166 136.028 348.124 136.028 348.124 134.985C348.124 136.028 347.083 136.028 347.083 136.028C347.083 136.028 348.124 136.028 348.124 137.071C348.124 136.028 349.166 136.028 349.166 136.028Z" fill="#0B0D17"/>
<path fill-rule="evenodd" clip-rule="evenodd" d="M213.75 198.215C213.75 198.215 212.708 198.215 212.708 197.171C212.708 198.215 211.667 198.215 211.667 198.215C211.667 198.215 212.708 198.215 212.708 199.258C212.708 198.215 213.75 198.215 213.75 198.215Z" fill="#0B0D17"/>
<path fill-rule="evenodd" clip-rule="evenodd" d="M187.916 370.168C187.916 370.168 186.874 370.168 186.874 369.124C186.874 370.168 185.833 370.168 185.833 370.168C185.833 370.168 186.874 370.168 186.874 371.211C186.874 370.168 187.916 370.168 187.916 370.168Z" fill="#0B0D17"/>
<path fill-rule="evenodd" clip-rule="evenodd" d="M264.583 317.163C264.583 317.163 263.541 317.163 263.541 316.119C263.541 317.163 262.5 317.163 262.5 317.163C262.5 317.163 263.541 317.163 263.541 318.206C263.541 317.163 264.583 317.163 264.583 317.163Z" fill="#0B0D17"/>
<path fill-rule="evenodd" clip-rule="evenodd" d="M282.083 265.41C282.083 265.41 281.041 265.41 281.041 264.367C281.041 265.41 280 265.41 280 265.41C280 265.41 281.041 265.41 281.041 266.454C281.041 265.41 282.083 265.41 282.083 265.41Z" fill="#0B0D17"/>
<path fill-rule="evenodd" clip-rule="evenodd" d="M299.583 276.261C299.583 276.261 298.541 276.261 298.541 275.218C298.541 276.261 297.5 276.261 297.5 276.261C297.5 276.261 298.541 276.261 298.541 277.305C298.541 276.261 299.583 276.261 299.583 276.261Z" fill="#0B0D17"/>
<path fill-rule="evenodd" clip-rule="evenodd" d="M358.333 212.405C358.333 212.405 357.291 212.405 357.291 211.362C357.291 212.405 356.25 212.405 356.25 212.405C356.25 212.405 357.291 212.405 357.291 213.449C357.291 212.405 358.333 212.405 358.333 212.405Z" fill="#0B0D17"/>
<path fill-rule="evenodd" clip-rule="evenodd" d="M87.083 230.769C87.083 230.769 86.0413 230.769 86.0413 229.726C86.0413 230.769 84.9997 230.769 84.9997 230.769C84.9997 230.769 86.0413 230.769 86.0413 231.812C86.0413 230.769 87.083 230.769 87.083 230.769Z" fill="#0B0D17"/>
<path fill-rule="evenodd" clip-rule="evenodd" d="M54.583 217.414C54.583 217.414 53.5413 217.414 53.5413 216.37C53.5413 217.414 52.4997 217.414 52.4997 217.414C52.4997 217.414 53.5413 217.414 53.5413 218.457C53.5413 217.414 54.583 217.414 54.583 217.414Z" fill="#0B0D17"/>
<path fill-rule="evenodd" clip-rule="evenodd" d="M73.75 191.12C73.75 191.12 72.7083 191.12 72.7083 190.076C72.7083 191.12 71.6667 191.12 71.6667 191.12C71.6667 191.12 72.7083 191.12 72.7083 192.163C72.7083 191.12 73.75 191.12 73.75 191.12Z" fill="#0B0D17"/>
<path fill-rule="evenodd" clip-rule="evenodd" d="M83.333 188.198C83.333 188.198 82.2913 188.198 82.2913 187.155C82.2913 188.198 81.2497 188.198 81.2497 188.198C81.2497 188.198 82.2913 188.198 82.2913 189.242C82.2913 188.198 83.333 188.198 83.333 188.198Z" fill="#0B0D17"/>
<path fill-rule="evenodd" clip-rule="evenodd" d="M87.083 169.834C87.083 169.834 86.0413 169.834 86.0413 168.791C86.0413 169.834 84.9997 169.834 84.9997 169.834C84.9997 169.834 86.0413 169.834 86.0413 170.878C86.0413 169.834 87.083 169.834 87.083 169.834Z" fill="#0B0D17"/>
<path fill-rule="evenodd" clip-rule="evenodd" d="M56.666 121.42C56.666 121.42 55.6243 121.42 55.6243 120.377C55.6243 121.42 54.5827 121.42 54.5827 121.42C54.5827 121.42 55.6243 121.42 55.6243 122.464C55.6243 121.42 56.666 121.42 56.666 121.42Z" fill="#0B0D17"/>
<path fill-rule="evenodd" clip-rule="evenodd" d="M117.916 121.42C117.916 121.42 116.874 121.42 116.874 120.377C116.874 121.42 115.833 121.42 115.833 121.42C115.833 121.42 116.874 121.42 116.874 122.464C116.874 121.42 117.916 121.42 117.916 121.42Z" fill="#0B0D17"/>
<path fill-rule="evenodd" clip-rule="evenodd" d="M280 111.821C280 111.821 278.958 111.821 278.958 110.778C278.958 111.821 277.917 111.821 277.917 111.821C277.917 111.821 278.958 111.821 278.958 112.865C278.958 111.821 280 111.821 280 111.821Z" fill="#0B0D17"/>
<path fill-rule="evenodd" clip-rule="evenodd" d="M135.416 328.223C135.416 328.223 130.416 328.223 130.416 323.215C130.374 328.139 125.416 328.223 125.416 328.223C125.416 328.223 130.416 328.223 130.416 333.231C130.416 328.223 135.416 328.223 135.416 328.223Z" fill="#0B0D17"/>
<path fill-rule="evenodd" clip-rule="evenodd" d="M91.25 86.9883C91.25 86.9883 86.25 86.9883 86.25 81.98C86.2083 86.9048 81.25 86.9883 81.25 86.9883C81.25 86.9883 86.25 86.9883 86.25 91.9966C86.25 86.9883 91.25 86.9883 91.25 86.9883Z" fill="#0B0D17"/>
<path fill-rule="evenodd" clip-rule="evenodd" d="M40.416 192.163C40.416 192.163 35.416 192.163 35.416 187.155C35.3743 192.08 30.416 192.163 30.416 192.163C30.416 192.163 35.416 192.163 35.416 197.171C35.416 192.163 40.416 192.163 40.416 192.163Z" fill="#0B0D17"/>
<path d="M379.213 439.695C327.103 430.409 96.6083 443.21 2.17164 456.959" stroke="#0B0D17" stroke-width="5" stroke-linecap="round" stroke-linejoin="round" stroke-dasharray="50 50"/>
<path opacity="0.7" d="M383.372 526.047C381.622 519.245 375.664 514.445 368.955 514.236C361.539 513.986 354.789 519.411 353.289 527.049C353.289 555.889 353.289 584.77 353.289 613.61C352.622 620.079 347.497 624.962 341.664 625.254C334.914 625.588 328.622 619.787 328.622 612.191C328.622 583.309 328.622 554.47 328.622 525.588C328.539 515.029 319.872 506.39 309.414 506.348C298.83 506.306 290.039 515.071 290.039 525.755C290.039 571.915 290.039 618.117 290.039 664.277C290.58 674.712 299.08 682.933 308.914 683.184C319.58 683.476 328.955 674.461 328.955 663.109C328.955 658.393 328.955 653.676 328.955 648.96C328.955 644.161 332.955 640.53 337.122 640.78C340.622 640.989 343.705 643.952 344.205 647.875C344.205 664.862 344.205 681.807 344.205 698.793C344.33 708.852 352.539 716.99 362.455 717.074C372.539 717.157 380.955 708.81 380.914 698.585C381.747 641.072 382.58 583.56 383.372 526.047Z" fill="white" stroke="black" stroke-width="3"/>
<g opacity="0.7">
<path d="M158.143 716.58C157.851 664.368 157.559 612.156 157.226 559.944C157.184 530.854 181.268 507.649 208.768 508.317C234.393 508.984 256.351 530.27 257.643 557.273C257.643 610.361 257.643 663.45 257.643 716.538" fill="white"/>
<path d="M158.143 716.58C157.851 664.368 157.559 612.156 157.226 559.944C157.184 530.854 181.268 507.649 208.768 508.317C234.393 508.984 256.351 530.27 257.643 557.273C257.643 610.361 257.643 663.45 257.643 716.538" stroke="black" stroke-width="3"/>
</g>
<g opacity="0.7">
<path d="M110.394 668.157C110.394 630.01 110.394 591.822 110.394 553.675C110.394 542.239 100.977 533.057 89.9769 533.224C79.4769 533.391 70.6019 542.072 70.2686 552.965C70.2686 567.865 70.2686 582.765 70.2686 597.665C70.1019 598.917 69.5186 602.59 66.4769 605.72C64.3102 607.974 61.8936 608.933 60.6436 609.309C51.3936 609.309 42.1019 609.309 32.8519 609.309C31.6852 609.351 27.6436 609.685 24.3519 612.898C19.2686 617.823 20.6436 624.96 20.7686 625.461C20.7686 639.693 20.7686 653.925 20.7686 668.157" fill="white"/>
<path d="M110.394 668.157C110.394 630.01 110.394 591.822 110.394 553.675C110.394 542.239 100.977 533.057 89.9769 533.224C79.4769 533.391 70.6019 542.072 70.2686 552.965C70.2686 567.865 70.2686 582.765 70.2686 597.665C70.1019 598.917 69.5186 602.59 66.4769 605.72C64.3102 607.974 61.8936 608.933 60.6436 609.309C51.3936 609.309 42.1019 609.309 32.8519 609.309C31.6852 609.351 27.6436 609.685 24.3519 612.898C19.2686 617.823 20.6436 624.96 20.7686 625.461C20.7686 639.693 20.7686 653.925 20.7686 668.157" stroke="black" stroke-width="3"/>
</g>
</g>
</g>
<defs>
<clipPath id="clip0_169_915">
<rect width="375" height="667" fill="white"/>
</clipPath>
<clipPath id="clip1_169_915">
<rect width="793" height="375" fill="white" transform="translate(375) rotate(90)"/>
</clipPath>
</defs>
</svg>
