<svg width="768" height="1024" viewBox="0 0 768 1024" fill="none" xmlns="http://www.w3.org/2000/svg">
<g clip-path="url(#clip0_169_651)">
<rect width="768" height="1024" fill="#D0D6F9"/>
<g clip-path="url(#clip1_169_651)">
<path d="M768 1024.15L768 0.145996L6.10352e-05 0.145963L1.62747e-05 1024.15L768 1024.15Z" fill="#D0D6F9"/>
<path d="M338.601 1110.1L-50.72 1064.58L-4.45907 667.576C196.555 645.766 636.605 609.86 772.89 625.193L755.587 779.576L754.909 779.497C730.47 995.127 736.994 939.14 711.985 1153.76L338.601 1110.1Z" fill="#D0D6F9"/>
<path opacity="0.2" d="M-49.3035 1065.69L-49.4731 1065.67L-3.42961 670.534C197.584 648.725 638.403 613.596 774.688 628.929L765.949 703.918L765.271 703.839C629.156 688.525 189.469 723.528 -11.9785 745.373L-49.3035 1065.69Z" fill="#98A7F9"/>
<path opacity="0.2" d="M-48.8084 1061.45L-48.978 1061.43L-2.93449 666.293C198.079 644.483 638.898 609.354 775.183 624.687L768.52 681.862L767.842 681.783C631.727 666.469 192.04 701.472 -9.40753 723.317L-48.8084 1061.45Z" fill="#98A7F9"/>
<path opacity="0.2" d="M-6.30616 696.988L-2.81699 667.05C198.102 645.234 638.72 610.177 775.093 625.433L771.584 655.541L770.906 655.462C634.798 640.151 195.132 675.147 -6.30616 696.988Z" fill="#98A7F9"/>
<path d="M-3.01315 667.329C-2.92839 667.339 -2.92838 667.339 -2.84362 667.348C198.595 645.478 638.26 610.423 774.366 625.723L775.128 625.812" stroke="#0B0D17" stroke-width="10" stroke-linecap="round"/>
<path fill-rule="evenodd" clip-rule="evenodd" d="M697.173 426.667C697.173 426.667 686.933 426.667 686.933 416.417C686.848 426.496 676.693 426.667 676.693 426.667C676.693 426.667 686.933 426.667 686.933 436.917C686.933 426.667 697.173 426.667 697.173 426.667Z" fill="#0B0D17"/>
<path fill-rule="evenodd" clip-rule="evenodd" d="M651.947 172.979C651.947 172.979 641.707 172.979 641.707 162.729C641.621 172.808 631.467 172.979 631.467 172.979C631.467 172.979 641.707 172.979 641.707 183.229C641.707 172.979 651.947 172.979 651.947 172.979Z" fill="#0B0D17"/>
<path fill-rule="evenodd" clip-rule="evenodd" d="M654.507 185.364C654.507 185.364 652.374 185.364 652.374 183.229C652.374 185.364 650.24 185.364 650.24 185.364C650.24 185.364 652.374 185.364 652.374 187.5C652.374 185.364 654.507 185.364 654.507 185.364Z" fill="#0B0D17"/>
<path fill-rule="evenodd" clip-rule="evenodd" d="M676.693 449.302C676.693 449.302 674.56 449.302 674.56 447.167C674.56 449.302 672.427 449.302 672.427 449.302C672.427 449.302 674.56 449.302 674.56 451.437C674.56 449.302 676.693 449.302 676.693 449.302Z" fill="#0B0D17"/>
<path fill-rule="evenodd" clip-rule="evenodd" d="M427.52 104.219C427.52 104.219 425.387 104.219 425.387 102.083C425.387 104.219 423.253 104.219 423.253 104.219C423.253 104.219 425.387 104.219 425.387 106.354C425.387 104.219 427.52 104.219 427.52 104.219Z" fill="#0B0D17"/>
<path fill-rule="evenodd" clip-rule="evenodd" d="M715.093 68.3434C715.093 68.3434 712.96 68.3434 712.96 66.208C712.96 68.3434 710.827 68.3434 710.827 68.3434C710.827 68.3434 712.96 68.3434 712.96 70.4788C712.96 68.3434 715.093 68.3434 715.093 68.3434Z" fill="#0B0D17"/>
<path fill-rule="evenodd" clip-rule="evenodd" d="M437.76 195.614C437.76 195.614 435.627 195.614 435.627 193.479C435.627 195.614 433.494 195.614 433.494 195.614C433.494 195.614 435.627 195.614 435.627 197.75C435.627 195.614 437.76 195.614 437.76 195.614Z" fill="#0B0D17"/>
<path fill-rule="evenodd" clip-rule="evenodd" d="M384.854 547.531C384.854 547.531 382.72 547.531 382.72 545.396C382.72 547.531 380.587 547.531 380.587 547.531C380.587 547.531 382.72 547.531 382.72 549.667C382.72 547.531 384.854 547.531 384.854 547.531Z" fill="#0B0D17"/>
<path fill-rule="evenodd" clip-rule="evenodd" d="M541.867 439.052C541.867 439.052 539.733 439.052 539.733 436.917C539.733 439.052 537.6 439.052 537.6 439.052C537.6 439.052 539.733 439.052 539.733 441.187C539.733 439.052 541.867 439.052 541.867 439.052Z" fill="#0B0D17"/>
<path fill-rule="evenodd" clip-rule="evenodd" d="M577.707 333.135C577.707 333.135 575.573 333.135 575.573 331C575.573 333.135 573.44 333.135 573.44 333.135C573.44 333.135 575.573 333.135 575.573 335.271C575.573 333.135 577.707 333.135 577.707 333.135Z" fill="#0B0D17"/>
<path fill-rule="evenodd" clip-rule="evenodd" d="M613.547 355.344C613.547 355.344 611.414 355.344 611.414 353.208C611.414 355.344 609.28 355.344 609.28 355.344C609.28 355.344 611.414 355.344 611.414 357.479C611.414 355.344 613.547 355.344 613.547 355.344Z" fill="#0B0D17"/>
<path fill-rule="evenodd" clip-rule="evenodd" d="M733.867 224.656C733.867 224.656 731.733 224.656 731.733 222.521C731.733 224.656 729.6 224.656 729.6 224.656C729.6 224.656 731.733 224.656 731.733 226.792C731.733 224.656 733.867 224.656 733.867 224.656Z" fill="#0B0D17"/>
<path fill-rule="evenodd" clip-rule="evenodd" d="M178.347 262.239C178.347 262.239 176.213 262.239 176.213 260.104C176.213 262.239 174.08 262.239 174.08 262.239C174.08 262.239 176.213 262.239 176.213 264.375C176.213 262.239 178.347 262.239 178.347 262.239Z" fill="#0B0D17"/>
<path fill-rule="evenodd" clip-rule="evenodd" d="M111.787 234.906C111.787 234.906 109.653 234.906 109.653 232.771C109.653 234.906 107.52 234.906 107.52 234.906C107.52 234.906 109.653 234.906 109.653 237.042C109.653 234.906 111.787 234.906 111.787 234.906Z" fill="#0B0D17"/>
<path fill-rule="evenodd" clip-rule="evenodd" d="M151.04 181.094C151.04 181.094 148.907 181.094 148.907 178.958C148.907 181.094 146.773 181.094 146.773 181.094C146.773 181.094 148.907 181.094 148.907 183.229C148.907 181.094 151.04 181.094 151.04 181.094Z" fill="#0B0D17"/>
<path fill-rule="evenodd" clip-rule="evenodd" d="M170.667 175.114C170.667 175.114 168.533 175.114 168.533 172.979C168.533 175.114 166.4 175.114 166.4 175.114C166.4 175.114 168.533 175.114 168.533 177.25C168.533 175.114 170.667 175.114 170.667 175.114Z" fill="#0B0D17"/>
<path fill-rule="evenodd" clip-rule="evenodd" d="M178.347 137.531C178.347 137.531 176.213 137.531 176.213 135.396C176.213 137.531 174.08 137.531 174.08 137.531C174.08 137.531 176.213 137.531 176.213 139.667C176.213 137.531 178.347 137.531 178.347 137.531Z" fill="#0B0D17"/>
<path fill-rule="evenodd" clip-rule="evenodd" d="M116.053 38.4479C116.053 38.4479 113.92 38.4479 113.92 36.3125C113.92 38.4479 111.787 38.4479 111.787 38.4479C111.787 38.4479 113.92 38.4479 113.92 40.5833C113.92 38.4479 116.053 38.4479 116.053 38.4479Z" fill="#0B0D17"/>
<path fill-rule="evenodd" clip-rule="evenodd" d="M241.493 38.4479C241.493 38.4479 239.36 38.4479 239.36 36.3125C239.36 38.4479 237.226 38.4479 237.226 38.4479C237.226 38.4479 239.36 38.4479 239.36 40.5833C239.36 38.4479 241.493 38.4479 241.493 38.4479Z" fill="#0B0D17"/>
<path fill-rule="evenodd" clip-rule="evenodd" d="M573.44 18.8019C573.44 18.8019 571.307 18.8019 571.307 16.6665C571.307 18.8019 569.173 18.8019 569.173 18.8019C569.173 18.8019 571.307 18.8019 571.307 20.9373C571.307 18.8019 573.44 18.8019 573.44 18.8019Z" fill="#0B0D17"/>
<path fill-rule="evenodd" clip-rule="evenodd" d="M277.333 461.687C277.333 461.687 267.093 461.687 267.093 451.437C267.008 461.516 256.853 461.687 256.853 461.687C256.853 461.687 267.093 461.687 267.093 471.937C267.093 461.687 277.333 461.687 277.333 461.687Z" fill="#0B0D17"/>
<path fill-rule="evenodd" clip-rule="evenodd" d="M82.7734 183.229C82.7734 183.229 72.5334 183.229 72.5334 172.979C72.4481 183.058 62.2934 183.229 62.2934 183.229C62.2934 183.229 72.5334 183.229 72.5334 193.479C72.5334 183.229 82.7734 183.229 82.7734 183.229Z" fill="#0B0D17"/>
<path d="M776.628 591.589C669.907 572.584 197.855 598.782 4.44846 626.922" stroke="#0B0D17" stroke-width="10" stroke-linecap="round" stroke-linejoin="round" stroke-dasharray="100 100"/>
<path opacity="0.7" d="M785.146 768.317C781.562 754.394 769.36 744.571 755.621 744.144C740.432 743.632 726.608 754.736 723.536 770.367C723.536 829.39 723.536 888.498 723.536 947.521C722.17 960.761 711.674 970.754 699.728 971.352C685.904 972.036 673.018 960.163 673.018 944.617C673.019 885.509 673.019 826.486 673.019 767.377C672.848 745.767 655.099 728.086 633.68 728C612.005 727.915 594 745.852 594 767.719C594 862.19 594 956.746 594 1051.22C595.109 1072.57 612.517 1089.4 632.656 1089.91C654.501 1090.51 673.701 1072.06 673.701 1048.83C673.701 1039.17 673.701 1029.52 673.701 1019.87C673.701 1010.05 681.893 1002.61 690.426 1003.13C697.594 1003.55 703.909 1009.62 704.933 1017.65C704.933 1052.41 704.933 1087.09 704.933 1121.86C705.189 1142.44 722 1159.1 742.309 1159.27C762.96 1159.44 780.197 1142.36 780.112 1121.43C781.818 1003.73 783.525 886.021 785.146 768.317Z" fill="white" stroke="black" stroke-width="3"/>
<g opacity="0.7">
<path d="M323.877 1158.26C323.28 1051.4 322.683 944.545 322 837.689C321.915 778.154 371.237 730.662 427.557 732.029C480.037 733.395 525.008 776.958 527.653 832.223C527.653 940.873 527.653 1049.52 527.653 1158.17" fill="white"/>
<path d="M323.877 1158.26C323.28 1051.4 322.683 944.545 322 837.689C321.915 778.154 371.237 730.662 427.557 732.029C480.037 733.395 525.008 776.958 527.653 832.223C527.653 940.873 527.653 1049.52 527.653 1158.17" stroke="black" stroke-width="3"/>
</g>
<g opacity="0.7">
<path d="M226.087 1059.16C226.087 981.086 226.087 902.93 226.087 824.859C226.087 801.455 206.802 782.663 184.274 783.005C162.77 783.346 144.594 801.113 143.911 823.407C143.911 853.9 143.911 884.394 143.911 914.888C143.57 917.45 142.375 924.967 136.146 931.373C131.708 935.986 126.759 937.95 124.199 938.719C105.255 938.719 86.2256 938.719 67.2816 938.719C64.8923 938.805 56.6149 939.488 49.8736 946.065C39.4629 956.144 42.2789 970.75 42.5349 971.775C42.5349 1000.9 42.5349 1030.03 42.5349 1059.16" fill="white"/>
<path d="M226.087 1059.16C226.087 981.086 226.087 902.93 226.087 824.859C226.087 801.455 206.802 782.663 184.274 783.005C162.77 783.346 144.594 801.113 143.911 823.407C143.911 853.9 143.911 884.394 143.911 914.888C143.57 917.45 142.375 924.967 136.146 931.373C131.708 935.986 126.759 937.95 124.199 938.719C105.255 938.719 86.2256 938.719 67.2816 938.719C64.8923 938.805 56.6149 939.488 49.8736 946.065C39.4629 956.144 42.2789 970.75 42.5349 971.775C42.5349 1000.9 42.5349 1030.03 42.5349 1059.16" stroke="black" stroke-width="3"/>
</g>
</g>
</g>
<defs>
<clipPath id="clip0_169_651">
<rect width="768" height="1024" fill="white"/>
</clipPath>
<clipPath id="clip1_169_651">
<rect width="1230" height="768" fill="white" transform="translate(768 -120) rotate(90)"/>
</clipPath>
</defs>
</svg>
