<svg width="1440" height="900" viewBox="0 0 1440 900" fill="none" xmlns="http://www.w3.org/2000/svg">
<path d="M1440 0H0V900H1440V0Z" fill="#D0D6F9"/>
<path fill-rule="evenodd" clip-rule="evenodd" d="M621.5 53C621.5 53 621.5 60.5 614 60.5C621.375 60.5625 621.5 68 621.5 68C621.5 68 621.5 60.5 629 60.5C621.5 60.5 621.5 53 621.5 53Z" fill="#0B0D17"/>
<path fill-rule="evenodd" clip-rule="evenodd" d="M339.5 136C339.5 136 339.5 143.5 332 143.5C339.375 143.562 339.5 151 339.5 151C339.5 151 339.5 143.5 347 143.5C339.5 143.5 339.5 136 339.5 136Z" fill="#0B0D17"/>
<path fill-rule="evenodd" clip-rule="evenodd" d="M24.5 332C24.5 332 24.5 339.5 17 339.5C24.375 339.562 24.5 347 24.5 347C24.5 347 24.5 339.5 32 339.5C24.5 339.5 24.5 332 24.5 332Z" fill="#0B0D17"/>
<path fill-rule="evenodd" clip-rule="evenodd" d="M99.5 112C99.5 112 99.5 119.5 92 119.5C99.375 119.562 99.5 127 99.5 127C99.5 127 99.5 119.5 107 119.5C99.5 119.5 99.5 112 99.5 112Z" fill="#0B0D17"/>
<path fill-rule="evenodd" clip-rule="evenodd" d="M358.5 133C358.5 133 358.5 135.5 356 135.5C358.5 135.5 358.5 138 358.5 138C358.5 138 358.5 135.5 361 135.5C358.5 135.5 358.5 133 358.5 133Z" fill="#0B0D17"/>
<path fill-rule="evenodd" clip-rule="evenodd" d="M652.5 77C652.5 77 652.5 79.5 650 79.5C652.5 79.5 652.5 82 652.5 82C652.5 82 652.5 79.5 655 79.5C652.5 79.5 652.5 77 652.5 77Z" fill="#0B0D17"/>
<path fill-rule="evenodd" clip-rule="evenodd" d="M60.5 569C60.5 569 60.5 571.5 58 571.5C60.5 571.5 60.5 574 60.5 574C60.5 574 60.5 571.5 63 571.5C60.5 571.5 60.5 569 60.5 569Z" fill="#0B0D17"/>
<path fill-rule="evenodd" clip-rule="evenodd" d="M99.5 486C99.5 486 99.5 488.5 97 488.5C99.5 488.5 99.5 491 99.5 491C99.5 491 99.5 488.5 102 488.5C99.5 488.5 99.5 486 99.5 486Z" fill="#0B0D17"/>
<path fill-rule="evenodd" clip-rule="evenodd" d="M158.5 455C158.5 455 158.5 457.5 156 457.5C158.5 457.5 158.5 460 158.5 460C158.5 460 158.5 457.5 161 457.5C158.5 457.5 158.5 455 158.5 455Z" fill="#0B0D17"/>
<path fill-rule="evenodd" clip-rule="evenodd" d="M745.5 227C745.5 227 745.5 229.5 743 229.5C745.5 229.5 745.5 232 745.5 232C745.5 232 745.5 229.5 748 229.5C745.5 229.5 745.5 227 745.5 227Z" fill="#0B0D17"/>
<path fill-rule="evenodd" clip-rule="evenodd" d="M657.5 208C657.5 208 657.5 210.5 655 210.5C657.5 210.5 657.5 213 657.5 213C657.5 213 657.5 210.5 660 210.5C657.5 210.5 657.5 208 657.5 208Z" fill="#0B0D17"/>
<path fill-rule="evenodd" clip-rule="evenodd" d="M221.5 62C221.5 62 221.5 64.5 219 64.5C221.5 64.5 221.5 67 221.5 67C221.5 67 221.5 64.5 224 64.5C221.5 64.5 221.5 62 221.5 62Z" fill="#0B0D17"/>
<path fill-rule="evenodd" clip-rule="evenodd" d="M263.5 380C263.5 380 263.5 382.5 261 382.5C263.5 382.5 263.5 385 263.5 385C263.5 385 263.5 382.5 266 382.5C263.5 382.5 263.5 380 263.5 380Z" fill="#0B0D17"/>
<path fill-rule="evenodd" clip-rule="evenodd" d="M71.5 620C71.5 620 71.5 622.5 69 622.5C71.5 622.5 71.5 625 71.5 625C71.5 625 71.5 622.5 74 622.5C71.5 622.5 71.5 620 71.5 620Z" fill="#0B0D17"/>
<path fill-rule="evenodd" clip-rule="evenodd" d="M178.5 383C178.5 383 178.5 385.5 176 385.5C178.5 385.5 178.5 388 178.5 388C178.5 388 178.5 385.5 181 385.5C178.5 385.5 178.5 383 178.5 383Z" fill="#0B0D17"/>
<path fill-rule="evenodd" clip-rule="evenodd" d="M937.5 122C937.5 122 937.5 124.5 935 124.5C937.5 124.5 937.5 127 937.5 127C937.5 127 937.5 124.5 940 124.5C937.5 124.5 937.5 122 937.5 122Z" fill="#0B0D17"/>
<path fill-rule="evenodd" clip-rule="evenodd" d="M1276.5 347C1276.5 347 1276.5 349.5 1274 349.5C1276.5 349.5 1276.5 352 1276.5 352C1276.5 352 1276.5 349.5 1279 349.5C1276.5 349.5 1276.5 347 1276.5 347Z" fill="#0B0D17"/>
<path fill-rule="evenodd" clip-rule="evenodd" d="M723.5 124C723.5 124 723.5 126.5 721 126.5C723.5 126.5 723.5 129 723.5 129C723.5 129 723.5 126.5 726 126.5C723.5 126.5 723.5 124 723.5 124Z" fill="#0B0D17"/>
<path fill-rule="evenodd" clip-rule="evenodd" d="M908.5 428C908.5 428 908.5 430.5 906 430.5C908.5 430.5 908.5 433 908.5 433C908.5 433 908.5 430.5 911 430.5C908.5 430.5 908.5 428 908.5 428Z" fill="#0B0D17"/>
<path fill-rule="evenodd" clip-rule="evenodd" d="M641.5 396C641.5 396 641.5 398.5 639 398.5C641.5 398.5 641.5 401 641.5 401C641.5 401 641.5 398.5 644 398.5C641.5 398.5 641.5 396 641.5 396Z" fill="#0B0D17"/>
<path fill-rule="evenodd" clip-rule="evenodd" d="M517.5 354C517.5 354 517.5 356.5 515 356.5C517.5 356.5 517.5 359 517.5 359C517.5 359 517.5 356.5 520 356.5C517.5 356.5 517.5 354 517.5 354Z" fill="#0B0D17"/>
<path fill-rule="evenodd" clip-rule="evenodd" d="M557.5 181C557.5 181 557.5 183.5 555 183.5C557.5 183.5 557.5 186 557.5 186C557.5 186 557.5 183.5 560 183.5C557.5 183.5 557.5 181 557.5 181Z" fill="#0B0D17"/>
<path fill-rule="evenodd" clip-rule="evenodd" d="M404.5 40C404.5 40 404.5 42.5 402 42.5C404.5 42.5 404.5 45 404.5 45C404.5 45 404.5 42.5 407 42.5C404.5 42.5 404.5 40 404.5 40Z" fill="#0B0D17"/>
<path fill-rule="evenodd" clip-rule="evenodd" d="M728.5 265C728.5 265 728.5 267.5 731 267.5C728.5 267.5 728.5 270 728.5 270C728.5 270 728.5 267.5 726 267.5C728.5 267.5 728.5 265 728.5 265Z" fill="#0B0D17"/>
<path fill-rule="evenodd" clip-rule="evenodd" d="M705.5 402C705.5 402 705.5 404.5 708 404.5C705.5 404.5 705.5 407 705.5 407C705.5 407 705.5 404.5 703 404.5C705.5 404.5 705.5 402 705.5 402Z" fill="#0B0D17"/>
<path fill-rule="evenodd" clip-rule="evenodd" d="M908.5 204C908.5 204 908.5 206.5 911 206.5C908.5 206.5 908.5 209 908.5 209C908.5 209 908.5 206.5 906 206.5C908.5 206.5 908.5 204 908.5 204Z" fill="#0B0D17"/>
<path fill-rule="evenodd" clip-rule="evenodd" d="M1247.5 429C1247.5 429 1247.5 431.5 1250 431.5C1247.5 431.5 1247.5 434 1247.5 434C1247.5 434 1247.5 431.5 1245 431.5C1247.5 431.5 1247.5 429 1247.5 429Z" fill="#0B0D17"/>
<path fill-rule="evenodd" clip-rule="evenodd" d="M1347.5 486C1347.5 486 1347.5 488.5 1350 488.5C1347.5 488.5 1347.5 491 1347.5 491C1347.5 491 1347.5 488.5 1345 488.5C1347.5 488.5 1347.5 486 1347.5 486Z" fill="#0B0D17"/>
<path fill-rule="evenodd" clip-rule="evenodd" d="M915.5 181C915.5 181 915.5 183.5 918 183.5C915.5 183.5 915.5 186 915.5 186C915.5 186 915.5 183.5 913 183.5C915.5 183.5 915.5 181 915.5 181Z" fill="#0B0D17"/>
<path fill-rule="evenodd" clip-rule="evenodd" d="M1254.5 406C1254.5 406 1254.5 408.5 1257 408.5C1254.5 408.5 1254.5 411 1254.5 411C1254.5 411 1254.5 408.5 1252 408.5C1254.5 408.5 1254.5 406 1254.5 406Z" fill="#0B0D17"/>
<path fill-rule="evenodd" clip-rule="evenodd" d="M1354.5 463C1354.5 463 1354.5 465.5 1357 465.5C1354.5 465.5 1354.5 468 1354.5 468C1354.5 468 1354.5 465.5 1352 465.5C1354.5 465.5 1354.5 463 1354.5 463Z" fill="#0B0D17"/>
<path fill-rule="evenodd" clip-rule="evenodd" d="M959.5 172C959.5 172 959.5 174.5 962 174.5C959.5 174.5 959.5 177 959.5 177C959.5 177 959.5 174.5 957 174.5C959.5 174.5 959.5 172 959.5 172Z" fill="#0B0D17"/>
<path fill-rule="evenodd" clip-rule="evenodd" d="M1298.5 397C1298.5 397 1298.5 399.5 1301 399.5C1298.5 399.5 1298.5 402 1298.5 402C1298.5 402 1298.5 399.5 1296 399.5C1298.5 399.5 1298.5 397 1298.5 397Z" fill="#0B0D17"/>
<path fill-rule="evenodd" clip-rule="evenodd" d="M1075.5 245C1075.5 245 1075.5 247.5 1078 247.5C1075.5 247.5 1075.5 250 1075.5 250C1075.5 250 1075.5 247.5 1073 247.5C1075.5 247.5 1075.5 245 1075.5 245Z" fill="#0B0D17"/>
<path fill-rule="evenodd" clip-rule="evenodd" d="M1075.5 98C1075.5 98 1075.5 100.5 1078 100.5C1075.5 100.5 1075.5 103 1075.5 103C1075.5 103 1075.5 100.5 1073 100.5C1075.5 100.5 1075.5 98 1075.5 98Z" fill="#0B0D17"/>
<path fill-rule="evenodd" clip-rule="evenodd" d="M163.5 228C163.5 228 163.5 230.5 161 230.5C163.5 230.5 163.5 233 163.5 233C163.5 233 163.5 230.5 166 230.5C163.5 230.5 163.5 228 163.5 228Z" fill="#0B0D17"/>
<path fill-rule="evenodd" clip-rule="evenodd" d="M517.5 401C517.5 401 517.5 408.5 510 408.5C517.375 408.562 517.5 416 517.5 416C517.5 416 517.5 408.5 525 408.5C517.5 408.5 517.5 401 517.5 401Z" fill="#0B0D17"/>
<path fill-rule="evenodd" clip-rule="evenodd" d="M1162.5 162C1162.5 162 1162.5 169.5 1170 169.5C1162.62 169.562 1162.5 177 1162.5 177C1162.5 177 1162.5 169.5 1155 169.5C1162.5 169.5 1162.5 162 1162.5 162Z" fill="#0B0D17"/>
<path fill-rule="evenodd" clip-rule="evenodd" d="M1404.5 247C1404.5 247 1404.5 254.5 1412 254.5C1404.62 254.562 1404.5 262 1404.5 262C1404.5 262 1404.5 254.5 1397 254.5C1404.5 254.5 1404.5 247 1404.5 247Z" fill="#0B0D17"/>
</svg>
