<svg width="451" height="451" viewBox="0 0 451 451" fill="none" xmlns="http://www.w3.org/2000/svg">
<path d="M395.15 81.6491C383.44 93.9154 366.67 107.431 349.37 104.602C328.3 101.153 324.49 73.9314 305.37 74.6112C278.48 75.5709 267.7 113.13 247.37 110.6C222.75 107.541 218.37 49.9485 198.37 49.6186C182.05 49.3487 179.33 87.6373 152.37 94.6052C131.37 100.034 122.54 79.5097 100.37 84.6082C81.29 88.9969 78.88 106.252 49.37 132.594C35.3 145.16 22.11 153.488 13.29 158.516C6.61 179.67 3 202.203 3 225.566C3 238.183 4.05 250.559 6.07 262.605C13.33 270.613 21.74 278.57 25.37 276.551C31.43 273.172 18.09 245.38 24.37 241.562C29.85 238.232 50.48 253.018 59.37 274.552C66.19 291.077 61.5 300.454 69.37 306.542C79.43 314.33 92.89 303.453 108.37 305.542C137.71 309.501 152.39 353.168 156.37 364.525C167.21 395.466 163.02 423.317 159.51 438.053C180.36 444.521 202.52 448 225.5 448C348.38 448 448 348.41 448 225.566C448 170.683 428.11 120.448 395.15 81.6491ZM81.37 300.544C77.39 298.894 77.08 286.508 81.37 284.549C84.36 283.179 90.8 286.358 91.37 291.547C92.03 297.505 84.48 301.834 81.37 300.544ZM177.37 112.6C179.23 97.4844 189.53 79.7496 199.37 80.6094C208.95 81.4491 216.24 99.7837 215.37 114.599C214.33 132.314 201.3 150.998 191.37 149.589C181.83 148.229 175.43 128.355 177.37 112.6ZM181.37 318.539C165.85 320.828 152.26 314.37 144.37 309.541C117.49 281.41 108.04 246.62 120.37 221.567C121.67 218.918 126.92 208.851 138.37 201.573C165.97 184.009 215.63 191.516 232.37 224.567C251.48 262.295 217.51 313.21 181.37 318.539Z" fill="#8A7453"/>
<path d="M395.15 81.649C383.44 93.9153 366.67 107.431 349.37 104.602C328.3 101.153 324.49 73.9313 305.37 74.6111C278.48 75.5708 267.7 113.13 247.37 110.6C222.75 107.541 218.37 49.9484 198.37 49.6185C182.05 49.3486 179.33 87.6372 152.37 94.6051C131.37 100.034 122.54 79.5096 100.37 84.6081C81.29 88.9968 78.88 106.252 49.37 132.594C35.3 145.16 22.11 153.488 13.29 158.516C42.27 71.2321 117.2 11.8797 206.58 3.93209C207.21 3.8721 207.84 3.82212 208.47 3.77213C214.09 3.35226 219.77 3.13232 225.5 3.13232C293.34 3.13232 354.09 33.4833 394.92 81.3591C394.99 81.439 395.05 81.519 395.11 81.589C395.12 81.609 395.13 81.629 395.15 81.649Z" fill="#9D9986"/>
<path d="M159.51 438.053C158.92 437.863 158.3 437.673 157.65 437.463C156.98 437.253 156.31 437.033 155.65 436.813C154.62 436.473 153.53 436.103 152.39 435.704C152.09 435.594 151.79 435.494 151.48 435.384C150.72 435.114 149.94 434.834 149.14 434.534C148.49 434.294 147.82 434.044 147.13 433.794C132.75 428.346 112.75 419.039 91.9399 403.453C91.1899 402.883 90.4399 402.314 89.6799 401.734C88.6299 400.924 87.59 400.104 86.5499 399.274C86.52 399.254 86.4899 399.234 86.4599 399.214C84.7699 397.855 83.0699 396.455 81.3699 395.016C80.7499 394.486 80.1399 393.956 79.5199 393.426C78.3099 392.376 77.0999 391.307 75.8999 390.217C70.81 385.598 65.7599 380.59 60.7999 375.122C60.1999 374.462 59.6099 373.802 59.0199 373.142C58.5299 372.592 58.0499 372.043 57.5599 371.483C57.4599 371.363 57.3599 371.253 57.2599 371.133C56.6799 370.453 56.0999 369.783 55.5199 369.103C52.1799 365.145 49.0599 361.176 46.1499 357.207C45.6599 356.537 45.1799 355.867 44.6999 355.208C44.2299 354.538 43.7499 353.868 43.2899 353.198C42.6899 352.348 42.0999 351.499 41.5199 350.639C41.3299 350.369 41.1499 350.099 40.9699 349.829C40.3099 348.849 39.6599 347.87 39.0299 346.9C38.6599 346.33 38.2899 345.76 37.9299 345.191C19.8299 316.769 11.7299 289.737 7.94995 272.342C7.71995 271.253 7.49995 270.203 7.29995 269.193C7.20995 268.763 7.12995 268.343 7.04995 267.923C6.87995 267.094 6.72995 266.304 6.58995 265.534C6.54995 265.334 6.50995 265.134 6.47995 264.934C6.32995 264.125 6.19995 263.345 6.06995 262.605C13.3299 270.613 21.7399 278.57 25.3699 276.551C31.4299 273.172 18.0899 245.38 24.3699 241.561C29.8499 238.232 50.4799 253.018 59.3699 274.552C66.1899 291.077 61.5 300.454 69.3699 306.542C79.4299 314.33 92.89 303.453 108.37 305.542C137.71 309.501 152.39 353.168 156.37 364.525C167.21 395.466 163.02 423.317 159.51 438.053Z" fill="#9D9986"/>
<path d="M215.37 114.599C214.33 132.314 201.3 150.998 191.37 149.589C181.83 148.229 175.43 128.355 177.37 112.6C179.23 97.4842 189.53 79.7494 199.37 80.6092C208.95 81.4489 216.24 99.7835 215.37 114.599Z" fill="#9D9986"/>
<path d="M81.3699 300.544C77.3899 298.894 77.0799 286.508 81.3699 284.549C84.3599 283.179 90.7999 286.358 91.3699 291.546C92.0299 297.505 84.4799 301.833 81.3699 300.544Z" fill="#5E4F39"/>
<path d="M181.37 318.539C165.85 320.828 152.26 314.37 144.37 309.541C117.49 281.41 108.04 246.62 120.37 221.568C121.67 218.918 126.92 208.851 138.37 201.574C165.97 184.009 215.63 191.517 232.37 224.567C251.48 262.295 217.51 313.21 181.37 318.539Z" fill="#9D9986"/>
<path d="M348.47 45.1694C327.29 52.6272 305.21 57.4258 284.29 65.5734C263.37 73.7209 243.1 85.7474 230.37 104.242" stroke="#695840" stroke-width="3" stroke-miterlimit="10"/>
<path d="M267.7 73.6912C257.45 70.0223 247.26 66.2134 237.12 62.2446" stroke="#695840" stroke-miterlimit="10"/>
<path d="M269.32 74.2412C272.96 83.2285 276.61 92.2259 280.25 101.213C281.32 103.842 282.67 106.752 285.34 107.701" stroke="#786549" stroke-miterlimit="10"/>
<path d="M301.63 58.176L286.44 52.7976C278.09 49.8385 268.71 45.8696 265.95 37.4521" stroke="#695840" stroke-miterlimit="10"/>
<path d="M303.08 58.6455C304.71 73.3811 311.51 87.4969 322.03 97.9438" stroke="#7B674A" stroke-miterlimit="10"/>
<path d="M329.18 52.7578C341.58 69.3129 344.74 91.2664 356.57 108.231C356.94 108.761 357.3 109.501 356.87 109.971C356.44 110.441 355.71 109.231 356.35 109.331" stroke="#695840" stroke-miterlimit="10"/>
<path d="M347.32 49.6084C341.51 72.0817 336.44 94.745 332.11 117.548" stroke="#856F51" stroke-miterlimit="10"/>
<path d="M355.98 102.613C354.27 93.3957 354.33 83.8686 356.15 74.6713C362.36 71.3423 367.42 65.9039 370.28 59.4658" stroke="#695840" stroke-miterlimit="10"/>
<path d="M383.79 76.8403C374.72 93.1255 365.65 109.421 356.58 125.706" stroke="#695840" stroke-width="2" stroke-miterlimit="10"/>
<path d="M202.6 56.5363C199.61 48.6386 196.62 40.751 193.64 32.8533C202.42 27.085 208.84 17.8278 211.16 7.59082" stroke="#5F4F3A" stroke-miterlimit="10"/>
<path d="M205.71 66.7137C211.37 47.2895 217.35 27.9552 223.67 8.73096" stroke="#695840" stroke-miterlimit="10"/>
<path d="M213.93 79.4098C224.22 57.2964 233.43 34.6931 241.54 11.6899" stroke="#7D694C" stroke-width="2" stroke-miterlimit="10"/>
<path d="M252.01 20.5869C250.99 30.7339 249.09 40.7909 246.35 50.608" stroke="#695840" stroke-width="2" stroke-miterlimit="10"/>
<path d="M101.03 49.1187C107.99 50.2583 115.12 51.4979 121.21 55.0569C132.63 61.7249 138.12 74.941 146.24 85.3879C151.84 92.5857 158.91 98.6339 166.88 103.063" stroke="#806B4D" stroke-miterlimit="10"/>
<path d="M158.53 29.9643C150.06 28.0449 141.76 34.7529 137.93 42.5406C134.1 50.3283 133.26 59.2256 130.54 67.4732C123.53 88.6869 104.94 103.622 87.26 117.298" stroke="#695840" stroke-width="2" stroke-miterlimit="10"/>
<path d="M34.17 106.372C59.75 109.681 81.26 126.296 104.17 138.132" stroke="#695840" stroke-miterlimit="10"/>
<path d="M25.23 160.545C33.15 141.331 41.16 121.967 52.8 104.752C64.44 87.5369 80.13 72.4014 99.54 64.9536" stroke="#8A7454" stroke-miterlimit="10"/>
<path d="M86.76 52.4775C93.77 71.132 100.78 89.7964 107.78 108.451" stroke="#695840" stroke-miterlimit="10"/>
<path d="M139.54 21.5269C143.63 29.1846 147.94 37.1022 154.92 42.2607C158.84 45.1598 163.4 47.0293 167.57 49.5585C173.03 52.8775 177.73 57.2762 182.39 61.6449C188.55 67.4132 194.71 73.1915 200.87 78.9598" stroke="#695840" stroke-miterlimit="10"/>
<path d="M165.19 74.631C165.93 58.2659 167.03 40.8311 176.77 27.665C181.39 21.4168 187.73 16.4983 191.68 9.80029" stroke="#826D4F" stroke-width="2" stroke-miterlimit="10"/>
<path d="M90.59 310.521C89.32 334.014 86.9 357.447 83.33 380.71C83.24 381.27 83.1 381.92 82.61 382.19C82.12 382.46 81.31 381.87 81.66 381.42" stroke="#786549" stroke-miterlimit="10"/>
<path d="M35.34 323.087C44.04 324.707 52.74 326.327 61.44 327.946C64.65 328.546 68.32 329.036 70.87 326.996C71.96 326.127 72.7 324.877 73.74 323.937C75.68 322.188 78.68 321.718 81.07 322.788C82.5 328.266 89.97 329.086 95.52 327.976C101.07 326.866 107.67 325.267 111.75 329.186" stroke="#695840" stroke-width="2" stroke-miterlimit="10"/>
<path d="M93.3101 392.517L93.4801 396.036C106.87 377.271 120.26 358.507 133.65 339.732" stroke="#8A7454" stroke-miterlimit="10"/>
<path d="M51.27 351.719C80.73 366.824 111.6 379.191 143.34 388.608" stroke="#695840" stroke-width="2" stroke-miterlimit="10"/>
<path d="M69.31 308.872C64.21 309.191 57.83 310.531 56.72 315.53C56.27 317.569 56.91 319.678 57.65 321.628C62.41 334.114 71.81 345.581 71.14 358.937C70.95 362.736 69.92 366.464 69.74 370.263C69.56 374.062 70.39 378.201 73.23 380.74" stroke="#695840" stroke-miterlimit="10"/>
<path d="M68.57 262.365C65.52 260.086 61.13 260.176 57.73 261.885C54.33 263.595 51.8 266.684 49.94 270.003C43.8 280.97 44.25 294.286 44.87 306.832C45.64 322.457 46.41 338.083 47.17 353.718C47.25 352.648 47.32 351.589 47.4 350.519" stroke="#8C7655" stroke-miterlimit="10"/>
<path d="M20.65 282.559C21.41 290.567 25.69 298.174 32.14 302.973C32.91 303.543 33.73 304.113 34.17 304.962C34.68 305.952 34.56 307.132 34.38 308.231C33.61 313.02 31.97 317.909 33.19 322.607C34.41 327.306 40.29 331.135 44.15 328.185" stroke="#695840" stroke-miterlimit="10"/>
<path d="M101.19 260.426C116.96 243.431 142 237.093 156.97 219.388C161.79 213.69 165.51 206.872 171.62 202.593C186.26 192.336 208.84 200.294 222.65 188.937" stroke="#695840" stroke-miterlimit="10"/>
<path d="M124.04 290.717C126.28 281.839 129.31 273.162 133.1 264.824C135.03 260.565 137.32 256.207 141.21 253.618C146.36 250.189 153.15 250.598 158.88 248.269C166.65 245.11 171.48 237.442 175.78 230.244C186.55 212.2 197.73 192.326 194.95 171.502" stroke="#7B674A" stroke-miterlimit="10"/>
<path d="M139.47 307.112C147.88 284.309 156.32 259.046 147.68 236.333C145.02 229.325 140.81 222.917 138.82 215.699C133.72 197.214 143.9 178.31 153.71 161.835" stroke="#8A7454" stroke-width="2" stroke-miterlimit="10"/>
<path d="M167.87 22.9162C176.37 31.1937 189.7 34.0929 200.87 30.1041C209.14 27.1549 216.88 20.6969 225.55 22.0765C231.76 23.0662 236.56 27.8847 242.17 30.7339C255.3 37.3919 271.07 32.6433 284.98 27.8147" stroke="#695840" stroke-miterlimit="10"/>
<path d="M225.5 448C348.383 448 448 348.413 448 225.566C448 102.719 348.383 3.13232 225.5 3.13232C102.617 3.13232 3 102.719 3 225.566C3 348.413 102.617 448 225.5 448Z" stroke="#231F20" stroke-width="5" stroke-miterlimit="10"/>
<path d="M174.39 172.542C175.09 161.795 200.32 156.117 202.08 155.737C220.38 151.778 226.18 158.256 234.71 152.768C245.61 145.77 256.67 129.935 265.95 117.549C276.83 103.023 282.02 82.7089 303.08 83.5487C324.83 84.4184 323.68 112 354.74 117.549C384.18 122.807 424.86 136.343 428.52 145.85C442.27 181.56 358.04 269.453 306.89 254.588C266.67 242.901 255.28 170.083 222.84 173.532C208.57 175.041 196.42 190.657 183.29 184.409C178.58 182.169 174.08 177.271 174.39 172.542Z" fill="#5E4F39"/>
<path d="M136.62 429.546C134.69 415.79 120.78 302.703 205.93 214.27C296.07 120.657 418.38 136.543 430.21 138.292C463.35 219.038 447.91 311.321 390.64 374.632C327.79 444.111 225.58 466.505 136.62 429.546Z" fill="#231F20"/>
<path d="M23.1 170.562C20.36 175.291 19.26 181.689 17.17 194.285C14.01 213.34 12.5 222.927 16.18 225.916C21.92 230.585 36.13 223.817 44.86 217.019C72.94 195.135 77.07 147.359 66.61 141.891C63.25 140.132 57.45 143.68 45.84 150.788C35.88 156.887 28.35 161.495 23.1 170.562Z" fill="#5E4F39"/>
<path d="M107.78 141.451C99.46 148.129 80.75 137.512 83.42 117.179C85.05 104.782 91.97 92.3759 101.22 91.4762C105.24 91.0863 105.88 93.1857 119.02 98.3941C130.63 103.003 132.66 102.363 134.84 105.312C139.52 111.62 137.32 124.106 129.9 131.014C120.76 139.512 110.57 139.202 107.78 141.441V141.451Z" fill="#5E4F39"/>
<path d="M106.16 208.131C102.66 204.163 108.39 192.006 116.05 184.408C124.34 176.191 138.74 169.473 144.73 174.521C147.77 177.081 148.76 182.789 146.71 186.388C143.51 192.006 135.46 187.997 127.92 194.296C121.85 199.364 123.39 205.042 117.04 208.131C113.61 209.801 108.27 210.531 106.16 208.131Z" fill="#5E4F39"/>
<path d="M73.53 250.639C65.18 242.711 70.19 227.975 71.55 223.946C75.08 213.54 82.97 205.012 85.39 206.152C87.82 207.301 81.73 216.759 84.4 229.875C87.15 243.391 96.69 248.439 94.29 252.608C91.93 256.707 79.91 256.697 73.52 250.629L73.53 250.639Z" fill="#5E4F39"/>
<path d="M386.99 106.312C386.99 101.863 390.82 96.7146 394.9 96.4247C403.21 95.8348 412.41 115.429 408.74 119.158C405.32 122.637 386.99 116.039 386.99 106.312Z" fill="#5E4F39"/>
</svg>
