<svg width="451" height="451" viewBox="0 0 451 451" fill="none" xmlns="http://www.w3.org/2000/svg">
<path d="M225.755 3C169.835 3 118.735 23.63 79.6453 57.7H252.775C272.265 57.73 287.125 73.97 286.125 91.05C285.265 105.61 273.025 118.54 256.785 120.39H103.605C85.0853 120.43 71.0153 135.86 71.9953 152C72.8353 165.67 84.3453 177.82 99.6353 179.64H284.525C311.975 179.69 332.915 202.55 331.515 226.62C330.315 247.17 313.045 265.4 290.145 267.99H7.3053C27.1453 370.55 117.405 448 225.755 448C348.645 448 448.255 348.38 448.255 225.5C448.255 102.62 348.645 3 225.755 3ZM321.195 68.23C326.435 58.63 346.675 57.56 357.965 67.21C366.505 74.51 371.175 89.05 365.115 96.82C358.435 105.39 341.205 102.59 331.405 94.78C323.555 88.52 316.865 76.16 321.195 68.23ZM359.025 335.38H76.8653C66.0553 333.49 58.0653 325.08 57.2353 315.76C56.1953 303.94 66.7753 291.82 81.3453 291.65C154.045 292.33 283.415 293.01 356.245 293.69C369.385 291.38 381.195 300.71 382.395 312.01C383.655 323.86 373.045 335.89 359.025 335.38ZM398.835 164.96H190.065C182.065 163.56 176.155 157.34 175.545 150.45C174.775 141.7 182.595 132.73 193.385 132.61C247.175 133.11 342.895 133.62 396.775 134.12C406.495 132.41 415.235 139.31 416.125 147.67C417.055 156.44 409.205 165.34 398.835 164.96Z" fill="#CF6E28"/>
<path d="M284.525 179.64H99.6352C84.3452 177.82 72.8352 165.67 71.9952 152C71.0152 135.86 85.0853 120.43 103.605 120.39H256.785C273.025 118.54 285.265 105.61 286.125 91.0502C287.125 73.9702 272.265 57.7302 252.775 57.7002H79.6452C79.4053 57.9102 79.1653 58.1202 78.9153 58.3402C77.1753 59.8802 75.2752 61.6002 73.2452 63.5302C73.0052 63.7502 72.7653 63.9802 72.5153 64.2202C71.6753 65.0202 70.8152 65.8602 69.9252 66.7302C69.5252 67.1202 69.1253 67.5202 68.7253 67.9302C68.3152 68.3302 67.9053 68.7502 67.4952 69.1702L67.3152 69.3502C66.5552 70.1202 65.7952 70.9102 65.0153 71.7302C54.5153 82.7302 42.2152 97.8602 31.3052 117.37C30.8952 118.1 30.4952 118.84 30.0852 119.58C29.8052 120.1 29.5252 120.62 29.2452 121.14C28.7352 122.1 28.2252 123.06 27.7252 124.04C27.1852 125.08 26.6553 126.14 26.1252 127.21C25.7952 127.89 25.4652 128.57 25.1352 129.25C24.8352 129.87 24.5352 130.49 24.2452 131.12C23.5352 132.63 22.8352 134.15 22.1552 135.7C21.7552 136.61 21.3652 137.52 20.9752 138.43C20.8052 138.83 20.6352 139.22 20.4652 139.62C20.0452 140.61 19.6352 141.6 19.2352 142.61C19.2052 142.65 19.1952 142.68 19.1852 142.72C18.8552 143.54 18.5252 144.37 18.2052 145.2C17.8652 146.05 17.5352 146.91 17.2152 147.77C16.9252 148.53 16.6452 149.29 16.3752 150.05C16.1652 150.62 15.9652 151.19 15.7652 151.76C15.4852 152.55 15.2152 153.34 14.9452 154.14C14.4652 155.55 13.9952 156.96 13.5652 158.36C6.86525 179.54 3.25525 202.1 3.25525 225.5C3.25525 240.03 4.64525 254.24 7.30525 267.99H290.145C313.045 265.4 330.315 247.17 331.515 226.62C332.915 202.55 311.975 179.69 284.525 179.64ZM57.1652 246.19C45.7352 246.19 36.4753 236.93 36.4753 225.5C36.4753 214.07 45.7352 204.81 57.1652 204.81C68.5952 204.81 77.8552 214.07 77.8552 225.5C77.8552 236.93 68.5952 246.19 57.1652 246.19Z" fill="#FAA21B"/>
<path d="M365.115 96.82C358.435 105.39 341.205 102.59 331.405 94.78C323.555 88.52 316.865 76.16 321.195 68.23C326.435 58.63 346.675 57.56 357.965 67.21C366.505 74.51 371.175 89.05 365.115 96.82Z" fill="#FAA21B"/>
<path d="M398.835 164.96H190.065C182.065 163.56 176.155 157.34 175.545 150.45C174.775 141.7 182.595 132.73 193.385 132.61C247.175 133.11 342.895 133.62 396.775 134.12C406.495 132.41 415.235 139.31 416.125 147.67C417.055 156.44 409.205 165.34 398.835 164.96Z" fill="#FAA21B"/>
<path d="M359.025 335.38H76.8653C66.0553 333.49 58.0653 325.08 57.2353 315.76C56.1953 303.94 66.7753 291.82 81.3453 291.65C154.045 292.33 283.415 293.01 356.245 293.69C369.385 291.38 381.195 300.71 382.395 312.01C383.655 323.86 373.045 335.89 359.025 335.38Z" fill="#FAA21B"/>
<path d="M136.875 429.54C134.945 415.78 121.035 302.66 206.185 214.2C296.325 120.56 418.635 136.45 430.465 138.2C463.605 218.97 448.165 311.28 390.895 374.61C328.045 444.11 225.835 466.51 136.875 429.54Z" fill="#231F20"/>
<path d="M225.755 448C348.639 448 448.255 348.383 448.255 225.5C448.255 102.617 348.639 3 225.755 3C102.872 3 3.25525 102.617 3.25525 225.5C3.25525 348.383 102.872 448 225.755 448Z" stroke="#231F20" stroke-width="5" stroke-miterlimit="10"/>
<path d="M57.1653 246.19C68.5921 246.19 77.8553 236.927 77.8553 225.5C77.8553 214.073 68.5921 204.81 57.1653 204.81C45.7386 204.81 36.4753 214.073 36.4753 225.5C36.4753 236.927 45.7386 246.19 57.1653 246.19Z" fill="#CF6E28"/>
</svg>
