<svg width="375" height="850" viewBox="0 0 375 850" fill="none" xmlns="http://www.w3.org/2000/svg">
<g clip-path="url(#clip0_170_975)">
<rect width="375" height="850" fill="#D0D6F9"/>
<path fill-rule="evenodd" clip-rule="evenodd" d="M366.668 356.5C366.668 356.5 361.86 356.5 361.86 351.693C361.82 356.42 357.053 356.5 357.053 356.5C357.053 356.5 361.86 356.5 361.86 361.308C361.86 356.5 366.668 356.5 366.668 356.5Z" fill="#0B0D17"/>
<path fill-rule="evenodd" clip-rule="evenodd" d="M313.463 175.731C313.463 175.731 308.655 175.731 308.655 170.923C308.615 175.651 303.847 175.731 303.847 175.731C303.847 175.731 308.655 175.731 308.655 180.539C308.655 175.731 313.463 175.731 313.463 175.731Z" fill="#0B0D17"/>
<path fill-rule="evenodd" clip-rule="evenodd" d="M328.847 21.8848C328.847 21.8848 324.039 21.8848 324.039 17.0771C323.999 21.8047 319.231 21.8848 319.231 21.8848C319.231 21.8848 324.039 21.8848 324.039 26.6925C324.039 21.8848 328.847 21.8848 328.847 21.8848Z" fill="#0B0D17"/>
<path fill-rule="evenodd" clip-rule="evenodd" d="M315.385 187.91C315.385 187.91 313.782 187.91 313.782 186.308C313.782 187.91 312.18 187.91 312.18 187.91C312.18 187.91 313.782 187.91 313.782 189.513C313.782 187.91 315.385 187.91 315.385 187.91Z" fill="#0B0D17"/>
<path fill-rule="evenodd" clip-rule="evenodd" d="M351.282 376.372C351.282 376.372 349.68 376.372 349.68 374.77C349.68 376.372 348.077 376.372 348.077 376.372C348.077 376.372 349.68 376.372 349.68 377.975C349.68 376.372 351.282 376.372 351.282 376.372Z" fill="#0B0D17"/>
<path fill-rule="evenodd" clip-rule="evenodd" d="M89.1025 21.8848C89.1025 21.8848 87.5 21.8848 87.5 20.2822C87.5 21.8848 85.8974 21.8848 85.8974 21.8848C85.8974 21.8848 87.5 21.8848 87.5 23.4874C87.5 21.8848 89.1025 21.8848 89.1025 21.8848Z" fill="#0B0D17"/>
<path fill-rule="evenodd" clip-rule="evenodd" d="M108.975 59.7051C108.975 59.7051 107.372 59.7051 107.372 58.1025C107.372 59.7051 105.769 59.7051 105.769 59.7051C105.769 59.7051 107.372 59.7051 107.372 61.3077C107.372 59.7051 108.975 59.7051 108.975 59.7051Z" fill="#0B0D17"/>
<path fill-rule="evenodd" clip-rule="evenodd" d="M255.129 435.988C255.129 435.988 253.526 435.988 253.526 434.385C253.526 435.988 251.924 435.988 251.924 435.988C251.924 435.988 253.526 435.988 253.526 437.59C253.526 435.988 255.129 435.988 255.129 435.988Z" fill="#0B0D17"/>
<path fill-rule="evenodd" clip-rule="evenodd" d="M267.309 379.577C267.309 379.577 265.706 379.577 265.706 377.975C265.706 379.577 264.103 379.577 264.103 379.577C264.103 379.577 265.706 379.577 265.706 381.18C265.706 379.577 267.309 379.577 267.309 379.577Z" fill="#0B0D17"/>
<path fill-rule="evenodd" clip-rule="evenodd" d="M360.898 100.09C360.898 100.09 359.296 100.09 359.296 98.4873C359.296 100.09 357.693 100.09 357.693 100.09C357.693 100.09 359.296 100.09 359.296 101.692C359.296 100.09 360.898 100.09 360.898 100.09Z" fill="#0B0D17"/>
<path fill-rule="evenodd" clip-rule="evenodd" d="M157.052 127.013C157.052 127.013 155.449 127.013 155.449 125.41C155.449 127.013 153.847 127.013 153.847 127.013C153.847 127.013 155.449 127.013 155.449 128.616C155.449 127.013 157.052 127.013 157.052 127.013Z" fill="#0B0D17"/>
<path fill-rule="evenodd" clip-rule="evenodd" d="M3.20508 3.93606C3.20508 3.93606 1.60251 3.93606 1.60251 2.3335C1.60251 3.93606 -5.39526e-05 3.93606 -5.39526e-05 3.93606C-5.39526e-05 3.93606 1.60251 3.93606 1.60251 5.53863C1.60251 3.93606 3.20508 3.93606 3.20508 3.93606Z" fill="#0B0D17"/>
<path fill-rule="evenodd" clip-rule="evenodd" d="M155.129 72.5254C155.129 72.5254 153.526 72.5254 153.526 70.9229C153.526 72.5254 151.924 72.5254 151.924 72.5254C151.924 72.5254 153.526 72.5254 153.526 74.128C153.526 72.5254 155.129 72.5254 155.129 72.5254Z" fill="#0B0D17"/>
<path fill-rule="evenodd" clip-rule="evenodd" d="M322.437 559.065C322.437 559.065 320.834 559.065 320.834 557.462C320.834 559.065 319.231 559.065 319.231 559.065C319.231 559.065 320.834 559.065 320.834 560.667C320.834 559.065 322.437 559.065 322.437 559.065Z" fill="#0B0D17"/>
<path fill-rule="evenodd" clip-rule="evenodd" d="M178.206 776.373C178.206 776.373 176.603 776.373 176.603 774.77C176.603 776.373 175.001 776.373 175.001 776.373C175.001 776.373 176.603 776.373 176.603 777.975C176.603 776.373 178.206 776.373 178.206 776.373Z" fill="#0B0D17"/>
<path fill-rule="evenodd" clip-rule="evenodd" d="M321.154 421.885C321.154 421.885 319.552 421.885 319.552 420.283C319.552 421.885 317.949 421.885 317.949 421.885C317.949 421.885 319.552 421.885 319.552 423.488C319.552 421.885 321.154 421.885 321.154 421.885Z" fill="#0B0D17"/>
<path fill-rule="evenodd" clip-rule="evenodd" d="M126.283 540.475C126.283 540.475 124.681 540.475 124.681 538.873C124.681 540.475 123.078 540.475 123.078 540.475C123.078 540.475 124.681 540.475 124.681 542.078C124.681 540.475 126.283 540.475 126.283 540.475Z" fill="#0B0D17"/>
<path fill-rule="evenodd" clip-rule="evenodd" d="M146.795 369.321C146.795 369.321 145.192 369.321 145.192 367.718C145.192 369.321 143.59 369.321 143.59 369.321C143.59 369.321 145.192 369.321 145.192 370.923C145.192 369.321 146.795 369.321 146.795 369.321Z" fill="#0B0D17"/>
<path fill-rule="evenodd" clip-rule="evenodd" d="M173.719 289.834C173.719 289.834 172.116 289.834 172.116 288.231C172.116 289.834 170.514 289.834 170.514 289.834C170.514 289.834 172.116 289.834 172.116 291.436C172.116 289.834 173.719 289.834 173.719 289.834Z" fill="#0B0D17"/>
<path fill-rule="evenodd" clip-rule="evenodd" d="M284.616 315.475C284.616 315.475 283.014 315.475 283.014 313.872C283.014 315.475 281.411 315.475 281.411 315.475C281.411 315.475 283.014 315.475 283.014 317.077C283.014 315.475 284.616 315.475 284.616 315.475Z" fill="#0B0D17"/>
<path fill-rule="evenodd" clip-rule="evenodd" d="M375.001 217.398C375.001 217.398 373.398 217.398 373.398 215.795C373.398 217.398 371.796 217.398 371.796 217.398C371.796 217.398 373.398 217.398 373.398 219C373.398 217.398 375.001 217.398 375.001 217.398Z" fill="#0B0D17"/>
<path fill-rule="evenodd" clip-rule="evenodd" d="M230.771 425.09C230.771 425.09 229.168 425.09 229.168 426.693C229.168 425.09 227.565 425.09 227.565 425.09C227.565 425.09 229.168 425.09 229.168 423.488C229.168 425.09 230.771 425.09 230.771 425.09Z" fill="#0B0D17"/>
<path fill-rule="evenodd" clip-rule="evenodd" d="M142.949 410.347C142.949 410.347 141.347 410.347 141.347 411.949C141.347 410.347 139.744 410.347 139.744 410.347C139.744 410.347 141.347 410.347 141.347 408.744C141.347 410.347 142.949 410.347 142.949 410.347Z" fill="#0B0D17"/>
<path fill-rule="evenodd" clip-rule="evenodd" d="M269.873 540.475C269.873 540.475 268.27 540.475 268.27 542.077C268.27 540.475 266.668 540.475 266.668 540.475C266.668 540.475 268.27 540.475 268.27 538.872C268.27 540.475 269.873 540.475 269.873 540.475Z" fill="#0B0D17"/>
<path fill-rule="evenodd" clip-rule="evenodd" d="M125.642 757.783C125.642 757.783 124.039 757.783 124.039 759.385C124.039 757.783 122.436 757.783 122.436 757.783C122.436 757.783 124.039 757.783 124.039 756.18C124.039 757.783 125.642 757.783 125.642 757.783Z" fill="#0B0D17"/>
<path fill-rule="evenodd" clip-rule="evenodd" d="M89.1025 821.886C89.1025 821.886 87.5 821.886 87.5 823.488C87.5 821.886 85.8974 821.886 85.8974 821.886C85.8974 821.886 87.5 821.886 87.5 820.283C87.5 821.886 89.1025 821.886 89.1025 821.886Z" fill="#0B0D17"/>
<path fill-rule="evenodd" clip-rule="evenodd" d="M284.616 544.962C284.616 544.962 283.014 544.962 283.014 546.565C283.014 544.962 281.411 544.962 281.411 544.962C281.411 544.962 283.014 544.962 283.014 543.36C283.014 544.962 284.616 544.962 284.616 544.962Z" fill="#0B0D17"/>
<path fill-rule="evenodd" clip-rule="evenodd" d="M140.386 762.27C140.386 762.27 138.783 762.27 138.783 763.873C138.783 762.27 137.181 762.27 137.181 762.27C137.181 762.27 138.783 762.27 138.783 760.667C138.783 762.27 140.386 762.27 140.386 762.27Z" fill="#0B0D17"/>
<path fill-rule="evenodd" clip-rule="evenodd" d="M103.847 826.373C103.847 826.373 102.244 826.373 102.244 827.975C102.244 826.373 100.642 826.373 100.642 826.373C100.642 826.373 102.244 826.373 102.244 824.77C102.244 826.373 103.847 826.373 103.847 826.373Z" fill="#0B0D17"/>
<path fill-rule="evenodd" clip-rule="evenodd" d="M290.385 573.167C290.385 573.167 288.782 573.167 288.782 574.77C288.782 573.167 287.18 573.167 287.18 573.167C287.18 573.167 288.782 573.167 288.782 571.565C288.782 573.167 290.385 573.167 290.385 573.167Z" fill="#0B0D17"/>
<path fill-rule="evenodd" clip-rule="evenodd" d="M146.154 790.475C146.154 790.475 144.552 790.475 144.552 792.078C144.552 790.475 142.949 790.475 142.949 790.475C142.949 790.475 144.552 790.475 144.552 788.873C144.552 790.475 146.154 790.475 146.154 790.475Z" fill="#0B0D17"/>
<path fill-rule="evenodd" clip-rule="evenodd" d="M243.59 647.526C243.59 647.526 241.987 647.526 241.987 649.129C241.987 647.526 240.385 647.526 240.385 647.526C240.385 647.526 241.987 647.526 241.987 645.924C241.987 647.526 243.59 647.526 243.59 647.526Z" fill="#0B0D17"/>
<path fill-rule="evenodd" clip-rule="evenodd" d="M337.821 647.526C337.821 647.526 336.219 647.526 336.219 649.129C336.219 647.526 334.616 647.526 334.616 647.526C334.616 647.526 336.219 647.526 336.219 645.924C336.219 647.526 337.821 647.526 337.821 647.526Z" fill="#0B0D17"/>
<path fill-rule="evenodd" clip-rule="evenodd" d="M254.487 62.9102C254.487 62.9102 252.885 62.9102 252.885 61.3076C252.885 62.9102 251.282 62.9102 251.282 62.9102C251.282 62.9102 252.885 62.9102 252.885 64.5127C252.885 62.9102 254.487 62.9102 254.487 62.9102Z" fill="#0B0D17"/>
<path fill-rule="evenodd" clip-rule="evenodd" d="M143.591 289.834C143.591 289.834 138.783 289.834 138.783 285.026C138.743 289.753 133.975 289.834 133.975 289.834C133.975 289.834 138.783 289.834 138.783 294.641C138.783 289.834 143.591 289.834 143.591 289.834Z" fill="#0B0D17"/>
<path fill-rule="evenodd" clip-rule="evenodd" d="M296.796 703.296C296.796 703.296 291.988 703.296 291.988 708.103C291.948 703.376 287.181 703.296 287.181 703.296C287.181 703.296 291.988 703.296 291.988 698.488C291.988 703.296 296.796 703.296 296.796 703.296Z" fill="#0B0D17"/>
</g>
<defs>
<clipPath id="clip0_170_975">
<rect width="375" height="850" fill="white"/>
</clipPath>
</defs>
</svg>
