<svg width="451" height="451" viewBox="0 0 451 451" fill="none" xmlns="http://www.w3.org/2000/svg">
<path d="M225.5 448.029C348.383 448.029 448 348.412 448 225.529C448 102.646 348.383 3.02905 225.5 3.02905C102.617 3.02905 3 102.646 3 225.529C3 348.412 102.617 448.029 225.5 448.029Z" fill="#E6E7E8"/>
<path d="M180.8 7.51906C97.04 24.6891 30.2699 88.6891 9.56995 171.659C15.8499 166.709 24.7799 161.399 33.3899 163.639C47.0299 167.179 45.9599 186.009 57.1399 191.209C76.3299 200.139 97.03 152.769 144.46 138.359C188.23 125.059 206.45 154.519 242.5 136.059C272.53 120.689 276.02 91.9891 298.41 92.3991C317.41 92.7491 322.63 113.549 344.37 117.679C366.79 121.939 388.68 105.039 402.9 91.2091C351.24 22.9791 264.62 -9.66094 180.8 7.51906ZM78.3299 75.5491C76.34 77.5291 72.9499 78.6591 71.9499 77.5891C70.8399 76.4191 72.5099 72.4691 75.2699 70.4391C76.7799 69.3291 79.3999 68.2391 80.3699 69.1691C81.4599 70.1991 80.3199 73.5691 78.3299 75.5491ZM101.56 124.739C99.6999 127.259 95.7899 128.549 94.0699 127.129C92.2399 125.609 93.1399 121.199 95.4399 118.789C96.95 117.199 99.8199 115.669 101.56 116.739C103.55 117.969 103.45 122.199 101.56 124.739ZM151.61 83.9791C149.58 84.5891 146.67 84.0191 145.99 82.1891C145.29 80.2991 147.29 77.9391 149.31 77.0791C151.5 76.1491 154.66 76.5991 155.44 78.3591C156.26 80.2391 154.17 83.1991 151.61 83.9791ZM165.14 98.0191C163.28 98.3691 161.4 96.8491 161.05 94.9591C160.7 93.0491 161.92 90.9191 163.86 90.6191C165.6 90.3491 167.2 91.6491 167.69 93.1691C168.33 95.1191 167.19 97.6291 165.14 98.0191ZM189.65 22.6991C189.71 21.2991 193.24 20.4091 194.76 20.1491C197.1 19.7391 200.97 19.7691 201.39 21.1691C201.8 22.5091 199.04 25.0991 196.03 25.5091C192.96 25.9291 189.59 24.0891 189.65 22.6991ZM199.86 52.0591C198.33 52.5091 196.43 51.5291 196.29 50.2691C196.17 49.2591 197.25 48.3391 198.07 47.9791C199.38 47.3891 201.39 47.5691 201.9 48.7391C202.41 49.8891 201.33 51.6291 199.86 52.0591ZM208.8 71.7191C207.71 71.3091 207.56 69.1791 208.29 68.6591C209.05 68.1091 211.1 69.0791 211.1 70.1891C211.1 71.0891 209.72 72.0691 208.8 71.7191ZM230.76 97.2491C227.83 98.1691 223.84 96.9991 222.84 93.9291C221.89 91.0191 224.13 87.9291 226.67 86.7891C229.76 85.3991 234.22 86.4691 235.35 89.5891C236.45 92.6291 233.93 96.2591 230.76 97.2491ZM352.03 87.0391C343.71 96.2691 323.2 92.8991 313.73 80.9091C306.01 71.1391 304.28 53.9291 313.73 46.4391C323.12 39.0091 338.67 44.9991 346.67 53.3391C355.36 62.3991 359.49 78.7791 352.03 87.0391Z" fill="#F1F2F2"/>
<path d="M225.5 448.029C348.383 448.029 448 348.412 448 225.529C448 102.646 348.383 3.02905 225.5 3.02905C102.617 3.02905 3 102.646 3 225.529C3 348.412 102.617 448.029 225.5 448.029Z" stroke="#231F20" stroke-width="5" stroke-miterlimit="10"/>
<path d="M136.62 429.569C134.69 415.809 120.78 302.689 205.93 214.229C296.07 120.589 418.38 136.479 430.21 138.229C463.35 218.999 447.91 311.309 390.64 374.639C327.79 444.139 225.58 466.539 136.62 429.569Z" fill="#231F20"/>
<path d="M52.54 263.209C49.77 249.539 56.75 235.159 67.86 227.209C81.72 217.289 101.51 217.719 113.05 227.979C130.88 243.819 125.54 279.989 104.62 290.019C85.69 299.089 57.02 285.319 52.53 263.209H52.54Z" fill="#F1F2F2"/>
</svg>
