<svg width="768" height="1024" viewBox="0 0 768 1024" fill="none" xmlns="http://www.w3.org/2000/svg">
<g clip-path="url(#clip0_169_717)">
<rect width="768" height="1024" fill="#D0D6F9"/>
<g clip-path="url(#clip1_169_717)">
<path d="M768 1024.15L768 0.145996L6.10352e-05 0.145963L1.62747e-05 1024.15L768 1024.15Z" fill="#D0D6F9"/>
<path fill-rule="evenodd" clip-rule="evenodd" d="M664 501.5C664 501.5 656.5 501.5 656.5 494C656.437 501.375 649 501.5 649 501.5C649 501.5 656.5 501.5 656.5 509C656.5 501.5 664 501.5 664 501.5Z" fill="#0B0D17"/>
<path fill-rule="evenodd" clip-rule="evenodd" d="M581 219.5C581 219.5 573.5 219.5 573.5 212C573.437 219.375 566 219.5 566 219.5C566 219.5 573.5 219.5 573.5 227C573.5 219.5 581 219.5 581 219.5Z" fill="#0B0D17"/>
<path fill-rule="evenodd" clip-rule="evenodd" d="M584 238.5C584 238.5 581.5 238.5 581.5 236C581.5 238.5 579 238.5 579 238.5C579 238.5 581.5 238.5 581.5 241C581.5 238.5 584 238.5 584 238.5Z" fill="#0B0D17"/>
<path fill-rule="evenodd" clip-rule="evenodd" d="M640 532.5C640 532.5 637.5 532.5 637.5 530C637.5 532.5 635 532.5 635 532.5C635 532.5 637.5 532.5 637.5 535C637.5 532.5 640 532.5 640 532.5Z" fill="#0B0D17"/>
<path fill-rule="evenodd" clip-rule="evenodd" d="M262 38.5C262 38.5 259.5 38.5 259.5 36C259.5 38.5 257 38.5 257 38.5C257 38.5 259.5 38.5 259.5 41C259.5 38.5 262 38.5 262 38.5Z" fill="#0B0D17"/>
<path fill-rule="evenodd" clip-rule="evenodd" d="M490 625.5C490 625.5 487.5 625.5 487.5 623C487.5 625.5 485 625.5 485 625.5C485 625.5 487.5 625.5 487.5 628C487.5 625.5 490 625.5 490 625.5Z" fill="#0B0D17"/>
<path fill-rule="evenodd" clip-rule="evenodd" d="M509 537.5C509 537.5 506.5 537.5 506.5 535C506.5 537.5 504 537.5 504 537.5C504 537.5 506.5 537.5 506.5 540C506.5 537.5 509 537.5 509 537.5Z" fill="#0B0D17"/>
<path fill-rule="evenodd" clip-rule="evenodd" d="M655 101.5C655 101.5 652.5 101.5 652.5 99C652.5 101.5 650 101.5 650 101.5C650 101.5 652.5 101.5 652.5 104C652.5 101.5 655 101.5 655 101.5Z" fill="#0B0D17"/>
<path fill-rule="evenodd" clip-rule="evenodd" d="M337 143.5C337 143.5 334.5 143.5 334.5 141C334.5 143.5 332 143.5 332 143.5C332 143.5 334.5 143.5 334.5 146C334.5 143.5 337 143.5 337 143.5Z" fill="#0B0D17"/>
<path fill-rule="evenodd" clip-rule="evenodd" d="M334 58.5C334 58.5 331.5 58.5 331.5 56C331.5 58.5 329 58.5 329 58.5C329 58.5 331.5 58.5 331.5 61C331.5 58.5 334 58.5 334 58.5Z" fill="#0B0D17"/>
<path fill-rule="evenodd" clip-rule="evenodd" d="M595 817.5C595 817.5 592.5 817.5 592.5 815C592.5 817.5 590 817.5 590 817.5C590 817.5 592.5 817.5 592.5 820C592.5 817.5 595 817.5 595 817.5Z" fill="#0B0D17"/>
<path fill-rule="evenodd" clip-rule="evenodd" d="M593 603.5C593 603.5 590.5 603.5 590.5 601C590.5 603.5 588 603.5 588 603.5C588 603.5 590.5 603.5 590.5 606C590.5 603.5 593 603.5 593 603.5Z" fill="#0B0D17"/>
<path fill-rule="evenodd" clip-rule="evenodd" d="M289 788.5C289 788.5 286.5 788.5 286.5 786C286.5 788.5 284 788.5 284 788.5C284 788.5 286.5 788.5 286.5 791C286.5 788.5 289 788.5 289 788.5Z" fill="#0B0D17"/>
<path fill-rule="evenodd" clip-rule="evenodd" d="M321 521.5C321 521.5 318.5 521.5 318.5 519C318.5 521.5 316 521.5 316 521.5C316 521.5 318.5 521.5 318.5 524C318.5 521.5 321 521.5 321 521.5Z" fill="#0B0D17"/>
<path fill-rule="evenodd" clip-rule="evenodd" d="M363 397.5C363 397.5 360.5 397.5 360.5 395C360.5 397.5 358 397.5 358 397.5C358 397.5 360.5 397.5 360.5 400C360.5 397.5 363 397.5 363 397.5Z" fill="#0B0D17"/>
<path fill-rule="evenodd" clip-rule="evenodd" d="M536 437.5C536 437.5 533.5 437.5 533.5 435C533.5 437.5 531 437.5 531 437.5C531 437.5 533.5 437.5 533.5 440C533.5 437.5 536 437.5 536 437.5Z" fill="#0B0D17"/>
<path fill-rule="evenodd" clip-rule="evenodd" d="M677 284.5C677 284.5 674.5 284.5 674.5 282C674.5 284.5 672 284.5 672 284.5C672 284.5 674.5 284.5 674.5 287C674.5 284.5 677 284.5 677 284.5Z" fill="#0B0D17"/>
<path fill-rule="evenodd" clip-rule="evenodd" d="M452 608.5C452 608.5 449.5 608.5 449.5 611C449.5 608.5 447 608.5 447 608.5C447 608.5 449.5 608.5 449.5 606C449.5 608.5 452 608.5 452 608.5Z" fill="#0B0D17"/>
<path fill-rule="evenodd" clip-rule="evenodd" d="M315 585.5C315 585.5 312.5 585.5 312.5 588C312.5 585.5 310 585.5 310 585.5C310 585.5 312.5 585.5 312.5 583C312.5 585.5 315 585.5 315 585.5Z" fill="#0B0D17"/>
<path fill-rule="evenodd" clip-rule="evenodd" d="M513 788.5C513 788.5 510.5 788.5 510.5 791C510.5 788.5 508 788.5 508 788.5C508 788.5 510.5 788.5 510.5 786C510.5 788.5 513 788.5 513 788.5Z" fill="#0B0D17"/>
<path fill-rule="evenodd" clip-rule="evenodd" d="M536 795.5C536 795.5 533.5 795.5 533.5 798C533.5 795.5 531 795.5 531 795.5C531 795.5 533.5 795.5 533.5 793C533.5 795.5 536 795.5 536 795.5Z" fill="#0B0D17"/>
<path fill-rule="evenodd" clip-rule="evenodd" d="M545 839.5C545 839.5 542.5 839.5 542.5 842C542.5 839.5 540 839.5 540 839.5C540 839.5 542.5 839.5 542.5 837C542.5 839.5 545 839.5 545 839.5Z" fill="#0B0D17"/>
<path fill-rule="evenodd" clip-rule="evenodd" d="M472 955.5C472 955.5 469.5 955.5 469.5 958C469.5 955.5 467 955.5 467 955.5C467 955.5 469.5 955.5 469.5 953C469.5 955.5 472 955.5 472 955.5Z" fill="#0B0D17"/>
<path fill-rule="evenodd" clip-rule="evenodd" d="M619 955.5C619 955.5 616.5 955.5 616.5 958C616.5 955.5 614 955.5 614 955.5C614 955.5 616.5 955.5 616.5 953C616.5 955.5 619 955.5 619 955.5Z" fill="#0B0D17"/>
<path fill-rule="evenodd" clip-rule="evenodd" d="M489 43.5C489 43.5 486.5 43.5 486.5 41C486.5 43.5 484 43.5 484 43.5C484 43.5 486.5 43.5 486.5 46C486.5 43.5 489 43.5 489 43.5Z" fill="#0B0D17"/>
<path fill-rule="evenodd" clip-rule="evenodd" d="M316 397.5C316 397.5 308.5 397.5 308.5 390C308.437 397.375 301 397.5 301 397.5C301 397.5 308.5 397.5 308.5 405C308.5 397.5 316 397.5 316 397.5Z" fill="#0B0D17"/>
</g>
</g>
<defs>
<clipPath id="clip0_169_717">
<rect width="768" height="1024" fill="white"/>
</clipPath>
<clipPath id="clip1_169_717">
<rect width="1230" height="768" fill="white" transform="translate(768 -120) rotate(90)"/>
</clipPath>
</defs>
</svg>
