<svg width="448" height="451" viewBox="0 0 448 451" fill="none" xmlns="http://www.w3.org/2000/svg">
<path d="M444.043 225.5C444.043 348.38 345.491 448 223.928 448C144.885 448 75.566 405.88 36.7566 342.63C49.0731 351.74 67.9881 362.45 89.8809 360.5C114.207 358.34 127.938 341.82 157.152 319.5C174.217 306.46 205.082 282.88 236.294 271.5C303.031 247.16 339.832 290.06 392.6 264.5C407.825 257.12 426.978 242.8 443.647 212.05C443.914 216.5 444.043 220.98 444.043 225.5Z" fill="#4A3C1E"/>
<path d="M443.647 212.05C426.978 242.8 407.825 257.12 392.6 264.5C339.832 290.06 303.031 247.16 236.294 271.5C205.082 282.88 174.217 306.46 157.152 319.5C127.938 341.82 114.207 358.34 89.8809 360.5C67.9882 362.45 49.0731 351.74 36.7566 342.63C17.4657 311.2 5.70314 274.57 4.02136 235.29C9.29422 244.94 23.4706 267.24 51.299 279.5C54.2273 280.79 89.683 295.77 127.474 280.5C161.119 266.91 157.963 244.96 195.19 223.9C205.953 217.81 208.565 218.32 270.919 203.5C344.986 185.9 355.087 181.92 365.89 173.5C378.948 163.32 397.21 143.43 406.668 102.35C393.174 82.22 376.861 64.84 358.559 50.51C358.47 50.25 358.371 49.99 358.272 49.73C363.812 53.92 369.184 58.37 374.368 63.08C414.226 100.82 440.185 153.37 443.647 212.05Z" fill="#675328"/>
<path d="M406.668 102.35C397.21 143.43 378.948 163.32 365.89 173.5C355.087 181.92 344.986 185.9 270.919 203.5C208.565 218.32 205.953 217.81 195.19 223.9C157.963 244.96 161.119 266.91 127.474 280.5C89.6832 295.77 54.2274 280.79 51.2991 279.5C23.4707 267.24 9.29433 244.94 4.02147 235.29C3.88297 232.05 3.81372 228.78 3.81372 225.5C3.81372 202.81 7.17727 180.91 13.4196 160.29C13.3009 168.92 14.4386 184.56 23.5993 200.5C35.4212 221.09 57.9768 237.57 82.9561 238.5C103.236 239.25 118.066 229.49 139.345 215.5C160.753 201.42 164.69 192.87 178.916 182.5C204.39 163.93 219.14 171.62 263.005 160.5C298.639 151.46 346.718 139.27 360.944 104.5C364.94 94.7198 368.68 77.2298 358.559 50.5098C376.861 64.8398 393.174 82.2198 406.668 102.35Z" fill="#876D35"/>
<path d="M358.559 50.5101C352.159 45.4801 345.521 40.8401 338.665 36.5901H338.655C312.142 20.9001 261.818 -1.88988 200.255 4.28012C173.06 7.21012 147.348 15.1601 124.031 27.1901C123.615 27.4001 123.2 27.6201 122.784 27.8401C109.884 34.6901 97.7457 42.8001 86.5174 51.9801C86.2998 52.1601 86.0722 52.3501 85.8447 52.5401C51.3089 81.5001 31.4145 116.37 21.4723 138.03C21.4426 138.09 21.4228 138.14 21.403 138.2C18.3758 145.37 15.7048 152.74 13.4196 160.29C13.3008 168.92 14.4385 184.56 23.5992 200.5C35.4211 221.09 57.9767 237.57 82.956 238.5C103.236 239.25 118.066 229.49 139.345 215.5C160.753 201.42 164.69 192.87 178.916 182.5C204.39 163.93 219.14 171.62 263.005 160.5C298.639 151.46 346.718 139.27 360.943 104.5C364.94 94.7201 368.68 77.2301 358.559 50.5101ZM270.919 129.5C222.88 149.48 210.355 136 169.023 155.5C125.139 176.2 120.756 200.13 96.8059 197.5C67.6815 194.3 38.9825 155.08 43.3848 120.5C45.8679 101 58.1449 88.8001 75.0418 72.5001C89.0599 58.9801 129.155 21.4001 194.745 12.5001C215.737 9.65012 259.117 4.37012 300.597 28.5001C313.329 35.9101 340.218 51.5501 340.169 72.5001C340.099 100.73 291.189 121.07 270.919 129.5Z" fill="#9C7E3D"/>
<path d="M300.598 28.5001C259.117 4.37013 215.737 9.65013 194.745 12.5001C129.155 21.4001 89.0599 58.9801 75.0418 72.5001C58.1449 88.8001 45.868 101 43.3849 120.5C38.9826 155.08 67.6816 194.3 96.806 197.5C120.756 200.13 125.139 176.2 169.023 155.5C210.355 136 222.88 149.48 270.919 129.5C291.189 121.07 340.099 100.73 340.169 72.5001C340.218 51.5501 313.33 35.9101 300.598 28.5001ZM274.876 95.5001C237.59 118.85 217.646 103.78 176.938 118.5C127.068 136.54 115.84 174.03 91.8596 166.5C76.2488 161.6 66.3461 141.11 66.1383 124.5C65.5645 79.2701 136.654 50.1001 155.173 42.5001C170.161 36.3501 216.331 18.1401 264.983 34.5001C274.718 37.7701 301.023 46.6101 302.576 62.5001C304.02 77.2501 283.364 90.1901 274.876 95.5001Z" fill="#AB8A42"/>
<path d="M302.576 62.5C301.023 46.61 274.718 37.77 264.983 34.5C216.331 18.14 170.161 36.35 155.173 42.5C136.654 50.1 65.5644 79.27 66.1382 124.5C66.346 141.11 76.2487 161.6 91.8595 166.5C115.84 174.03 127.068 136.54 176.937 118.5C217.646 103.78 237.59 118.85 274.876 95.5C283.364 90.19 304.02 77.25 302.576 62.5ZM195.734 89.5C184.278 93.15 177.788 87.78 163.088 91.5C152.176 94.26 150.939 102.38 139.345 104.5C136.664 104.99 125.604 107.01 122.527 101.5C120.578 98.01 122.349 92.43 126.484 87.5C133.528 79.53 145.469 68.19 163.088 60.5C185.059 50.91 216.578 46.69 221.455 56.5C225.491 64.62 212.215 84.25 195.734 89.5Z" fill="#BC984A"/>
<path d="M195.734 89.5001C184.278 93.1501 177.788 87.7801 163.088 91.5001C152.176 94.2601 150.939 102.38 139.345 104.5C136.664 104.99 125.604 107.01 122.527 101.5C120.578 98.0101 122.349 92.4301 126.484 87.5001C133.528 79.5301 145.468 68.1901 163.088 60.5001C185.059 50.9101 216.578 46.6901 221.455 56.5001C225.491 64.6201 212.215 84.2501 195.734 89.5001Z" fill="#CEA652"/>
<path d="M223.315 448C344.881 448 443.43 348.383 443.43 225.5C443.43 102.617 344.881 3 223.315 3C101.749 3 3.20032 102.617 3.20032 225.5C3.20032 348.383 101.749 448 223.315 448Z" stroke="#231F20" stroke-width="5" stroke-miterlimit="10"/>
<path d="M386.685 374.61C334.599 432.83 255.199 458 179.064 442.91C177.63 442.62 176.205 442.33 174.781 442.01C174.088 441.83 173.396 441.67 172.674 441.54H172.654C168.509 440.59 164.374 439.52 160.258 438.33C158.626 437.86 156.994 437.37 155.371 436.85C151.355 435.6 147.368 434.22 143.391 432.73C143.144 432.63 142.896 432.54 142.649 432.44C140.215 431.52 137.802 430.55 135.388 429.54C135.378 429.48 135.368 429.42 135.368 429.36C135.358 429.33 135.358 429.29 135.348 429.25C134.131 420.38 129.076 377.46 142.501 325.68C151.76 289.97 169.805 250.06 203.955 214.2C247.483 168.49 298.589 148.88 340.861 140.99C375.288 134.55 403.868 135.89 417.728 137.23C421.695 137.61 424.465 137.99 425.81 138.2H425.84C425.989 138.58 426.147 138.95 426.295 139.33C427.72 142.89 429.045 146.47 430.282 150.07C457.032 227.89 440.58 314.36 386.685 374.61Z" fill="#231F20"/>
</svg>
